<?xml version="1.0" encoding="UTF-8"?>
<svg width="30px" height="30px" viewBox="0 0 30 30" version="1.1" xmlns="http://www.w3.org/2000/svg" xmlns:xlink="http://www.w3.org/1999/xlink">
    <!-- Generator: Sketch 52.6 (67491) - http://www.bohemiancoding.com/sketch -->
    <title>发现灰色@3x</title>
    <desc>Created with Sketch.</desc>
    <g id="发现灰色" stroke="none" stroke-width="1" fill="none" fill-rule="evenodd">
        <path d="M15,28 C7.82029825,28 2,22.1797017 2,15 C2,7.82029825 7.82029825,2 15,2 C22.1797017,2 28,7.82029825 28,15 C28,22.1797017 22.1797017,28 15,28 Z M15,26 C21.0751322,26 26,21.0751322 26,15 C26,8.92486775 21.0751322,4 15,4 C8.92486775,4 4,8.92486775 4,15 C4,21.0751322 8.92486775,26 15,26 Z M17.742758,13.6408756 C18.1833432,14.5139296 18.1889796,15.58497 17.6635059,16.4951172 C17.1281118,17.422447 16.1723929,17.9558037 15.1759406,17.9934763 L10.4765899,22.7380542 L12.3881014,16.3493588 C11.9475162,15.4763048 11.9418797,14.4052644 12.4673535,13.4951172 C13.0027476,12.5677874 13.9584665,12.0344306 14.9549187,11.9967581 L19.6542694,7.2521802 L17.742758,13.6408756 Z M14.5654297,15.8611426 C15.0437223,16.137285 15.6553127,15.9734098 15.9314551,15.4951172 C16.2075975,15.0168246 16.0437223,14.4052342 15.5654297,14.1290918 C15.0871371,13.8529494 14.4755467,14.0168246 14.1994043,14.4951172 C13.9232619,14.9734098 14.0871371,15.5850002 14.5654297,15.8611426 Z" fill="#D8D8D8" fill-rule="nonzero"></path>
    </g>
</svg>