<?xml version="1.0" encoding="UTF-8"?>
<svg width="30px" height="30px" viewBox="0 0 30 30" version="1.1" xmlns="http://www.w3.org/2000/svg" xmlns:xlink="http://www.w3.org/1999/xlink">
    <!-- Generator: Sketch 52.6 (67491) - http://www.bohemiancoding.com/sketch -->
    <title>更多功能灰@3x</title>
    <desc>Created with Sketch.</desc>
    <g id="更多功能灰" stroke="none" stroke-width="1" fill="none" fill-rule="evenodd">
        <path d="M15,27 C8.372583,27 3,21.627417 3,15 C3,8.372583 8.372583,3 15,3 C21.627417,3 27,8.372583 27,15 C27,21.627417 21.627417,27 15,27 Z M15,25 C20.5228475,25 25,20.5228475 25,15 C25,9.4771525 20.5228475,5 15,5 C9.4771525,5 5,9.4771525 5,15 C5,20.5228475 9.4771525,25 15,25 Z" id="Oval" fill="#D8D8D8" fill-rule="nonzero"></path>
        <path d="M10,8 L12,8 C13.1045695,8 14,8.8954305 14,10 L14,14 L10,14 C8.8954305,14 8,13.1045695 8,12 L8,10 C8,8.8954305 8.8954305,8 10,8 Z" id="更多功能绿" fill="#D8D8D8" fill-rule="nonzero"></path>
        <path d="M10,16 L14,16 L14,20 C14,21.1045695 13.1045695,22 12,22 L10,22 C8.8954305,22 8,21.1045695 8,20 L8,18 C8,16.8954305 8.8954305,16 10,16 Z" id="更多功能绿-copy" fill="#D8D8D8" fill-rule="nonzero"></path>
        <path d="M18,8 L20,8 C21.1045695,8 22,8.8954305 22,10 L22,12 C22,13.1045695 21.1045695,14 20,14 L16,14 L16,10 C16,8.8954305 16.8954305,8 18,8 Z" id="更多功能绿" fill="#D8D8D8" fill-rule="nonzero"></path>
        <path d="M16,16 L20,16 C21.1045695,16 22,16.8954305 22,18 L22,20 C22,21.1045695 21.1045695,22 20,22 L18,22 C16.8954305,22 16,21.1045695 16,20 L16,16 Z" id="更多功能绿-copy-2" fill="#D8D8D8" fill-rule="nonzero"></path>
    </g>
</svg>