<?xml version="1.0" encoding="UTF-8"?>
<svg width="30px" height="30px" viewBox="0 0 30 30" version="1.1" xmlns="http://www.w3.org/2000/svg" xmlns:xlink="http://www.w3.org/1999/xlink">
    <!-- Generator: Sketch 52.6 (67491) - http://www.bohemiancoding.com/sketch -->
    <title>家校互联绿@3x</title>
    <desc>Created with Sketch.</desc>
    <defs>
        <linearGradient x1="50%" y1="96.0784314%" x2="50%" y2="2.77466388%" id="linearGradient-1">
            <stop stop-color="#4BE29A" offset="0%"></stop>
            <stop stop-color="#51DCD0" offset="100%"></stop>
        </linearGradient>
    </defs>
    <g id="家校互联绿" stroke="none" stroke-width="1" fill="none" fill-rule="evenodd">
        <g id="共享" transform="translate(3.000000, 3.000000)" fill="url(#linearGradient-1)" fill-rule="nonzero">
            <path d="M22.2712329,14.1431017 C22.2767123,14.0034235 22.2794521,13.8637453 22.2794521,13.7213283 C22.2794521,10.2321123 20.5315068,7.0112975 17.6027397,5.10510099 C17.2054795,4.84765491 16.6767123,4.95994522 16.4191781,5.35433071 C16.1616438,5.75145498 16.2739726,6.28004108 16.6684932,6.53748716 C19.1013699,8.12324546 20.5589041,10.7963026 20.5671233,13.6939404 C18.6794521,13.6966792 17.1506849,15.2276618 17.1506849,17.1174255 C17.1506849,19.0071893 18.6849315,20.5409106 20.5753425,20.5409106 C22.4657534,20.5409106 24,19.0071893 24,17.1174255 C24,15.8438891 23.3041096,14.7319411 22.2712329,14.1431017 Z M2.5369863,13.7048956 C2.56438356,13.7076344 2.5890411,13.7076344 2.61643836,13.7076344 C3.05479452,13.7076344 3.42739726,13.3735022 3.46849315,12.9298186 C3.7890411,9.4241698 6.15342466,6.5977405 9.33424658,5.57343376 C9.96164384,6.35124957 10.9232877,6.84697022 12,6.84697022 C13.890411,6.84697022 15.4246575,5.31324889 15.4246575,3.42348511 C15.4246575,1.53372133 13.890411,0 12,0 C10.109589,0 8.57534247,1.53372133 8.57534247,3.42348511 C8.57534247,3.62341664 8.59178082,3.82060938 8.62465753,4.01232455 C7.31232877,4.46696337 6.09589041,5.19000342 5.04931507,6.14857925 C3.16164384,7.87949332 1.99178082,10.2348511 1.76164384,12.7764464 C1.72054795,13.2447792 2.06575342,13.661075 2.5369863,13.7048956 Z M16.9534247,20.7134543 C15.5013699,21.7432386 13.7890411,22.2882574 12,22.2882574 C9.96438356,22.2882574 8.03835616,21.5761725 6.52054795,20.3108524 C6.73150685,19.8671688 6.84931507,19.3687093 6.84931507,18.8456008 C6.84931507,16.955837 5.31506849,15.4221157 3.42465753,15.4221157 C1.53424658,15.4221157 0,16.9530983 0,18.842862 C0,20.7326258 1.53424658,22.2663471 3.42465753,22.2663471 C4.17260274,22.2663471 4.8630137,22.0280726 5.42465753,21.6227319 C5.91780822,22.0335502 6.45205479,22.4005478 7.01369863,22.7127696 C8.53150685,23.5535775 10.2547945,24 12,24 C14.1452055,24 16.2,23.3454296 17.9424658,22.1102362 C18.3287671,21.8363574 18.4191781,21.3022937 18.1452055,20.9161246 C17.8712329,20.5299555 17.3369863,20.4395755 16.9534247,20.7134543 Z" id="Shape"></path>
        </g>
    </g>
</svg>