<?xml version="1.0" encoding="UTF-8"?>
<svg width="32px" height="32px" viewBox="0 0 32 32" version="1.1" xmlns="http://www.w3.org/2000/svg" xmlns:xlink="http://www.w3.org/1999/xlink">
    <!-- Generator: Sketch 52.6 (67491) - http://www.bohemiancoding.com/sketch -->
    <title>icon/位置@3x</title>
    <desc>Created with Sketch.</desc>
    <defs>
        <linearGradient x1="50%" y1="96.0784314%" x2="50%" y2="2.77466388%" id="linearGradient-1">
            <stop stop-color="#4BE29A" offset="0%"></stop>
            <stop stop-color="#51DCD0" stop-opacity="0" offset="100%"></stop>
        </linearGradient>
        <linearGradient x1="50%" y1="96.0784314%" x2="50%" y2="2.77466388%" id="linearGradient-2">
            <stop stop-color="#4BE29A" offset="0%"></stop>
            <stop stop-color="#51DCD0" offset="100%"></stop>
        </linearGradient>
    </defs>
    <g id="icon/位置" stroke="none" stroke-width="1" fill="none" fill-rule="evenodd">
        <path d="M14.6001036,9.875 C14.2259748,10.3120069 14,10.8796138 14,11.5 C14,12.8807119 15.1192881,14 16.5,14 C17.8807119,14 19,12.8807119 19,11.5 C19,10.8796138 18.7740252,10.3120069 18.3998964,9.875 L27.0625,9.875 L23,25 L10,25 L5.0625,9.875 L14.6001036,9.875 Z" id="Combined-Shape" fill="url(#linearGradient-1)" fill-rule="nonzero" opacity="0.3"></path>
        <path d="M16.5,23.9039889 C15,23.9039889 10,15.0898509 10,11.5 C10,7.91014913 12.9101491,5 16.5,5 C20.0898509,5 23,7.91014913 23,11.5 C23,15.0898509 18,23.9039889 16.5,23.9039889 Z M16.5,14 C17.8807119,14 19,12.8807119 19,11.5 C19,10.1192881 17.8807119,9 16.5,9 C15.1192881,9 14,10.1192881 14,11.5 C14,12.8807119 15.1192881,14 16.5,14 Z M14.1996352,23.1288566 C15.3771623,24.3762855 16.1439505,25 16.5,25 C16.8560495,25 17.6228377,24.3762855 18.8003648,23.1288566 C21.2548657,23.4146911 23,24.1446382 23,25 C23,26.1045695 20.0898509,27 16.5,27 C12.9101491,27 10,26.1045695 10,25 C10,24.1446382 11.7451343,23.4146911 14.1996352,23.1288566 Z" id="Combined-Shape" fill="url(#linearGradient-2)" fill-rule="nonzero"></path>
    </g>
</svg>