<?xml version="1.0" encoding="UTF-8"?>
<svg width="32px" height="32px" viewBox="0 0 32 32" version="1.1" xmlns="http://www.w3.org/2000/svg" xmlns:xlink="http://www.w3.org/1999/xlink">
    <!-- Generator: Sketch 52.6 (67491) - http://www.bohemiancoding.com/sketch -->
    <title>icon/亲情电话@3x</title>
    <desc>Created with Sketch.</desc>
    <defs>
        <linearGradient x1="50%" y1="96.0784314%" x2="50%" y2="2.77466388%" id="linearGradient-1">
            <stop stop-color="#4BE29A" offset="0%"></stop>
            <stop stop-color="#51DCD0" offset="100%"></stop>
        </linearGradient>
    </defs>
    <g id="icon/亲情电话" stroke="none" stroke-width="1" fill="none" fill-rule="evenodd">
        <path d="M15.7867488,8.0079359 C17.633556,7.89102579 19,9.07193895 19,11.1467411 C19,14.2226365 14.2655384,20 12.5,20 C10.7344616,20 6,14.2226365 6,11.1467411 C6,9.07108152 7.3085265,7.90969412 9.11558558,8.04172213 C10.4255402,8.13743051 11.7017385,8.89756113 12.4543025,10.03176 C13.1442227,8.86674019 14.4263818,8.09405245 15.7867488,8.0079359 Z" id="Oval" fill="url(#linearGradient-1)" fill-rule="nonzero" opacity="0.3"></path>
        <path d="M22,10.3150607 C21.360919,10.5937974 20.6942524,11.0407951 20,11.6560539 L20,6.72727273 C20,6.32561109 19.6802034,6 19.2857143,6 L10.7142857,6 C10.3197966,6 10,6.32561109 10,6.72727273 L10,21.2727273 C10,21.6743889 10.3197966,22 10.7142857,22 L15.8135568,22 C17.133584,23.5032417 18.7135542,24.9375 20,24.9375 C20.6133861,24.9375 21.3009004,24.5743431 22,24.0241282 L22,25 C22,25.5522847 21.5522847,26 21,26 L9,26 C8.44771525,26 8,25.5522847 8,25 L8,5 C8,4.44771525 8.44771525,4 9,4 L21,4 C21.5522847,4 22,4.44771525 22,5 L22,10.3150607 Z M13.5,23 C13.2238576,23 13,23.2238576 13,23.5 C13,23.7761424 13.2238576,24 13.5,24 L16.5,24 C16.7761424,24 17,23.7761424 17,23.5 C17,23.2238576 16.7761424,23 16.5,23 L13.5,23 Z M23.5395757,11.0085975 C25.5284449,10.8819413 27,12.1613001 27,14.4090662 C27,17.7413808 21.9013491,24.0003688 20,24.0003688 C18.0986509,24.0003688 13,17.7413808 13,14.4090662 C13,12.1603712 14.4091824,10.9021659 16.355246,11.0452003 C17.7659663,11.1488873 19.1403338,11.9723855 19.9507873,13.2011358 C20.6937783,11.9389952 22.074565,11.101893 23.5395757,11.0085975 Z" fill="url(#linearGradient-1)" fill-rule="nonzero"></path>
    </g>
</svg>