<?xml version="1.0" encoding="UTF-8"?>
<svg width="32px" height="32px" viewBox="0 0 32 32" version="1.1" xmlns="http://www.w3.org/2000/svg" xmlns:xlink="http://www.w3.org/1999/xlink">
    <!-- Generator: Sketch 52.6 (67491) - http://www.bohemiancoding.com/sketch -->
    <title>icon/情景模式@3x</title>
    <desc>Created with Sketch.</desc>
    <defs>
        <linearGradient x1="50%" y1="96.0784314%" x2="50%" y2="2.77466388%" id="linearGradient-1">
            <stop stop-color="#4BE29A" offset="0%"></stop>
            <stop stop-color="#51DCD0" offset="100%"></stop>
        </linearGradient>
    </defs>
    <g id="icon/情景模式" stroke="none" stroke-width="1" fill="none" fill-rule="evenodd">
        <path d="M11,12 L23,12 C23.5522847,12 24,12.4477153 24,13 L24,29 C24,29.5522847 23.5522847,30 23,30 L11,30 C10.4477153,30 10,29.5522847 10,29 L10,13 C10,12.4477153 10.4477153,12 11,12 Z M13.2497559,13.0625 C12.8355423,13.0625 12.4997559,13.4604691 12.4997559,13.9513889 L12.4997559,20.1736111 C12.4997559,20.6645309 12.8355423,21.0625 13.2497559,21.0625 L17.7497559,21.0625 C18.1639694,21.0625 18.4997559,20.6645309 18.4997559,20.1736111 L18.4997559,13.9513889 C18.4997559,13.4604691 18.1639694,13.0625 17.7497559,13.0625 L13.2497559,13.0625 Z M12.9375,23 C12.6613576,23 12.4375,23.2238576 12.4375,23.5 C12.4375,23.7761424 12.6613576,24 12.9375,24 L17.9375,24 C18.2136424,24 18.4375,23.7761424 18.4375,23.5 C18.4375,23.2238576 18.2136424,23 17.9375,23 L12.9375,23 Z M3.14648979,12.8535965 C2.95120381,12.6583582 2.95116517,12.3417757 3.14640348,12.1464898 C3.3416418,11.9512038 3.65822428,11.9511651 3.85351026,12.1464035 L5.85399854,14.1464035 C6.04931823,14.3416755 6.04931823,14.6583245 5.85399854,14.8535965 L4.20719313,16.5 L5.85399854,18.1464035 C6.04931823,18.3416755 6.04931823,18.6583245 5.85399854,18.8535965 L4.20719313,20.5 L5.85399854,22.1464035 C6.04878111,22.3411385 6.0493951,22.6567269 5.85537172,22.8522183 L4.20719852,24.5128625 L5.85260918,26.1450199 C6.04978135,26.3406039 6.04978135,26.6593961 5.85260918,26.8549801 L3.8521209,28.8393551 C3.65607079,29.0338261 3.33949089,29.032546 3.1450199,28.8364959 C2.95054891,28.6404458 2.95182904,28.3238659 3.14787915,28.1293949 L4.79050484,26.5 L3.14787915,24.8706051 C2.95179097,24.6760964 2.95055402,24.3594414 3.14511661,24.1634067 L4.79466872,22.5013732 L3.14648979,20.8535965 C2.9511701,20.6583245 2.9511701,20.3416755 3.14648979,20.1464035 L4.7932952,18.5 L3.14648979,16.8535965 C2.9511701,16.6583245 2.9511701,16.3416755 3.14648979,16.1464035 L4.7932952,14.5 L3.14648979,12.8535965 Z M27.8539985,28.1307785 C28.0492845,28.3260168 28.0493231,28.6425993 27.8540848,28.8378853 C27.6588465,29.0331712 27.342264,29.0332099 27.1469781,28.8379716 L25.1464898,26.8379716 C24.9511701,26.6426996 24.9511701,26.3260505 25.1464898,26.1307785 L26.7932952,24.484375 L25.1464898,22.8379716 C24.9511701,22.6426996 24.9511701,22.3260505 25.1464898,22.1307785 L26.7932952,20.484375 L25.1464898,18.8379716 C24.9517072,18.6432365 24.9510932,18.3276481 25.1451166,18.1321567 L26.7932898,16.4715126 L25.1478791,14.8393552 C24.950707,14.6437711 24.950707,14.3249789 25.1478791,14.1293949 L27.1483674,12.1450199 C27.3444175,11.9505489 27.6609974,11.951829 27.8554684,12.1478792 C28.0499394,12.3439293 28.0486593,12.6605092 27.8526092,12.8549802 L26.2099835,14.484375 L27.8526092,16.1137699 C28.0486973,16.3082787 28.0499343,16.6249336 27.8553717,16.8209684 L26.2058196,18.4830018 L27.8539985,20.1307785 C28.0493182,20.3260505 28.0493182,20.6426996 27.8539985,20.8379716 L26.2071931,22.484375 L27.8539985,24.1307785 C28.0493182,24.3260505 28.0493182,24.6426996 27.8539985,24.8379716 L26.2071931,26.484375 L27.8539985,28.1307785 Z" fill="url(#linearGradient-1)" fill-rule="nonzero" opacity="0.3"></path>
        <path d="M17.5,7.23610651 L17.5,10 L21.5,10 C22.0522848,10 22.5,10.4477153 22.5,11 L22.5,27 C22.5,27.5522847 22.0522848,28 21.5,28 L9.50000003,28 C8.94771528,28 8.50000003,27.5522847 8.50000003,27 L8.50000003,11 C8.50000003,10.4477153 8.94771528,10 9.50000003,10 L13.5,10 L13.5,7.23610651 C12.8862507,6.68678595 12.5,5.88849981 12.5,5 C12.5,3.34314575 13.8431458,2 15.5,2 C17.1568543,2 18.5,3.34314575 18.5,5 C18.5,5.88849981 18.1137494,6.68678595 17.5,7.23610651 Z M16.5,7.82929429 C16.1872211,7.93984578 15.8506354,8 15.5,8 C15.1493646,8 14.812779,7.93984578 14.5,7.82929429 L14.5,8 L16.5,8 L16.5,7.82929429 Z M14.5,10 L16.5,10 L16.5,8 L14.5,8 L14.5,10 Z M13.25,13 C12.8357865,13 12.5,13.3979691 12.5,13.8888889 L12.5,20.1111111 C12.5,20.6020309 12.8357865,21 13.25,21 L17.75,21 C18.1642136,21 18.5,20.6020309 18.5,20.1111111 L18.5,13.8888889 C18.5,13.3979691 18.1642136,13 17.75,13 L13.25,13 Z M13,23 C12.7238577,23 12.5,23.2238576 12.5,23.5 C12.5,23.7761424 12.7238577,24 13,24 L18,24 C18.2761424,24 18.5,23.7761424 18.5,23.5 C18.5,23.2238576 18.2761424,23 18,23 L13,23 Z M4.14648979,11.3535965 C3.95120381,11.1583582 3.95116517,10.8417757 4.14640348,10.6464898 C4.3416418,10.4512038 4.65822428,10.4511651 4.85351026,10.6464035 L6.85399854,12.6464035 C7.04931823,12.8416755 7.04931823,13.1583245 6.85399854,13.3535965 L5.20719313,15 L6.85399854,16.6464035 C7.04931823,16.8416755 7.04931823,17.1583245 6.85399854,17.3535965 L5.20719313,19 L6.85399854,20.6464035 C7.04878111,20.8411385 7.0493951,21.1567269 6.85537172,21.3522183 L5.20719852,23.0128625 L6.85260918,24.6450199 C7.04978135,24.8406039 7.04978135,25.1593961 6.85260918,25.3549801 L4.8521209,27.3393551 C4.65607079,27.5338261 4.33949089,27.532546 4.1450199,27.3364959 C3.95054891,27.1404458 3.95182904,26.8238659 4.14787915,26.6293949 L5.79050484,25 L4.14787915,23.3706051 C3.95179097,23.1760964 3.95055402,22.8594414 4.14511661,22.6634067 L5.79466872,21.0013732 L4.14648979,19.3535965 C3.9511701,19.1583245 3.9511701,18.8416755 4.14648979,18.6464035 L5.7932952,17 L4.14648979,15.3535965 C3.9511701,15.1583245 3.9511701,14.8416755 4.14648979,14.6464035 L5.7932952,13 L4.14648979,11.3535965 Z M26.8539985,26.6307785 C27.0492845,26.8260168 27.0493231,27.1425993 26.8540848,27.3378853 C26.6588465,27.5331712 26.342264,27.5332099 26.1469781,27.3379716 L24.1464898,25.3379716 C23.9511701,25.1426996 23.9511701,24.8260505 24.1464898,24.6307785 L25.7932952,22.984375 L24.1464898,21.3379716 C23.9511701,21.1426996 23.9511701,20.8260505 24.1464898,20.6307785 L25.7932952,18.984375 L24.1464898,17.3379716 C23.9517072,17.1432365 23.9510932,16.8276481 24.1451166,16.6321567 L25.7932898,14.9715126 L24.1478791,13.3393552 C23.950707,13.1437711 23.950707,12.8249789 24.1478791,12.6293949 L26.1483674,10.6450199 C26.3444175,10.4505489 26.6609974,10.451829 26.8554684,10.6478792 C27.0499394,10.8439293 27.0486593,11.1605092 26.8526092,11.3549802 L25.2099835,12.984375 L26.8526092,14.6137699 C27.0486973,14.8082787 27.0499343,15.1249336 26.8553717,15.3209684 L25.2058196,16.9830018 L26.8539985,18.6307785 C27.0493182,18.8260505 27.0493182,19.1426996 26.8539985,19.3379716 L25.2071931,20.984375 L26.8539985,22.6307785 C27.0493182,22.8260505 27.0493182,23.1426996 26.8539985,23.3379716 L25.2071931,24.984375 L26.8539985,26.6307785 Z" fill="url(#linearGradient-1)" fill-rule="nonzero"></path>
    </g>
</svg>