<?xml version="1.0" encoding="UTF-8"?>
<svg width="32px" height="32px" viewBox="0 0 32 32" version="1.1" xmlns="http://www.w3.org/2000/svg" xmlns:xlink="http://www.w3.org/1999/xlink">
    <!-- Generator: Sketch 52.6 (67491) - http://www.bohemiancoding.com/sketch -->
    <title>icon/设备信息@3x</title>
    <desc>Created with Sketch.</desc>
    <defs>
        <linearGradient x1="50%" y1="96.0784314%" x2="50%" y2="2.77466388%" id="linearGradient-1">
            <stop stop-color="#4BE29A" offset="0%"></stop>
            <stop stop-color="#51DCD0" offset="100%"></stop>
        </linearGradient>
    </defs>
    <g id="icon/设备信息" stroke="none" stroke-width="1" fill="none" fill-rule="evenodd">
        <g id="设备信息icon2" transform="translate(3.000000, 3.000000)" fill="url(#linearGradient-1)" fill-rule="nonzero">
            <path d="M10.8520408,7.3877551 L15.2397959,7.3877551 C15.7920807,7.3877551 16.2397959,7.83547035 16.2397959,8.3877551 L16.2397959,25 C16.2397959,25.5522847 15.7920807,26 15.2397959,26 L3.03571429,26 C2.48342954,26 2.03571429,25.5522847 2.03571429,25 L2.03571429,8.3877551 C2.03571429,7.83547035 2.48342954,7.3877551 3.03571429,7.3877551 L7.42346939,7.3877551 L7.42346939,7.85714286 C7.42346939,8.40942761 7.87118464,8.85714286 8.42346939,8.85714286 L9.85204082,8.85714286 C10.4043256,8.85714286 10.8520408,8.40942761 10.8520408,7.85714286 L10.8520408,7.3877551 Z M4.03571429,9.3877551 C3.48342954,9.3877551 3.03571429,9.83547035 3.03571429,10.3877551 L3.03571429,16.2244898 C3.03571429,16.7767745 3.48342954,17.2244898 4.03571429,17.2244898 L10.3622449,17.2244898 C10.9145296,17.2244898 11.3622449,16.7767745 11.3622449,16.2244898 L11.3622449,10.3877551 C11.3622449,9.83547035 10.9145296,9.3877551 10.3622449,9.3877551 L4.03571429,9.3877551 Z M4.9005102,20.0752551 C4.63000339,20.0752551 4.41071429,20.2945442 4.41071429,20.565051 C4.41071429,20.8355578 4.63000339,21.0548469 4.9005102,21.0548469 L9.30867347,21.0548469 C9.57918029,21.0548469 9.79846939,20.8355578 9.79846939,20.565051 C9.79846939,20.2945442 9.57918029,20.0752551 9.30867347,20.0752551 L4.9005102,20.0752551 Z M4.9023014,18.6440106 C4.63179458,18.6440106 4.41250548,18.8632997 4.41250548,19.1338065 C4.41250548,19.4043133 4.63179458,19.6236024 4.9023014,19.6236024 L9.31046466,19.6236024 C9.58097148,19.6236024 9.80026058,19.4043133 9.80026058,19.1338065 C9.80026058,18.8632997 9.58097148,18.6440106 9.31046466,18.6440106 L4.9023014,18.6440106 Z" id="Combined-Shape" opacity="0.3"></path>
            <path d="M8.2632818,4.07780156 C8.30417109,4.18694934 8.32653061,4.30514921 8.32653061,4.42857143 L8.32653061,5.85714286 C8.32653061,6.40942761 7.87881536,6.85714286 7.32653061,6.85714286 L6.87755102,6.85714286 C6.32526627,6.85714286 5.87755102,6.40942761 5.87755102,5.85714286 L5.87755102,4.42857143 C5.87755102,4.30514921 5.89991054,4.18694934 5.94079984,4.07780156 C5.31478278,3.68900272 4.89795918,2.99521936 4.89795918,2.20408163 C4.89795918,0.98680096 5.88476014,0 7.10204082,0 C8.31932149,0 9.30612245,0.98680096 9.30612245,2.20408163 C9.30612245,2.99521936 8.88929885,3.68900272 8.2632818,4.07780156 Z M5.3877551,5.3877551 L5.3877551,5.85714286 C5.3877551,6.04351434 5.4387392,6.21797785 5.52752094,6.36734694 L4.89795918,6.36734694 C4.62745237,6.36734694 4.40816327,6.58663604 4.40816327,6.85714286 C4.40816327,7.12764967 4.62745237,7.34693878 4.89795918,7.34693878 L9.30612245,7.34693878 C9.57662927,7.34693878 9.79591837,7.12764967 9.79591837,6.85714286 C9.79591837,6.58663604 9.57662927,6.36734694 9.30612245,6.36734694 L8.6765607,6.36734694 C8.76534244,6.21797785 8.81632653,6.04351434 8.81632653,5.85714286 L8.81632653,5.3877551 L13.2040816,5.3877551 C13.7563664,5.3877551 14.2040816,5.83547035 14.2040816,6.3877551 L14.2040816,23 C14.2040816,23.5522847 13.7563664,24 13.2040816,24 L1,24 C0.44771525,24 6.76353751e-17,23.5522847 0,23 L0,6.3877551 C-6.76353751e-17,5.83547035 0.44771525,5.3877551 1,5.3877551 L5.3877551,5.3877551 Z M3.93877551,9.30612245 C3.38649076,9.30612245 2.93877551,9.7538377 2.93877551,10.3061224 L2.93877551,16.1428571 C2.93877551,16.6951419 3.38649076,17.1428571 3.93877551,17.1428571 L10.2653061,17.1428571 C10.8175909,17.1428571 11.2653061,16.6951419 11.2653061,16.1428571 L11.2653061,10.3061224 C11.2653061,9.7538377 10.8175909,9.30612245 10.2653061,9.30612245 L3.93877551,9.30612245 Z M4.89795918,18.6122449 C4.62745237,18.6122449 4.40816327,18.831534 4.40816327,19.1020408 C4.40816327,19.3725476 4.62745237,19.5918367 4.89795918,19.5918367 L9.30612245,19.5918367 C9.57662927,19.5918367 9.79591837,19.3725476 9.79591837,19.1020408 C9.79591837,18.831534 9.57662927,18.6122449 9.30612245,18.6122449 L4.89795918,18.6122449 Z M4.89795918,20.0816327 C4.62745237,20.0816327 4.40816327,20.3009218 4.40816327,20.5714286 C4.40816327,20.8419354 4.62745237,21.0612245 4.89795918,21.0612245 L9.30612245,21.0612245 C9.57662927,21.0612245 9.79591837,20.8419354 9.79591837,20.5714286 C9.79591837,20.3009218 9.57662927,20.0816327 9.30612245,20.0816327 L4.89795918,20.0816327 Z" id="Combined-Shape"></path>
            <path d="M6.18900808,14.4307687 C5.70758589,14.1272365 5.3877551,13.5907644 5.3877551,12.9795918 C5.3877551,12.032818 6.15526696,11.2653061 7.10204082,11.2653061 C8.04881467,11.2653061 8.81632653,12.032818 8.81632653,12.9795918 C8.81632653,13.5813439 8.50627941,14.1106805 8.03721952,14.4165674 C9.03846317,14.7007718 9.81347163,15.487086 10.3622449,16.7755102 L4.07142857,16.7755102 C4.52536891,15.5079494 5.23122875,14.7263688 6.18900808,14.4307687 Z" id="Combined-Shape" opacity="0.3"></path>
            <rect id="Rectangle" x="13.2244898" y="6.36734694" width="1" height="1" rx="0.5"></rect>
            <rect id="Rectangle" x="14.6938776" y="6.36734694" width="2.44897959" height="1" rx="0.5"></rect>
            <rect id="Rectangle" x="17.6326531" y="6.36734694" width="1" height="1" rx="0.5"></rect>
            <rect id="Rectangle-Copy-2" x="19.1020408" y="6.36734694" width="1.95918367" height="1" rx="0.5"></rect>
            <rect id="Rectangle-Copy-3" opacity="0.3" x="21.5510204" y="6.36734694" width="1" height="1" rx="0.5"></rect>
            <rect id="Rectangle-Copy-4" x="23.0204082" y="6.36734694" width="1" height="1" rx="0.5"></rect>
            <rect id="Rectangle" x="13.2244898" y="8.81632653" width="2.44897959" height="1" rx="0.5"></rect>
            <rect id="Rectangle-Copy-5" x="16.1632653" y="8.81632653" width="3.91836735" height="1" rx="0.5"></rect>
            <rect id="Rectangle-Copy-6" opacity="0.3" x="20.5714286" y="8.81632653" width="2.93877551" height="1" rx="0.5"></rect>
            <rect id="Rectangle" x="13.2244898" y="11.2653061" width="4.89795918" height="1" rx="0.5"></rect>
            <rect id="Rectangle-Copy-7" opacity="0.3" x="18.6122449" y="11.2653061" width="3.42857143" height="1" rx="0.5"></rect>
            <rect id="Rectangle-Copy-8" x="22.5306122" y="11.2653061" width="4.40816327" height="1" rx="0.5"></rect>
            <rect id="Rectangle" x="13.2244898" y="13.7142857" width="5.87755102" height="1" rx="0.5"></rect>
            <rect id="Rectangle-Copy-9" opacity="0.3" x="19.5918367" y="13.7142857" width="5.87755102" height="1" rx="0.5"></rect>
            <rect id="Rectangle-Copy-10" x="25.9591837" y="13.7142857" width="1" height="1" rx="0.5"></rect>
            <rect id="Rectangle-Copy-13" opacity="0.3" x="25.9591837" y="16.1632653" width="1" height="1" rx="0.5"></rect>
            <rect id="Rectangle-Copy-12" x="24.4897959" y="16.1632653" width="1" height="1" rx="0.5"></rect>
            <rect id="Rectangle" opacity="0.3" x="13.2244898" y="16.1632653" width="4.40816327" height="1" rx="0.5"></rect>
            <rect id="Rectangle-Copy-11" x="18.122449" y="16.1632653" width="5.87755102" height="1" rx="0.5"></rect>
        </g>
    </g>
</svg>