<?xml version="1.0" encoding="UTF-8"?>
<svg width="32px" height="32px" viewBox="0 0 32 32" version="1.1" xmlns="http://www.w3.org/2000/svg" xmlns:xlink="http://www.w3.org/1999/xlink">
    <!-- Generator: Sketch 52.6 (67491) - http://www.bohemiancoding.com/sketch -->
    <title>icon/电子围栏@3x</title>
    <desc>Created with Sketch.</desc>
    <defs>
        <linearGradient x1="50%" y1="96.0784314%" x2="50%" y2="2.77466388%" id="linearGradient-1">
            <stop stop-color="#4BE29A" offset="0%"></stop>
            <stop stop-color="#51DCD0" offset="100%"></stop>
        </linearGradient>
    </defs>
    <g id="icon/电子围栏" stroke="none" stroke-width="1" fill="none" fill-rule="evenodd">
        <g id="电子围栏icon" transform="translate(4.000000, 4.000000)" fill="url(#linearGradient-1)" fill-rule="nonzero">
            <path d="M2.02841017,11.0001975 L4.01337536,3.74010411 C3.40820563,3.39623861 3,2.74579007 3,2 C3,0.8954305 3.8954305,0 5,0 C6.08130627,0 6.96219009,0.858110536 6.99881488,1.93049503 L22.2631155,5.32397283 C22.4459083,5.12483074 22.7083763,5 23,5 C23.5522847,5 24,5.44771525 24,6 C24,6.41277647 23.7499046,6.76714003 23.392977,6.91982762 L22.1621667,17.1536931 C22.65851,17.3982783 23,17.9092595 23,18.5 C23,19.3284271 22.3284271,20 21.5,20 C20.9043071,20 20.3897163,19.6527603 20.147598,19.149651 L8.97300988,21.7847378 C8.83998609,22.4769995 8.2310697,23 7.5,23 C6.67157288,23 6,22.3284271 6,21.5 C6,21.1853092 6.09690644,20.8932521 6.26250567,20.6520424 L2.61549379,14.9035034 C2.42159688,14.9661533 2.2147511,15 2,15 C0.8954305,15 0,14.1045695 0,13 C0,11.8954305 0.8954305,11 2,11 C2.00948561,11 2.01895579,11.000066 2.02841012,11.0001977 Z M2.99309881,11.2635906 C3.59470392,11.6084071 4,12.2568725 4,13 C4,13.5288143 3.79476462,14.0096934 3.45960152,14.3673295 L7.07234016,20.0618459 C7.20786718,20.0216053 7.35141049,20 7.5,20 C8.07264553,20 8.57034318,20.3208901 8.82308679,20.7926641 L20.0417267,18.1471893 C20.1748728,17.5948828 20.613632,17.1617089 21.1690391,17.0366331 L22.400159,6.80019264 C22.2348088,6.6760445 22.1091923,6.50184056 22.0458038,6.30007515 L6.783024,2.90693544 C6.45237965,3.55568439 5.77807756,4 5,4 C4.99300808,4 4.98602455,3.99996412 4.97904957,3.99989254 L2.99309881,11.2635906 Z" id="Combined-Shape" opacity="0.3"></path>
            <circle id="Oval" cx="7.5" cy="21.5" r="1.5"></circle>
            <circle id="Oval" cx="21.5" cy="18.5" r="1.5"></circle>
            <circle id="Oval" cx="2" cy="13" r="2"></circle>
            <circle id="Oval" cx="5" cy="2" r="2"></circle>
            <circle id="Oval" cx="23" cy="6" r="1"></circle>
            <path d="M12.5,22 C10.1979167,22 6,11.2268172 6,7.58823529 C6,3.94965341 8.91014913,1 12.5,1 C16.0898509,1 19,3.94965341 19,7.58823529 C19,11.2268172 14.8020833,22 12.5,22 Z M12.7321429,10.0681818 C14.1424414,10.0681818 15.2857143,8.89292929 15.2857143,7.44318182 C15.2857143,5.99343435 14.1424414,4.81818182 12.7321429,4.81818182 C11.3218443,4.81818182 10.1785714,5.99343435 10.1785714,7.44318182 C10.1785714,8.89292929 11.3218443,10.0681818 12.7321429,10.0681818 Z" id="Combined-Shape"></path>
        </g>
    </g>
</svg>