<?xml version="1.0" encoding="UTF-8"?>
<svg width="32px" height="32px" viewBox="0 0 32 32" version="1.1" xmlns="http://www.w3.org/2000/svg" xmlns:xlink="http://www.w3.org/1999/xlink">
    <!-- Generator: Sketch 52.6 (67491) - http://www.bohemiancoding.com/sketch -->
    <title>icon/监听@3x</title>
    <desc>Created with Sketch.</desc>
    <defs>
        <linearGradient x1="50%" y1="96.0784314%" x2="50%" y2="2.77466388%" id="linearGradient-1">
            <stop stop-color="#4BE29A" offset="0%"></stop>
            <stop stop-color="#51DCD0" offset="100%"></stop>
        </linearGradient>
    </defs>
    <g id="icon/监听" stroke="none" stroke-width="1" fill="none" fill-rule="evenodd">
        <path d="" id="Path-34" stroke="#979797" fill-rule="nonzero"></path>
        <g id="Group" transform="translate(10.000000, 7.000000)" fill="url(#linearGradient-1)" fill-rule="nonzero">
            <path d="M11,2 L13,2 C13.5522847,2 14,2.44771525 14,3 L14,17 C14,17.5522847 13.5522847,18 13,18 L3,18 C2.44771525,18 2,17.5522847 2,17 L2,13 L10,13 C10.5522847,13 11,12.5522847 11,12 L11,2 Z M4,14 L4,15 L8,15 L8,14 L4,14 Z" id="Combined-Shape" opacity="0.3"></path>
            <path d="M1,0 L11,0 C11.5522847,-1.01453063e-16 12,0.44771525 12,1 L12,15 C12,15.5522847 11.5522847,16 11,16 L1,16 C0.44771525,16 6.76353751e-17,15.5522847 0,15 L0,1 C-6.76353751e-17,0.44771525 0.44771525,1.01453063e-16 1,0 Z M3,2 C2.44771525,2 2,2.44771525 2,3 L2,11 C2,11.5522847 2.44771525,12 3,12 L9,12 C9.55228475,12 10,11.5522847 10,11 L10,3 C10,2.44771525 9.55228475,2 9,2 L3,2 Z M3.16666667,3 L8.83333333,3 C9.10947571,3 9.33333333,3.22385763 9.33333333,3.5 L9.33333333,10.5 C9.33333333,10.7761424 9.10947571,11 8.83333333,11 L3.16666667,11 C2.89052429,11 2.66666667,10.7761424 2.66666667,10.5 L2.66666667,3.5 C2.66666667,3.22385763 2.89052429,3 3.16666667,3 Z M4.5,14 C4.22385763,14 4,14.2238576 4,14.5 C4,14.7761424 4.22385763,15 4.5,15 L7.5,15 C7.77614237,15 8,14.7761424 8,14.5 C8,14.2238576 7.77614237,14 7.5,14 L4.5,14 Z" id="Combined-Shape"></path>
        </g>
        <rect id="Rectangle" fill="url(#linearGradient-1)" fill-rule="nonzero" x="24" y="13" width="1" height="5" rx="0.5"></rect>
        <g id="Group-2" transform="translate(5.500000, 15.500000) scale(-1, 1) translate(-5.500000, -15.500000) translate(3.000000, 8.000000)" fill="url(#linearGradient-1)" fill-rule="nonzero">
            <rect id="Rectangle-Copy-3" transform="translate(0.500000, 7.500000) scale(-1, 1) translate(-0.500000, -7.500000) " x="0" y="5" width="1" height="5" rx="0.5"></rect>
            <rect id="Rectangle-Copy-4" transform="translate(2.500000, 7.500000) scale(-1, 1) translate(-2.500000, -7.500000) " x="2" y="2" width="1" height="11" rx="0.5"></rect>
            <rect id="Rectangle-Copy-5" transform="translate(4.500000, 7.500000) scale(-1, 1) translate(-4.500000, -7.500000) " x="4" y="0" width="1" height="15" rx="0.5"></rect>
        </g>
        <rect id="Rectangle-Copy" fill="url(#linearGradient-1)" fill-rule="nonzero" x="26" y="10" width="1" height="11" rx="0.5"></rect>
        <rect id="Rectangle-Copy-2" fill="url(#linearGradient-1)" fill-rule="nonzero" x="28" y="8" width="1" height="15" rx="0.5"></rect>
    </g>
</svg>