<?xml version="1.0" encoding="UTF-8"?>
<svg width="32px" height="32px" viewBox="0 0 32 32" version="1.1" xmlns="http://www.w3.org/2000/svg" xmlns:xlink="http://www.w3.org/1999/xlink">
    <!-- Generator: Sketch 52.6 (67491) - http://www.bohemiancoding.com/sketch -->
    <title>icon/卡证挂失@3x</title>
    <desc>Created with Sketch.</desc>
    <defs>
        <linearGradient x1="50%" y1="96.0784314%" x2="50%" y2="2.77466388%" id="linearGradient-1">
            <stop stop-color="#4BE29A" offset="0%"></stop>
            <stop stop-color="#51DCD0" offset="100%"></stop>
        </linearGradient>
    </defs>
    <g id="icon/卡证挂失" stroke="none" stroke-width="1" fill="none" fill-rule="evenodd">
        <path d="M18,8.23610651 L18,11 L22,11 C22.5522847,11 23,11.4477153 23,12 L23,28 C23,28.5522847 22.5522847,29 22,29 L10,29 C9.44771525,29 9,28.5522847 9,28 L9,12 C9,11.4477153 9.44771525,11 10,11 L14,11 L14,8.23610651 C13.3862506,7.68678595 13,6.88849981 13,6 C13,4.34314575 14.3431458,3 16,3 C17.6568542,3 19,4.34314575 19,6 C19,6.88849981 18.6137494,7.68678595 18,8.23610651 Z M17,8.82929429 C16.6872211,8.93984578 16.3506354,9 16,9 C15.6493646,9 15.3127789,8.93984578 15,8.82929429 L15,9 L17,9 L17,8.82929429 Z M15,11 L17,11 L17,9 L15,9 L15,11 Z M16.7071068,18 L19.3535534,15.3535534 C19.5488155,15.1582912 19.5488155,14.8417088 19.3535534,14.6464466 C19.1582912,14.4511845 18.8417088,14.4511845 18.6464466,14.6464466 L16,17.2928932 L13.3535534,14.6464466 C13.1582912,14.4511845 12.8417088,14.4511845 12.6464466,14.6464466 C12.4511845,14.8417088 12.4511845,15.1582912 12.6464466,15.3535534 L15.2928932,18 L12.6464466,20.6464466 C12.4511845,20.8417088 12.4511845,21.1582912 12.6464466,21.3535534 C12.8417088,21.5488155 13.1582912,21.5488155 13.3535534,21.3535534 L16,18.7071068 L18.6464466,21.3535534 C18.8417088,21.5488155 19.1582912,21.5488155 19.3535534,21.3535534 C19.5488155,21.1582912 19.5488155,20.8417088 19.3535534,20.6464466 L16.7071068,18 Z" fill="url(#linearGradient-1)" fill-rule="nonzero"></path>
        <path d="M6,13 L9,13 L9,27 L6,27 C5.44771525,27 5,26.5522847 5,26 L5,14 C5,13.4477153 5.44771525,13 6,13 Z" id="Rectangle" fill="url(#linearGradient-1)" fill-rule="nonzero" opacity="0.3"></path>
        <path d="M24,13.125 L27,13.125 L27,27.125 L24,27.125 C23.4477153,27.125 23,26.6772847 23,26.125 L23,14.125 C23,13.5727153 23.4477153,13.125 24,13.125 Z" id="Rectangle" fill="url(#linearGradient-1)" fill-rule="nonzero" opacity="0.3" transform="translate(25.000000, 20.125000) rotate(-180.000000) translate(-25.000000, -20.125000) "></path>
    </g>
</svg>