<?xml version="1.0" encoding="UTF-8"?>
<svg width="32px" height="32px" viewBox="0 0 32 32" version="1.1" xmlns="http://www.w3.org/2000/svg" xmlns:xlink="http://www.w3.org/1999/xlink">
    <!-- Generator: Sketch 52.6 (67491) - http://www.bohemiancoding.com/sketch -->
    <title>icon/位置设置@3x</title>
    <desc>Created with Sketch.</desc>
    <defs>
        <linearGradient x1="50%" y1="96.0784314%" x2="50%" y2="2.77466388%" id="linearGradient-1">
            <stop stop-color="#4BE29A" offset="0%"></stop>
            <stop stop-color="#51DCD0" offset="100%"></stop>
        </linearGradient>
    </defs>
    <g id="icon/位置设置" stroke="none" stroke-width="1" fill="none" fill-rule="evenodd">
        <path d="M8,4 L24,4 C24.5522847,4 25,4.44771525 25,5 L25,25 C25,25.5522847 24.5522847,26 24,26 L8,26 C7.44771525,26 7,25.5522847 7,25 L7,5 C7,4.44771525 7.44771525,4 8,4 Z M15.9402985,17 C17.3358209,17 19.880597,12.1164653 19.880597,9.94029851 C19.880597,7.76413173 18.1164653,6 15.9402985,6 C13.7641317,6 12,7.76413173 12,9.94029851 C12,12.1164653 14.5447761,17 15.9402985,17 Z M16,11 C15.4477153,11 15,10.5522847 15,10 C15,9.44771525 15.4477153,9 16,9 C16.5522847,9 17,9.44771525 17,10 C17,10.5522847 16.5522847,11 16,11 Z M11.5,18 C11.2238576,18 11,18.2238576 11,18.5 C11,18.7761424 11.2238576,19 11.5,19 L14.5,19 C14.7761424,19 15,18.7761424 15,18.5 C15,18.2238576 14.7761424,18 14.5,18 L11.5,18 Z M11.5,20 C11.2238576,20 11,20.2238576 11,20.5 C11,20.7761424 11.2238576,21 11.5,21 L20.5,21 C20.7761424,21 21,20.7761424 21,20.5 C21,20.2238576 20.7761424,20 20.5,20 L11.5,20 Z M11.5,22 C11.2238576,22 11,22.2238576 11,22.5 C11,22.7761424 11.2238576,23 11.5,23 L17.5,23 C17.7761424,23 18,22.7761424 18,22.5 C18,22.2238576 17.7761424,22 17.5,22 L11.5,22 Z" fill="url(#linearGradient-1)" fill-rule="nonzero"></path>
        <path d="M23.0625,7 C23.4306898,7 24.4098565,7 26,7 C26.5522847,7 27,7.44771525 27,8 L27,27 C27,27.5522847 26.5522847,28 26,28 L11,28 C10.4477153,28 10,27.5522847 10,27 L10,25 L22.1875,23.5 C22.1875,22.9477153 22.5102153,7 23.0625,7 Z" id="Path" fill="url(#linearGradient-1)" fill-rule="nonzero" opacity="0.3"></path>
    </g>
</svg>