<?xml version="1.0" encoding="UTF-8"?>
<svg width="32px" height="32px" viewBox="0 0 32 32" version="1.1" xmlns="http://www.w3.org/2000/svg" xmlns:xlink="http://www.w3.org/1999/xlink">
    <!-- Generator: Sketch 52.6 (67491) - http://www.bohemiancoding.com/sketch -->
    <title>icon/我的信息@3x</title>
    <desc>Created with Sketch.</desc>
    <defs>
        <linearGradient x1="50%" y1="96.0784314%" x2="50%" y2="2.77466388%" id="linearGradient-1">
            <stop stop-color="#4BE29A" offset="0%"></stop>
            <stop stop-color="#51DCD0" offset="100%"></stop>
        </linearGradient>
    </defs>
    <g id="icon/我的信息" stroke="none" stroke-width="1" fill="none" fill-rule="evenodd">
        <path d="M22.0625,6 C22.4306898,6 23.4098565,6 25,6 C25.5522847,6 26,6.44771525 26,7 L26,26 C26,26.5522847 25.5522847,27 25,27 L10,27 C9.44771525,27 9,26.5522847 9,26 L9,24 L21.1875,22.5 C21.1875,21.9477153 21.5102153,6 22.0625,6 Z" id="Path" fill="url(#linearGradient-1)" fill-rule="nonzero" opacity="0.3"></path>
        <path d="M8,4 L23,4 C23.5522847,4 24,4.44771525 24,5 L24,24 C24,24.5522847 23.5522847,25 23,25 L8,25 C7.44771525,25 7,24.5522847 7,24 L7,5 C7,4.44771525 7.44771525,4 8,4 Z M11.5,8 C11.2238576,8 11,8.22385763 11,8.5 C11,8.77614237 11.2238576,9 11.5,9 L13.5,9 C13.7761424,9 14,8.77614237 14,8.5 C14,8.22385763 13.7761424,8 13.5,8 L11.5,8 Z M17.5,8 C17.2238576,8 17,8.22385763 17,8.5 C17,8.77614237 17.2238576,9 17.5,9 L19.5,9 C19.7761424,9 20,8.77614237 20,8.5 C20,8.22385763 19.7761424,8 19.5,8 L17.5,8 Z M11.5,11 C11.2238576,11 11,11.2238576 11,11.5 C11,11.7761424 11.2238576,12 11.5,12 L17.5,12 C17.7761424,12 18,11.7761424 18,11.5 C18,11.2238576 17.7761424,11 17.5,11 L11.5,11 Z M11.5,14 C11.2238576,14 11,14.2238576 11,14.5 C11,14.7761424 11.2238576,15 11.5,15 L13.5,15 C13.7761424,15 14,14.7761424 14,14.5 C14,14.2238576 13.7761424,14 13.5,14 L11.5,14 Z M15.5,14 C15.2238576,14 15,14.2238576 15,14.5 C15,14.7761424 15.2238576,15 15.5,15 L16.5,15 C16.7761424,15 17,14.7761424 17,14.5 C17,14.2238576 16.7761424,14 16.5,14 L15.5,14 Z M18.5,14 C18.2238576,14 18,14.2238576 18,14.5 C18,14.7761424 18.2238576,15 18.5,15 L20.5,15 C20.7761424,15 21,14.7761424 21,14.5 C21,14.2238576 20.7761424,14 20.5,14 L18.5,14 Z M11.5,17 C11.2238576,17 11,17.2238576 11,17.5 C11,17.7761424 11.2238576,18 11.5,18 L12.5,18 C12.7761424,18 13,17.7761424 13,17.5 C13,17.2238576 12.7761424,17 12.5,17 L11.5,17 Z M16.5,17 C16.2238576,17 16,17.2238576 16,17.5 C16,17.7761424 16.2238576,18 16.5,18 L17.5,18 C17.7761424,18 18,17.7761424 18,17.5 C18,17.2238576 17.7761424,17 17.5,17 L16.5,17 Z M14.5,17 C14.2238576,17 14,17.2238576 14,17.5 C14,17.7761424 14.2238576,18 14.5,18 C14.7761424,18 15,17.7761424 15,17.5 C15,17.2238576 14.7761424,17 14.5,17 Z M17.5,20 C17.2238576,20 17,20.2238576 17,20.5 C17,20.7761424 17.2238576,21 17.5,21 C17.7761424,21 18,20.7761424 18,20.5 C18,20.2238576 17.7761424,20 17.5,20 Z M19.5,11 C19.2238576,11 19,11.2238576 19,11.5 C19,11.7761424 19.2238576,12 19.5,12 C19.7761424,12 20,11.7761424 20,11.5 C20,11.2238576 19.7761424,11 19.5,11 Z M15.5,8 C15.2238576,8 15,8.22385763 15,8.5 C15,8.77614237 15.2238576,9 15.5,9 C15.7761424,9 16,8.77614237 16,8.5 C16,8.22385763 15.7761424,8 15.5,8 Z M11.5,20 C11.2238576,20 11,20.2238576 11,20.5 C11,20.7761424 11.2238576,21 11.5,21 L15.5,21 C15.7761424,21 16,20.7761424 16,20.5 C16,20.2238576 15.7761424,20 15.5,20 L11.5,20 Z" id="Combined-Shape" fill="url(#linearGradient-1)" fill-rule="nonzero"></path>
    </g>
</svg>