<?xml version="1.0" encoding="UTF-8"?>
<svg width="32px" height="32px" viewBox="0 0 32 32" version="1.1" xmlns="http://www.w3.org/2000/svg" xmlns:xlink="http://www.w3.org/1999/xlink">
    <!-- Generator: Sketch 52.6 (67491) - http://www.bohemiancoding.com/sketch -->
    <title>icon/其他家长管理@3x</title>
    <desc>Created with Sketch.</desc>
    <defs>
        <linearGradient x1="50%" y1="96.0784314%" x2="50%" y2="2.77466388%" id="linearGradient-1">
            <stop stop-color="#4BE29A" offset="0%"></stop>
            <stop stop-color="#51DCD0" offset="100%"></stop>
        </linearGradient>
    </defs>
    <g id="icon/其他家长管理" stroke="none" stroke-width="1" fill="none" fill-rule="evenodd">
        <path d="M17.8966588,15.9578756 C16.4543241,15.1633453 15.4705882,13.5771494 15.4705882,11.75 C15.4705882,9.12664744 17.498475,7 20,7 C22.501525,7 24.5294118,9.12664744 24.5294118,11.75 C24.5294118,13.5771494 23.5456759,15.1633453 22.1033412,15.9578756 C24.9415904,16.850891 27,19.5032437 27,22.6363636 L27,25.1363636 L13,25.1363636 L13,22.6363636 C13,19.5032437 15.0584096,16.850891 17.8966588,15.9578756 Z M13.8636364,24.2727273 L26.1363636,24.2727273 C26.6133368,24.2727273 27,24.6593904 27,25.1363636 C27,25.6133368 26.6133368,26 26.1363636,26 L13.8636364,26 C13.3866632,26 13,25.6133368 13,25.1363636 C13,24.6593904 13.3866632,24.2727273 13.8636364,24.2727273 Z M21.0073224,20.5106534 C21.0073584,20.508249 21.0073764,20.5058444 21.0073764,20.5034397 C21.0073764,20.2371651 20.7915181,20.0213068 20.5252435,20.0213068 L16.5040462,20.0213068 C16.2325809,20.0213068 16.0113841,20.2392184 16.0073224,20.5106534 C16.0072864,20.5130578 16.0072685,20.5154624 16.0072685,20.5178671 C16.0072685,20.7841417 16.2231267,21 16.4894014,21 L20.5105986,21 C20.782064,21 21.0032608,20.7820884 21.0073224,20.5106534 Z" id="icon/学生信息" fill-opacity="0.3" fill="url(#linearGradient-1)" fill-rule="nonzero"></path>
        <path d="M12.9676405,14.3836126 C11.2044097,13.467439 10,11.624372 10,9.5 C10,6.46243388 12.4624339,4 15.5,4 C18.5375661,4 21,6.46243388 21,9.5 C21,11.624372 19.7955903,13.467439 18.0323595,14.3836126 C21.4900071,15.461276 24,18.6875179 24,22.5 L24,25 L7,25 L7,22.5 C7,18.6875179 9.50999292,15.461276 12.9676405,14.3836126 Z M8,24 L23,24 C23.5522847,24 24,24.4477153 24,25 C24,25.5522847 23.5522847,26 23,26 L8,26 C7.44771525,26 7,25.5522847 7,25 C7,24.4477153 7.44771525,24 8,24 Z M21,20.5 C21,20.2238576 20.7761424,20 20.5,20 L16.5,20 C16.2238576,20 16,20.2238576 16,20.5 C16,20.7761424 16.2238576,21 16.5,21 L20.5,21 C20.7761424,21 21,20.7761424 21,20.5 Z" id="icon/学生信息" fill="url(#linearGradient-1)" fill-rule="nonzero"></path>
    </g>
</svg>