<?xml version="1.0" encoding="UTF-8"?>
<svg width="32px" height="32px" viewBox="0 0 32 32" version="1.1" xmlns="http://www.w3.org/2000/svg" xmlns:xlink="http://www.w3.org/1999/xlink">
    <!-- Generator: Sketch 52.6 (67491) - http://www.bohemiancoding.com/sketch -->
    <title>icon/手机@3x</title>
    <desc>Created with Sketch.</desc>
    <defs>
        <linearGradient x1="50%" y1="96.0784314%" x2="50%" y2="2.77466388%" id="linearGradient-1">
            <stop stop-color="#4BE29A" offset="0%"></stop>
            <stop stop-color="#51DCD0" offset="100%"></stop>
        </linearGradient>
    </defs>
    <g id="icon/手机" stroke="none" stroke-width="1" fill="none" fill-rule="evenodd">
        <path d="M8,4 L23,4 C23.5522847,4 24,4.44771525 24,5 L24,25 C24,25.5522847 23.5522847,26 23,26 L8,26 C7.44771525,26 7,25.5522847 7,25 L7,5 C7,4.44771525 7.44771525,4 8,4 Z M10,6 C9.44771525,6 9,6.44771525 9,7 L9,22 C9,22.5522847 9.44771525,23 10,23 L21,23 C21.5522847,23 22,22.5522847 22,22 L22,7 C22,6.44771525 21.5522847,6 21,6 L10,6 Z M11,12 L12,12 C12.5522847,12 13,12.4477153 13,13 L13,14 C13,14.5522847 12.5522847,15 12,15 L11,15 C10.4477153,15 10,14.5522847 10,14 L10,13 C10,12.4477153 10.4477153,12 11,12 Z M11,16 L12,16 C12.5522847,16 13,16.4477153 13,17 L13,18 C13,18.5522847 12.5522847,19 12,19 L11,19 C10.4477153,19 10,18.5522847 10,18 L10,17 C10,16.4477153 10.4477153,16 11,16 Z M15,12 L16,12 C16.5522847,12 17,12.4477153 17,13 L17,14 C17,14.5522847 16.5522847,15 16,15 L15,15 C14.4477153,15 14,14.5522847 14,14 L14,13 C14,12.4477153 14.4477153,12 15,12 Z M15,16 L16,16 C16.5522847,16 17,16.4477153 17,17 L17,18 C17,18.5522847 16.5522847,19 16,19 L15,19 C14.4477153,19 14,18.5522847 14,18 L14,17 C14,16.4477153 14.4477153,16 15,16 Z M19,12 L20,12 C20.5522847,12 21,12.4477153 21,13 L21,14 C21,14.5522847 20.5522847,15 20,15 L19,15 C18.4477153,15 18,14.5522847 18,14 L18,13 C18,12.4477153 18.4477153,12 19,12 Z M19,16 L20,16 C20.5522847,16 21,16.4477153 21,17 L21,18 C21,18.5522847 20.5522847,19 20,19 L19,19 C18.4477153,19 18,18.5522847 18,18 L18,17 C18,16.4477153 18.4477153,16 19,16 Z" id="Combined-Shape" fill="url(#linearGradient-1)" fill-rule="nonzero"></path>
        <path d="M23,6 L25,6 C25.5522847,6 26,6.44771525 26,7 L26,27 C26,27.5522847 25.5522847,28 25,28 L10,28 C9.44771525,28 9,27.5522847 9,27 L9,25 C9,25.5522847 9.44771525,26 10,26 L23,26 C23.5522847,26 24,25.5522847 24,25 L24,7 C24,6.44771525 23.5522847,6 23,6 Z" id="Combined-Shape" fill="url(#linearGradient-1)" fill-rule="nonzero" opacity="0.3"></path>
    </g>
</svg>