<?xml version="1.0" encoding="UTF-8"?>
<svg width="32px" height="32px" viewBox="0 0 32 32" version="1.1" xmlns="http://www.w3.org/2000/svg" xmlns:xlink="http://www.w3.org/1999/xlink">
    <!-- Generator: Sketch 52.6 (67491) - http://www.bohemiancoding.com/sketch -->
    <title>icon/修改密码@3x</title>
    <desc>Created with Sketch.</desc>
    <defs>
        <linearGradient x1="50%" y1="96.0784314%" x2="50%" y2="2.77466388%" id="linearGradient-1">
            <stop stop-color="#4BE29A" offset="0%"></stop>
            <stop stop-color="#51DCD0" offset="100%"></stop>
        </linearGradient>
    </defs>
    <g id="icon/修改密码" stroke="none" stroke-width="1" fill="none" fill-rule="evenodd">
        <path d="M25,8 L28,8 C28.5522847,8 29,8.44771525 29,9 L29,16 C29,16.5522847 28.5522847,17 28,17 L7,17 C6.44771525,17 6,16.5522847 6,16 L6,13 L25,13 L25,8 Z" id="Combined-Shape" fill="url(#linearGradient-1)" fill-rule="nonzero" opacity="0.3"></path>
        <path d="M5,6 L26,6 C26.5522847,6 27,6.44771525 27,7 L27,14 C27,14.5522847 26.5522847,15 26,15 L5,15 C4.44771525,15 4,14.5522847 4,14 L4,7 C4,6.44771525 4.44771525,6 5,6 Z M7.1339746,9.79912159 L6.5,9.79912159 C6.22385763,9.79912159 6,10.0229792 6,10.2991216 C6,10.575264 6.22385763,10.7991216 6.5,10.7991216 L7.1339746,10.7991216 L6.8169873,11.3481597 C6.67891611,11.587306 6.76085369,11.8931012 7,12.0311724 C7.23914631,12.1692436 7.54494151,12.087306 7.6830127,11.8481597 L8,11.2991216 L8.3169873,11.8481597 C8.45505849,12.087306 8.76085369,12.1692436 9,12.0311724 C9.23914631,11.8931012 9.32108389,11.587306 9.1830127,11.3481597 L8.8660254,10.7991216 L9.5,10.7991216 C9.77614237,10.7991216 10,10.575264 10,10.2991216 C10,10.0229792 9.77614237,9.79912159 9.5,9.79912159 L8.8660254,9.79912159 L9.1830127,9.25008349 C9.32108389,9.01093718 9.23914631,8.70514197 9,8.56707079 C8.76085369,8.4289996 8.45505849,8.51093718 8.3169873,8.75008349 L8,9.29912159 L7.6830127,8.75008349 C7.54494151,8.51093718 7.23914631,8.4289996 7,8.56707079 C6.76085369,8.70514197 6.67891611,9.01093718 6.8169873,9.25008349 L7.1339746,9.79912159 Z M17.1339746,9.79912159 L16.5,9.79912159 C16.2238576,9.79912159 16,10.0229792 16,10.2991216 C16,10.575264 16.2238576,10.7991216 16.5,10.7991216 L17.1339746,10.7991216 L16.8169873,11.3481597 C16.6789161,11.587306 16.7608537,11.8931012 17,12.0311724 C17.2391463,12.1692436 17.5449415,12.087306 17.6830127,11.8481597 L18,11.2991216 L18.3169873,11.8481597 C18.4550585,12.087306 18.7608537,12.1692436 19,12.0311724 C19.2391463,11.8931012 19.3210839,11.587306 19.1830127,11.3481597 L18.8660254,10.7991216 L19.5,10.7991216 C19.7761424,10.7991216 20,10.575264 20,10.2991216 C20,10.0229792 19.7761424,9.79912159 19.5,9.79912159 L18.8660254,9.79912159 L19.1830127,9.25008349 C19.3210839,9.01093718 19.2391463,8.70514197 19,8.56707079 C18.7608537,8.4289996 18.4550585,8.51093718 18.3169873,8.75008349 L18,9.29912159 L17.6830127,8.75008349 C17.5449415,8.51093718 17.2391463,8.4289996 17,8.56707079 C16.7608537,8.70514197 16.6789161,9.01093718 16.8169873,9.25008349 L17.1339746,9.79912159 Z M12.1339746,9.79912159 L11.5,9.79912159 C11.2238576,9.79912159 11,10.0229792 11,10.2991216 C11,10.575264 11.2238576,10.7991216 11.5,10.7991216 L12.1339746,10.7991216 L11.8169873,11.3481597 C11.6789161,11.587306 11.7608537,11.8931012 12,12.0311724 C12.2391463,12.1692436 12.5449415,12.087306 12.6830127,11.8481597 L13,11.2991216 L13.3169873,11.8481597 C13.4550585,12.087306 13.7608537,12.1692436 14,12.0311724 C14.2391463,11.8931012 14.3210839,11.587306 14.1830127,11.3481597 L13.8660254,10.7991216 L14.5,10.7991216 C14.7761424,10.7991216 15,10.575264 15,10.2991216 C15,10.0229792 14.7761424,9.79912159 14.5,9.79912159 L13.8660254,9.79912159 L14.1830127,9.25008349 C14.3210839,9.01093718 14.2391463,8.70514197 14,8.56707079 C13.7608537,8.4289996 13.4550585,8.51093718 13.3169873,8.75008349 L13,9.29912159 L12.6830127,8.75008349 C12.5449415,8.51093718 12.2391463,8.4289996 12,8.56707079 C11.7608537,8.70514197 11.6789161,9.01093718 11.8169873,9.25008349 L12.1339746,9.79912159 Z M22.1339746,9.79912159 L21.5,9.79912159 C21.2238576,9.79912159 21,10.0229792 21,10.2991216 C21,10.575264 21.2238576,10.7991216 21.5,10.7991216 L22.1339746,10.7991216 L21.8169873,11.3481597 C21.6789161,11.587306 21.7608537,11.8931012 22,12.0311724 C22.2391463,12.1692436 22.5449415,12.087306 22.6830127,11.8481597 L23,11.2991216 L23.3169873,11.8481597 C23.4550585,12.087306 23.7608537,12.1692436 24,12.0311724 C24.2391463,11.8931012 24.3210839,11.587306 24.1830127,11.3481597 L23.8660254,10.7991216 L24.5,10.7991216 C24.7761424,10.7991216 25,10.575264 25,10.2991216 C25,10.0229792 24.7761424,9.79912159 24.5,9.79912159 L23.8660254,9.79912159 L24.1830127,9.25008349 C24.3210839,9.01093718 24.2391463,8.70514197 24,8.56707079 C23.7608537,8.4289996 23.4550585,8.51093718 23.3169873,8.75008349 L23,9.29912159 L22.6830127,8.75008349 C22.5449415,8.51093718 22.2391463,8.4289996 22,8.56707079 C21.7608537,8.70514197 21.6789161,9.01093718 21.8169873,9.25008349 L22.1339746,9.79912159 Z" id="Rectangle" fill="url(#linearGradient-1)" fill-rule="nonzero"></path>
        <rect id="Rectangle" fill="url(#linearGradient-1)" fill-rule="nonzero" x="4" y="19" width="4" height="1" rx="0.5"></rect>
        <rect id="Rectangle-Copy-5" fill="url(#linearGradient-1)" fill-rule="nonzero" opacity="0.3" x="6" y="21" width="3" height="1" rx="0.5"></rect>
        <rect id="Rectangle-Copy-10" fill="url(#linearGradient-1)" fill-rule="nonzero" x="5" y="23" width="3" height="1" rx="0.5"></rect>
        <rect id="Rectangle-Copy-15" fill="url(#linearGradient-1)" fill-rule="nonzero" x="7" y="25" width="3" height="1" rx="0.5"></rect>
        <rect id="Rectangle-Copy-11" fill="url(#linearGradient-1)" fill-rule="nonzero" opacity="0.3" x="9" y="23" width="3" height="1" rx="0.5"></rect>
        <rect id="Rectangle-Copy-12" fill="url(#linearGradient-1)" fill-rule="nonzero" x="13" y="23" width="3" height="1" rx="0.5"></rect>
        <rect id="Rectangle-Copy-16" fill="url(#linearGradient-1)" fill-rule="nonzero" x="11" y="25" width="10" height="1" rx="0.5"></rect>
        <rect id="Rectangle-Copy-13" fill="url(#linearGradient-1)" fill-rule="nonzero" opacity="0.3" x="17" y="23" width="3" height="1" rx="0.5"></rect>
        <rect id="Rectangle-Copy-14" fill="url(#linearGradient-1)" fill-rule="nonzero" x="21" y="23" width="3" height="1" rx="0.5"></rect>
        <rect id="Rectangle-Copy-17" fill="url(#linearGradient-1)" fill-rule="nonzero" x="22" y="25" width="3" height="1" rx="0.5"></rect>
        <rect id="Rectangle-Copy" fill="url(#linearGradient-1)" fill-rule="nonzero" x="9" y="19" width="4" height="1" rx="0.5"></rect>
        <rect id="Rectangle-Copy-6" fill="url(#linearGradient-1)" fill-rule="nonzero" x="10" y="21" width="4" height="1" rx="0.5"></rect>
        <rect id="Rectangle-Copy-2" fill="url(#linearGradient-1)" fill-rule="nonzero" x="14" y="19" width="4" height="1" rx="0.5"></rect>
        <rect id="Rectangle-Copy-8" fill="url(#linearGradient-1)" fill-rule="nonzero" x="19" y="21" width="3" height="1" rx="0.5"></rect>
        <rect id="Rectangle-Copy-4" fill="url(#linearGradient-1)" fill-rule="nonzero" x="23" y="19" width="4" height="1" rx="0.5"></rect>
        <rect id="Rectangle-Copy-9" fill="url(#linearGradient-1)" fill-rule="nonzero" x="23" y="21" width="3" height="1" rx="0.5"></rect>
        <rect id="Rectangle-Copy-3" fill="url(#linearGradient-1)" fill-rule="nonzero" opacity="0.3" x="19" y="19" width="3" height="1" rx="0.5"></rect>
        <rect id="Rectangle-Copy-7" fill="url(#linearGradient-1)" fill-rule="nonzero" opacity="0.3" x="15" y="21" width="3" height="1" rx="0.5"></rect>
    </g>
</svg>