<?xml version="1.0" encoding="UTF-8"?>
<svg width="32px" height="32px" viewBox="0 0 32 32" version="1.1" xmlns="http://www.w3.org/2000/svg" xmlns:xlink="http://www.w3.org/1999/xlink">
    <!-- Generator: Sketch 52.6 (67491) - http://www.bohemiancoding.com/sketch -->
    <title>icon/学生信息@3x</title>
    <desc>Created with Sketch.</desc>
    <defs>
        <linearGradient x1="50%" y1="96.0784314%" x2="50%" y2="2.77466388%" id="linearGradient-1">
            <stop stop-color="#4BE29A" offset="0%"></stop>
            <stop stop-color="#51DCD0" offset="100%"></stop>
        </linearGradient>
    </defs>
    <g id="icon/学生信息" stroke="none" stroke-width="1" fill="none" fill-rule="evenodd">
        <path d="M12.9676405,14.3836126 C11.2044097,13.467439 10,11.624372 10,9.5 C10,6.46243388 12.4624339,4 15.5,4 C18.5375661,4 21,6.46243388 21,9.5 C21,11.624372 19.7955903,13.467439 18.0323595,14.3836126 C21.4900071,15.461276 24,18.6875179 24,22.5 L24,26 L7,26 L7,22.5 C7,18.6875179 9.50999292,15.461276 12.9676405,14.3836126 Z M15.5627441,24.6875 C15.8388865,24.6875 16.0627441,24.4636424 16.0627441,24.1875 L16.0627441,16.1875 C16.0627441,15.9113576 15.8388865,15.6875 15.5627441,15.6875 C15.2866018,15.6875 15.0627441,15.9113576 15.0627441,16.1875 L15.0627441,24.1875 C15.0627441,24.4636424 15.2866018,24.6875 15.5627441,24.6875 Z" fill="url(#linearGradient-1)" fill-rule="nonzero"></path>
        <path d="M15.0259507,16.5709547 L15.0259507,20.828125 L15.0259507,24.1875 C15.0259507,24.4636424 15.2498083,24.6875 15.5259507,24.6875 L15.5627441,24.6875 C15.8388865,24.6875 16.0627441,24.4636424 16.0627441,24.1875 L16.0627441,16.1875 C16.0627441,16.1029463 16.0417561,16.0232946 16.0047056,15.9534704 C16.4012745,15.744204 16.8188691,15.5694371 17.2534951,15.433164 C15.7042794,14.598088 14.6470588,12.9262489 14.6470588,11 C14.6470588,8.23857625 16.8197946,6 19.5,6 C22.1802054,6 24.3529412,8.23857625 24.3529412,11 C24.3529412,12.9262489 23.2957206,14.598088 21.7465049,15.433164 C24.7911399,16.387782 27,19.2313921 27,22.5909091 L27,26 L12,26 L12,22.5909091 C12,20.1255502 13.1895284,17.9380206 15.0259507,16.5709547 Z" fill="url(#linearGradient-1)" fill-rule="nonzero" opacity="0.3"></path>
    </g>
</svg>