<?xml version="1.0" encoding="UTF-8"?>
<svg width="32px" height="32px" viewBox="0 0 32 32" version="1.1" xmlns="http://www.w3.org/2000/svg" xmlns:xlink="http://www.w3.org/1999/xlink">
    <!-- Generator: Sketch 52.6 (67491) - http://www.bohemiancoding.com/sketch -->
    <title>icon/解除绑定@3x</title>
    <desc>Created with Sketch.</desc>
    <defs>
        <linearGradient x1="50%" y1="96.0784314%" x2="50%" y2="2.77466388%" id="linearGradient-1">
            <stop stop-color="#4BE29A" offset="0%"></stop>
            <stop stop-color="#51DCD0" offset="100%"></stop>
        </linearGradient>
    </defs>
    <g id="icon/解除绑定" stroke="none" stroke-width="1" fill="none" fill-rule="evenodd">
        <path d="M21.2536871,15.6459001 L22.9787161,13.920871 C24.8303142,12.0692729 25.6981661,9.93509104 24.9171176,9.15404245 C24.136069,8.37299387 22.0018871,9.24084576 20.150289,11.0924439 L16.797674,14.4450589 L16.626885,14.6149557 C16.0410986,15.2007421 15.0913511,15.2007421 14.5055647,14.6149557 C14.4969813,14.6063723 14.4885024,14.5976851 14.4801299,14.5888958 L14.1777003,14.2714136 C13.616718,13.6825098 13.6272668,12.7538189 14.2014811,12.1778096 L15.6074292,10.7674665 C15.6520182,10.7227382 15.6987279,10.6814111 15.7472358,10.643486 L17.7242834,8.66643833 C19.9462012,6.44452056 23.5486417,6.44452056 25.7705594,8.66643833 C27.9924772,10.8883561 27.9924772,14.4907966 25.7705594,16.7127144 L24.1436052,18.3396686 C24.1027099,18.3958615 24.0574156,18.4498848 24.0077144,18.5012708 C23.9997223,18.5095339 23.9916354,18.5177048 23.9834553,18.525782 L22.4057741,20.0836279 C21.8235745,20.6585079 20.8880801,20.660775 20.303101,20.0887236 L19.6156151,19.4164307 C19.0233205,18.8372255 19.0127095,17.8875374 19.5919147,17.2952428 C19.5965627,17.2904898 19.6012422,17.2857677 19.605953,17.2810768 L21.1731918,15.7204789 C21.1993222,15.6944591 21.2261755,15.6695994 21.2536871,15.6459001 Z M19.0598748,23.4124898 L19.0653294,23.4179444 L15.7127144,26.7705594 C13.4907966,28.9924772 9.88835611,28.9924772 7.66643833,26.7705594 C5.44452056,24.5486417 5.44452056,20.9462012 7.66643833,18.7242834 L9.58251061,16.8082111 C9.61464779,16.7686281 9.64909699,16.7303087 9.68585614,16.6934346 L11.0918042,15.2830915 C11.6766758,14.6963917 12.6264221,14.6949095 13.213122,15.2797811 C13.2208296,15.2874647 13.2284534,15.295232 13.2359919,15.3030815 L13.5418372,15.621543 C14.107487,16.2105262 14.0980581,17.1437826 13.5206238,17.7212169 L13.4446128,17.7972279 L10.0924439,21.150289 C8.24084576,23.0018871 7.37299387,25.136069 8.15404245,25.9171176 C8.93509104,26.6981661 11.0692729,25.8303142 12.920871,23.9787161 L15.3070617,21.5925255 C15.3486001,21.5385769 15.3942741,21.4868633 15.4440642,21.4378276 L16.5102467,20.3877994 C17.0868282,19.8199539 18.0099021,19.8118439 18.596372,20.369471 L19.2808422,21.0202788 C19.8812056,21.5911161 19.9051412,22.5405619 19.3343039,23.1409253 C19.3231052,23.1527032 19.3117159,23.1642983 19.3001404,23.1757061 L19.0598748,23.4124898 Z" id="Combined-Shape" fill="url(#linearGradient-1)" fill-rule="nonzero" opacity="0.3"></path>
        <path d="M20.3654959,14.1203756 L22.0905249,12.3953465 C23.9421231,10.5437484 24.8099749,8.40956654 24.0289264,7.62851795 C23.2478778,6.84746937 21.1136959,7.71532126 19.2620978,9.56691941 L15.9094828,12.9195344 L15.7386938,13.0894312 C15.1529074,13.6752176 14.2031599,13.6752176 13.6173735,13.0894312 C13.6087901,13.0808478 13.6003112,13.0721606 13.5919387,13.0633713 L13.2895091,12.7458891 C12.7285268,12.1569853 12.7390756,11.2282944 13.3132899,10.6522851 L14.719238,9.24194204 C14.763827,9.19721367 14.8105367,9.15588664 14.8590446,9.11796148 L16.8360922,7.14091383 C19.05801,4.91899606 22.6604505,4.91899606 24.8823683,7.14091383 C27.104286,9.36283161 27.104286,12.9652721 24.8823683,15.1871899 L23.255414,16.8141441 C23.2145188,16.870337 23.1692244,16.9243603 23.1195232,16.9757463 C23.1115311,16.9840094 23.1034442,16.9921803 23.0952641,17.0002575 L21.5175829,18.5581034 C20.9353833,19.1329834 19.9998889,19.1352505 19.4149098,18.5631991 L18.7274239,17.8909062 C18.1351293,17.3117011 18.1245183,16.3620129 18.7037235,15.7697183 C18.7083715,15.7649653 18.713051,15.7602432 18.7177618,15.7555523 L20.2850006,14.1949544 C20.3111311,14.1689347 20.3379843,14.1440749 20.3654959,14.1203756 Z M18.1716836,21.8869653 L18.1771382,21.8924199 L14.8245232,25.2450349 C12.6026054,27.4669527 9.00016492,27.4669527 6.77824714,25.2450349 C4.55632936,23.0231172 4.55632936,19.4206767 6.77824714,17.1987589 L8.69431942,15.2826866 C8.72645659,15.2431036 8.76090579,15.2047842 8.79766495,15.1679101 L10.203613,13.757567 C10.7884846,13.1708672 11.7382309,13.169385 12.3249308,13.7542566 C12.3326384,13.7619402 12.3402622,13.7697075 12.3478007,13.777557 L12.653646,14.0960185 C13.2192958,14.6850017 13.2098669,15.6182581 12.6324326,16.1956924 L12.5564216,16.2717034 L9.20425272,19.6247645 C7.35265457,21.4763626 6.48480267,23.6105445 7.26585126,24.3915931 C8.04689984,25.1726416 10.1810817,24.3047897 12.0326798,22.4531916 L14.4188705,20.067001 C14.4604089,20.0130524 14.5060829,19.9613388 14.555873,19.9123031 L15.6220555,18.8622749 C16.198637,18.2944294 17.1217109,18.2863194 17.7081808,18.8439465 L18.392651,19.4947543 C18.9930144,20.0655916 19.0169501,21.0150374 18.4461127,21.6154008 C18.4349141,21.6271787 18.4235247,21.6387738 18.4119492,21.6501816 L18.1716836,21.8869653 Z" id="Combined-Shape" fill="url(#linearGradient-1)" fill-rule="nonzero"></path>
        <path d="M13.328307,5.84096782 L13.1712991,8.83685642 C13.1568469,9.11262035 12.9215803,9.32445539 12.6458164,9.31000321 C12.3700524,9.29555103 12.1582174,9.0602844 12.1726696,8.78452046 L12.3296774,5.78863186 C12.3441296,5.51286793 12.5793963,5.3010329 12.8551602,5.31548507 C13.1309241,5.32993725 13.3427592,5.56520389 13.328307,5.84096782 Z M8.96032749,7.30296658 L10.8886903,9.60109991 C11.0661912,9.81263724 11.0385992,10.128015 10.8270619,10.3055159 C10.6155246,10.4830168 10.3001468,10.4554248 10.1226459,10.2438875 L8.19428304,7.94575419 C8.01678215,7.73421686 8.04437413,7.41883906 8.25591146,7.24133816 C8.46744879,7.06383726 8.78282659,7.09142925 8.96032749,7.30296658 Z M6.23794134,11.3725687 L9.23748443,11.424926 C9.51358474,11.4297453 9.73350142,11.6574757 9.72868207,11.933576 C9.72386272,12.2096763 9.49613234,12.429593 9.22003202,12.4247736 L6.22048893,12.3724164 C5.94438862,12.3675971 5.72447194,12.1398667 5.72929129,11.8637664 C5.73411064,11.5876661 5.96184102,11.3677494 6.23794134,11.3725687 Z M26.2392766,20.0393399 C26.5152507,20.0297026 26.7467845,20.2456114 26.7564217,20.5215855 C26.766059,20.7975597 26.5501502,21.0290935 26.2741761,21.0387307 L23.2760036,21.1434292 C23.0000294,21.1530664 22.7684957,20.9371577 22.7588584,20.6611835 C22.7492212,20.3852094 22.9651299,20.1536756 23.2411041,20.1440384 L26.2392766,20.0393399 Z M24.7012687,24.3811387 C24.909676,24.5623044 24.9317597,24.8781157 24.750594,25.086523 C24.5694283,25.2949303 24.253617,25.317014 24.0452097,25.1358483 L21.781081,23.1676712 C21.5726737,22.9865055 21.55059,22.6706942 21.7317557,22.4622869 C21.9129214,22.2538796 22.2287327,22.2317959 22.43714,22.4129616 L24.7012687,24.3811387 Z M20.5847742,27.0320859 C20.5847742,27.3082283 20.3609166,27.5320859 20.0847742,27.5320859 C19.8086318,27.5320859 19.5847742,27.3082283 19.5847742,27.0320859 L19.5847742,24.0320859 C19.5847742,23.7559435 19.8086318,23.5320859 20.0847742,23.5320859 C20.3609166,23.5320859 20.5847742,23.7559435 20.5847742,24.0320859 L20.5847742,27.0320859 Z" id="Combined-Shape" fill="url(#linearGradient-1)" fill-rule="nonzero" opacity="0.3"></path>
    </g>
</svg>