<?xml version="1.0" encoding="UTF-8"?>
<svg width="32px" height="32px" viewBox="0 0 32 32" version="1.1" xmlns="http://www.w3.org/2000/svg" xmlns:xlink="http://www.w3.org/1999/xlink">
    <!-- Generator: Sketch 52.6 (67491) - http://www.bohemiancoding.com/sketch -->
    <title>icon/白名单@3x</title>
    <desc>Created with Sketch.</desc>
    <defs>
        <linearGradient x1="50%" y1="96.0784314%" x2="50%" y2="2.77466388%" id="linearGradient-1">
            <stop stop-color="#4BE29A" offset="0%"></stop>
            <stop stop-color="#51DCD0" offset="100%"></stop>
        </linearGradient>
    </defs>
    <g id="icon/白名单" stroke="none" stroke-width="1" fill="none" fill-rule="evenodd">
        <path d="M15.0189448,23 C15.1025468,24.098994 15.4594409,25.1215971 16.0218179,26 L8,26 C7.44771525,26 7,25.5522847 7,25 L7,22 L9,22 C9,22.5522847 9.44771525,23 10,23 L15.0189448,23 Z M22,16.0189448 L22,7 C22,6.44771525 21.5522847,6 21,6 L10,6 C9.44771525,6 9,6.44771525 9,7 L9,8 L7,8 L7,5 C7,4.44771525 7.44771525,4 8,4 L23,4 C23.5522847,4 24,4.44771525 24,5 L24,16.4981633 C23.3765564,16.238175 22.7039495,16.0724952 22,16.0189448 Z M7,18 L7,17 L9,17 L9,18 L7,18 Z M7,13 L7,12 L9,12 L9,13 L7,13 Z M8,9 C8.55228475,9 9,9.44771525 9,10 C9,10.5522847 8.55228475,11 8,11 C7.44771525,11 7,10.5522847 7,10 C7,9.44771525 7.44771525,9 8,9 Z M8,14 C8.55228475,14 9,14.4477153 9,15 C9,15.5522847 8.55228475,16 8,16 C7.44771525,16 7,15.5522847 7,15 C7,14.4477153 7.44771525,14 8,14 Z M8,19 C8.55228475,19 9,19.4477153 9,20 C9,20.5522847 8.55228475,21 8,21 C7.44771525,21 7,20.5522847 7,20 C7,19.4477153 7.44771525,19 8,19 Z M21.5,28 C18.4624339,28 16,25.5375661 16,22.5 C16,19.4624339 18.4624339,17 21.5,17 C24.5375661,17 27,19.4624339 27,22.5 C27,25.5375661 24.5375661,28 21.5,28 Z M20.6468739,23.3736485 L19.5862137,22.3129883 C19.3909515,22.1177261 19.074369,22.1177261 18.8791069,22.3129883 C18.6838448,22.5082504 18.6838448,22.8248329 18.8791069,23.0200951 L20.2933205,24.4343086 C20.3909515,24.5319397 20.5189127,24.5807552 20.6468739,24.5807552 C20.774835,24.5807552 20.9027962,24.5319397 21.0004272,24.4343086 L24.5359612,20.8987747 C24.7312233,20.7035126 24.7312233,20.3869301 24.5359612,20.1916679 C24.340699,19.9964058 24.0241165,19.9964058 23.8288544,20.1916679 L20.6468739,23.3736485 Z" id="Combined-Shape" fill="url(#linearGradient-1)" fill-rule="nonzero"></path>
        <path d="M18.8830071,16.5483104 C17.3582854,17.2197096 16.1404433,18.4598336 15.4981633,20 L11,20 C11.1207111,16.6666667 12.5806221,15 15.3797331,15 C16.9373625,15 18.1051205,15.5161035 18.8830071,16.5483104 Z M15.5,15 C14.1192881,15 13,13.8807119 13,12.5 C13,11.1192881 14.1192881,10 15.5,10 C16.8807119,10 18,11.1192881 18,12.5 C18,13.8807119 16.8807119,15 15.5,15 Z" id="Combined-Shape" fill="url(#linearGradient-1)" fill-rule="nonzero" opacity="0.3"></path>
        <path d="M26,17.8095722 C27.2326701,18.9925021 28,20.6566413 28,22.5 C28,24.354548 27.2233263,26.0276941 25.9775015,27.2119159 C25.8802976,27.662414 25.4795725,28 25,28 L24.9656859,28 C23.9625507,28.6334286 22.774084,29 21.5,29 C20.225916,29 19.0374493,28.6334286 18.0343141,28 L10,28 C9.44771525,28 9,27.5522847 9,27 L9,25 C9,25.5522847 9.44771525,26 10,26 L16.0218179,26 C15.3749965,24.9896995 15,23.7886423 15,22.5 C15,18.9101491 17.9101491,16 21.5,16 C22.3859009,16 23.2304079,16.1772281 24,16.4981633 L24,7 C24,6.44771525 23.5522847,6 23,6 L25,6 C25.5522847,6 26,6.44771525 26,7 L26,17.8095722 Z M20.6468739,23.3736485 L19.5862137,22.3129883 C19.3909515,22.1177261 19.074369,22.1177261 18.8791069,22.3129883 C18.6838448,22.5082504 18.6838448,22.8248329 18.8791069,23.0200951 L20.2933205,24.4343086 C20.3909515,24.5319397 20.5189127,24.5807552 20.6468739,24.5807552 C20.774835,24.5807552 20.9027962,24.5319397 21.0004272,24.4343086 L24.5359612,20.8987747 C24.7312233,20.7035126 24.7312233,20.3869301 24.5359612,20.1916679 C24.340699,19.9964058 24.0241165,19.9964058 23.8288544,20.1916679 L20.6468739,23.3736485 Z" id="Combined-Shape" fill="url(#linearGradient-1)" fill-rule="nonzero" opacity="0.3"></path>
    </g>
</svg>