<?xml version="1.0" encoding="UTF-8"?>
<svg width="32px" height="32px" viewBox="0 0 32 32" version="1.1" xmlns="http://www.w3.org/2000/svg" xmlns:xlink="http://www.w3.org/1999/xlink">
    <!-- Generator: Sketch 52.6 (67491) - http://www.bohemiancoding.com/sketch -->
    <title>icon/请假@3x</title>
    <desc>Created with Sketch.</desc>
    <defs>
        <linearGradient x1="50%" y1="96.0784314%" x2="50%" y2="2.77466388%" id="linearGradient-1">
            <stop stop-color="#4BE29A" offset="0%"></stop>
            <stop stop-color="#51DCD0" offset="100%"></stop>
        </linearGradient>
    </defs>
    <g id="icon/请假" stroke="none" stroke-width="1" fill="none" fill-rule="evenodd">
        <path d="M24,29 C20.1340068,29 17,25.8659932 17,22 C17,18.1340068 20.1340068,15 24,15 C27.8659932,15 31,18.1340068 31,22 C31,25.8659932 27.8659932,29 24,29 Z M24,27 C26.7614237,27 29,24.7614237 29,22 C29,19.2385763 26.7614237,17 24,17 C21.2385763,17 19,19.2385763 19,22 C19,24.7614237 21.2385763,27 24,27 Z" id="Combined-Shape" fill="url(#linearGradient-1)" fill-rule="nonzero" opacity="0.3"></path>
        <path d="M20,16.2613988 C19.0113844,16.9546682 18.2090946,17.8979142 17.6837827,19 L13,19 L13,12 L20,12 L20,16.2613988 Z M17.2978519,20 C17.1041334,20.6449419 17,21.3289617 17,22.0374332 C17,23.9738331 17.7779208,25.7275683 19.0367122,27 L13,27 L13,20 L17.2978519,20 Z M28,16.2613988 C26.8661665,15.4662951 25.4872481,15 24,15 C22.9264027,15 21.9092554,15.2429835 21,15.6772335 L21,12 L28,12 L28,16.2613988 Z M12,27 L6,27 C5.44771525,27 5,26.5522847 5,26 L5,20 L12,20 L12,27 Z M13,4 L20,4 L20,11 L13,11 L13,4 Z M12,4 L12,11 L5,11 L5,5 C5,4.44771525 5.44771525,4 6,4 L12,4 Z M21,4 L27,4 C27.5522847,4 28,4.44771525 28,5 L28,11 L21,11 L21,4 Z" id="Combined-Shape" fill="url(#linearGradient-1)" fill-rule="nonzero"></path>
        <rect id="Rectangle" fill="url(#linearGradient-1)" fill-rule="nonzero" opacity="0.3" x="5" y="12" width="7" height="7"></rect>
        <path d="M24,27 C21.2385763,27 19,24.7614237 19,22 C19,19.2385763 21.2385763,17 24,17 C26.7614237,17 29,19.2385763 29,22 C29,24.7614237 26.7614237,27 24,27 Z M23.4562503,18.5418882 L23.4562503,21.7194316 L21.8234183,23.1669779 C21.5939335,23.3704219 21.601685,23.6936728 21.8407316,23.888979 C22.0797783,24.0842853 22.4595981,24.0776883 22.6890829,23.8742443 L24.4890824,22.2784998 C24.5963498,22.1834046 24.65625,22.0566892 24.65625,21.9248666 L24.65625,18.5418882 C24.65625,18.2598705 24.3876209,18.03125 24.0562502,18.03125 C23.7248794,18.03125 23.4562503,18.2598705 23.4562503,18.5418882 Z" id="Combined-Shape" fill="url(#linearGradient-1)" fill-rule="nonzero"></path>
    </g>
</svg>