<?xml version="1.0" encoding="UTF-8"?>
<svg width="32px" height="32px" viewBox="0 0 32 32" version="1.1" xmlns="http://www.w3.org/2000/svg" xmlns:xlink="http://www.w3.org/1999/xlink">
    <!-- Generator: Sketch 52.6 (67491) - http://www.bohemiancoding.com/sketch -->
    <title>icon/成绩通知@3x</title>
    <desc>Created with Sketch.</desc>
    <defs>
        <linearGradient x1="50%" y1="96.0784314%" x2="50%" y2="2.77466388%" id="linearGradient-1">
            <stop stop-color="#4BE29A" offset="0%"></stop>
            <stop stop-color="#51DCD0" offset="100%"></stop>
        </linearGradient>
    </defs>
    <g id="icon/成绩通知" stroke="none" stroke-width="1" fill="none" fill-rule="evenodd">
        <path d="M23,9 L25,9 C25.5522847,9 26,9.44771525 26,10 L26,26 C26,26.5522847 25.5522847,27 25,27 L12,27 C11.4477153,27 11,26.5522847 11,26 L11,24 C11,24.5522847 11.4477153,25 12,25 L23,25 C23.5522847,25 24,24.5522847 24,24 L24,10 C24,9.44771525 23.5522847,9 23,9 Z" id="Combined-Shape" fill="url(#linearGradient-1)" fill-rule="nonzero" opacity="0.3"></path>
        <path d="M24,6.44987553 C23.2922269,6.47670324 22.7405603,6.79146134 22.345,7.402 C21.967,7.987 21.778,8.779 21.778,9.787 C21.778,10.786 21.967,11.578 22.345,12.172 C22.7405603,12.7739395 23.2922269,13.0965307 24,13.1240733 L24,24 C24,24.5522847 23.5522847,25 23,25 L8,25 C7.44771525,25 7,24.5522847 7,24 L7,6 C7,5.44771525 7.44771525,5 8,5 L23,5 C23.5522847,5 24,5.44771525 24,6 L24,6.44987553 Z M24,7.27954393 L24,12.2943525 C23.5223777,12.2588263 23.1861709,11.9641223 22.984,11.425 C22.822,11.02 22.75,10.471 22.75,9.787 C22.75,9.094 22.822,8.545 22.984,8.149 C23.1861709,7.60145387 23.5223777,7.31409507 24,7.27954393 Z M9.76666667,12.7777778 C9.49052429,12.7777778 9.26666667,13.0016354 9.26666667,13.2777778 L9.26666667,13.3888889 C9.26666667,13.6650313 9.49052429,13.8888889 9.76666667,13.8888889 L14.4333333,13.8888889 C14.7094757,13.8888889 14.9333333,13.6650313 14.9333333,13.3888889 L14.9333333,13.2777778 C14.9333333,13.0016354 14.7094757,12.7777778 14.4333333,12.7777778 L9.76666667,12.7777778 Z M9.76666667,15 C9.49052429,15 9.26666667,15.2238576 9.26666667,15.5 L9.26666667,15.6111111 C9.26666667,15.8872535 9.49052429,16.1111111 9.76666667,16.1111111 L20.1,16.1111111 C20.3761424,16.1111111 20.6,15.8872535 20.6,15.6111111 L20.6,15.5 C20.6,15.2238576 20.3761424,15 20.1,15 L9.76666667,15 Z M9.76666667,17.2222222 C9.49052429,17.2222222 9.26666667,17.4460798 9.26666667,17.7222222 L9.26666667,17.8333333 C9.26666667,18.1094757 9.49052429,18.3333333 9.76666667,18.3333333 L16.7,18.3333333 C16.9761424,18.3333333 17.2,18.1094757 17.2,17.8333333 L17.2,17.7222222 C17.2,17.4460798 16.9761424,17.2222222 16.7,17.2222222 L9.76666667,17.2222222 Z M9.76666667,19.4444444 C9.49052429,19.4444444 9.26666667,19.6683021 9.26666667,19.9444444 L9.26666667,20.0555556 C9.26666667,20.3316979 9.49052429,20.5555556 9.76666667,20.5555556 L17.8333333,20.5555556 C18.1094757,20.5555556 18.3333333,20.3316979 18.3333333,20.0555556 L18.3333333,19.9444444 C18.3333333,19.6683021 18.1094757,19.4444444 17.8333333,19.4444444 L9.76666667,19.4444444 Z M18.628,6.448 C17.989,6.448 17.458,6.655 17.026,7.078 C16.594,7.492 16.387,8.014 16.387,8.662 C16.387,9.292 16.567,9.805 16.936,10.201 C17.314,10.606 17.827,10.813 18.457,10.813 C18.79,10.813 19.087,10.741 19.348,10.615 C19.618,10.471 19.852,10.264 20.032,9.985 L20.068,9.985 C20.068,10.03 20.077,10.066 20.077,10.102 C20.077,10.723 19.942,11.245 19.69,11.659 C19.42,12.091 19.069,12.316 18.628,12.316 C17.98,12.316 17.584,12.001 17.458,11.38 L16.504,11.38 C16.666,12.541 17.368,13.126 18.619,13.126 C19.357,13.126 19.942,12.793 20.383,12.145 C20.806,11.497 21.022,10.651 21.022,9.607 C21.022,8.617 20.815,7.852 20.419,7.303 C20.005,6.727 19.411,6.448 18.628,6.448 Z M18.664,7.258 C19.042,7.258 19.357,7.384 19.6,7.636 C19.834,7.879 19.96,8.212 19.96,8.635 C19.96,9.049 19.843,9.391 19.609,9.643 C19.375,9.895 19.051,10.021 18.655,10.021 C18.25,10.021 17.935,9.895 17.71,9.643 C17.467,9.4 17.35,9.076 17.35,8.662 C17.35,8.248 17.467,7.915 17.71,7.654 C17.944,7.384 18.268,7.258 18.664,7.258 Z M24,6.44987553 C24.0329941,6.44862491 24.0663274,6.448 24.1,6.448 C24.856,6.448 25.441,6.763 25.855,7.402 C26.233,7.996 26.422,8.788 26.422,9.787 C26.422,10.777 26.233,11.578 25.855,12.172 C25.441,12.802 24.856,13.126 24.1,13.126 C24.0663274,13.126 24.0329941,13.1253572 24,13.1240733 L24,12.2943525 C24.0326709,12.2967826 24.0660034,12.298 24.1,12.298 C24.622,12.298 25,12.001 25.216,11.425 C25.369,11.02 25.45,10.471 25.45,9.787 C25.45,9.094 25.369,8.545 25.216,8.149 C25,7.564 24.622,7.276 24.1,7.276 C24.0660034,7.276 24.0326709,7.27718052 24,7.27954393 L24,6.44987553 Z" id="Combined-Shape" fill="url(#linearGradient-1)" fill-rule="nonzero"></path>
    </g>
</svg>