<?xml version="1.0" encoding="UTF-8"?>
<svg width="32px" height="32px" viewBox="0 0 32 32" version="1.1" xmlns="http://www.w3.org/2000/svg" xmlns:xlink="http://www.w3.org/1999/xlink">
    <!-- Generator: Sketch 52.6 (67491) - http://www.bohemiancoding.com/sketch -->
    <title>icon/老师通知@3x</title>
    <desc>Created with Sketch.</desc>
    <defs>
        <linearGradient x1="50%" y1="96.0784314%" x2="50%" y2="2.77466388%" id="linearGradient-1">
            <stop stop-color="#4BE29A" offset="0%"></stop>
            <stop stop-color="#51DCD0" offset="100%"></stop>
        </linearGradient>
    </defs>
    <g id="icon/老师通知" stroke="none" stroke-width="1" fill="none" fill-rule="evenodd">
        <path d="M23.0035448,22 L23.9856343,23 L5,23 C4.44771525,23 4,22.5522847 4,22 L4,9 C4,8.44771525 4.44771525,8 5,8 L27,8 C27.5522847,8 28,8.44771525 28,9 L28,22 C28,22.3777008 27.7906024,22.7064942 27.4815646,22.8766229 L26.4700561,21.8828604 C26.7853924,21.7146172 27,21.3823708 27,21 L27,10 C27,9.44771525 26.5522847,9 26,9 L6,9 C5.44771525,9 5,9.44771525 5,10 L5,21 C5,21.5522847 5.44771525,22 6,22 L23.0035448,22 Z M18.2359127,14.7591991 L26.7211941,23.2444805 C26.9164562,23.4397427 26.9164562,23.7563252 26.7211941,23.9515873 C26.5259319,24.1468494 26.2093494,24.1468494 26.0140873,23.9515873 L17.5288059,15.4663059 C17.3335438,15.2710438 17.3335438,14.9544613 17.5288059,14.7591991 C17.7240681,14.563937 18.0406506,14.563937 18.2359127,14.7591991 Z" id="Combined-Shape" fill="url(#linearGradient-1)" fill-rule="nonzero" opacity="0.3"></path>
        <path d="M26.4700561,21.8828604 L18.9982494,14.5421395 C18.9994087,14.5282466 19,14.5141924 19,14.5 C19,14.2238576 18.7761424,14 18.5,14 L18.3271257,14 C18.0975372,13.9125902 17.8430885,13.9132322 17.614816,14 L8.5,14 C8.22385763,14 8,14.2238576 8,14.5 C8,14.7761424 8.22385763,15 8.5,15 L16.7457656,15 C16.6820834,15.315077 16.7715336,15.6543351 17.0124214,15.899616 L23.0035448,22 L6,22 C5.44771525,22 5,21.5522847 5,21 L5,10 C5,9.44771525 5.44771525,9 6,9 L26,9 C26.5522847,9 27,9.44771525 27,10 L27,21 C27,21.3823708 26.7853924,21.7146172 26.4700561,21.8828604 Z M8.5,12 C8.22385763,12 8,12.2238576 8,12.5 C8,12.7761424 8.22385763,13 8.5,13 L13.5,13 C13.7761424,13 14,12.7761424 14,12.5 C14,12.2238576 13.7761424,12 13.5,12 L8.5,12 Z M8.5,16 C8.22385763,16 8,16.2238576 8,16.5 C8,16.7761424 8.22385763,17 8.5,17 L15.5,17 C15.7761424,17 16,16.7761424 16,16.5 C16,16.2238576 15.7761424,16 15.5,16 L8.5,16 Z M8.5,18 C8.22385763,18 8,18.2238576 8,18.5 C8,18.7761424 8.22385763,19 8.5,19 L16.5,19 C16.7761424,19 17,18.7761424 17,18.5 C17,18.2238576 16.7761424,18 16.5,18 L8.5,18 Z" id="Combined-Shape" fill="url(#linearGradient-1)" fill-rule="nonzero"></path>
    </g>
</svg>