<?xml version="1.0" encoding="UTF-8"?>
<svg width="32px" height="32px" viewBox="0 0 32 32" version="1.1" xmlns="http://www.w3.org/2000/svg" xmlns:xlink="http://www.w3.org/1999/xlink">
    <!-- Generator: Sketch 52.6 (67491) - http://www.bohemiancoding.com/sketch -->
    <title>icon/学校通知@3x</title>
    <desc>Created with Sketch.</desc>
    <defs>
        <linearGradient x1="50%" y1="96.0784314%" x2="50%" y2="2.77466388%" id="linearGradient-1">
            <stop stop-color="#4BE29A" offset="0%"></stop>
            <stop stop-color="#51DCD0" offset="100%"></stop>
        </linearGradient>
        <linearGradient x1="100%" y1="95%" x2="0%" y2="0%" id="linearGradient-2">
            <stop stop-color="#4CE19D" offset="0%"></stop>
            <stop stop-color="#50DCCE" offset="100%"></stop>
        </linearGradient>
    </defs>
    <g id="icon/学校通知" stroke="none" stroke-width="1" fill="none" fill-rule="evenodd">
        <path d="M6,12.96875 L11.5,12.96875 L11,17 L6.16439899,17.8059335 C5.61962867,17.8967286 5.10440113,17.5287089 5.01360608,16.9839386 C5.00455084,16.9296071 5,16.8746204 5,16.8195396 L5,13.96875 C5,13.4164653 5.44771525,12.96875 6,12.96875 Z" id="Rectangle" fill="url(#linearGradient-1)" fill-rule="nonzero" opacity="0.3"></path>
        <path d="M21,13 L27,13 L26.5,17.03125 L21.1474103,17.8289917 C20.601159,17.9104042 20.092337,17.5335779 20.0109246,16.9873266 C20.0036515,16.9385266 20,16.8892553 20,16.8399163 L20,14 C20,13.4477153 20.4477153,13 21,13 Z" id="Rectangle" fill="url(#linearGradient-1)" fill-rule="nonzero" opacity="0.3" transform="translate(23.500000, 15.420026) scale(-1, 1) translate(-23.500000, -15.420026) "></path>
        <path d="M12,4 L20,4 C20.5522847,4 21,4.44771525 21,5 L21,8 L11,8 L11,5 C11,4.44771525 11.4477153,4 12,4 Z" id="Rectangle" fill="url(#linearGradient-1)" fill-rule="nonzero" opacity="0.3"></path>
        <path d="M11,15 L11,7 C11,6.44771525 11.4477153,6 12,6 L20,6 C20.5522847,6 21,6.44771525 21,7 L21,15 L26,15 C26.5522847,15 27,15.4477153 27,16 L27,28 L21,28 L18,28 L18,25 C18,24.4477153 17.5522847,24 17,24 L15,24 C14.4477153,24 14,24.4477153 14,25 L14,28 L11,28 L5,28 L5,16 C5,15.4477153 5.44771525,15 6,15 L11,15 Z M6,18 L6,19 L10,19 L10,18 L6,18 Z M6,20 L6,21 L10,21 L10,20 L6,20 Z M6,22 L6,23 L10,23 L10,22 L6,22 Z M22,18 L22,19 L26,19 L26,18 L22,18 Z M22,20 L22,21 L26,21 L26,20 L22,20 Z M22,22 L22,23 L26,23 L26,22 L22,22 Z M16,14 C17.6568542,14 19,12.6568542 19,11 C19,9.34314575 17.6568542,8 16,8 C14.3431458,8 13,9.34314575 13,11 C13,12.6568542 14.3431458,14 16,14 Z M15.5,16 C15.2238576,16 15,16.2238576 15,16.5 C15,16.7761424 15.2238576,17 15.5,17 L16.5,17 C16.7761424,17 17,16.7761424 17,16.5 C17,16.2238576 16.7761424,16 16.5,16 L15.5,16 Z M15.5,18 C15.2238576,18 15,18.2238576 15,18.5 C15,18.7761424 15.2238576,19 15.5,19 L16.5,19 C16.7761424,19 17,18.7761424 17,18.5 C17,18.2238576 16.7761424,18 16.5,18 L15.5,18 Z M18.5,16 C18.2238576,16 18,16.2238576 18,16.5 C18,16.7761424 18.2238576,17 18.5,17 L19.5,17 C19.7761424,17 20,16.7761424 20,16.5 C20,16.2238576 19.7761424,16 19.5,16 L18.5,16 Z M18.5,18 C18.2238576,18 18,18.2238576 18,18.5 C18,18.7761424 18.2238576,19 18.5,19 L19.5,19 C19.7761424,19 20,18.7761424 20,18.5 C20,18.2238576 19.7761424,18 19.5,18 L18.5,18 Z M12.5,16 C12.2238576,16 12,16.2238576 12,16.5 C12,16.7761424 12.2238576,17 12.5,17 L13.5,17 C13.7761424,17 14,16.7761424 14,16.5 C14,16.2238576 13.7761424,16 13.5,16 L12.5,16 Z M12.5,18 C12.2238576,18 12,18.2238576 12,18.5 C12,18.7761424 12.2238576,19 12.5,19 L13.5,19 C13.7761424,19 14,18.7761424 14,18.5 C14,18.2238576 13.7761424,18 13.5,18 L12.5,18 Z" id="Combined-Shape" fill="url(#linearGradient-1)" fill-rule="nonzero"></path>
        <polyline id="Path-20" stroke="url(#linearGradient-2)" stroke-linecap="round" stroke-linejoin="round" fill-rule="nonzero" points="16 9.03125 16 10.9375 15 11.9375"></polyline>
    </g>
</svg>