<?xml version="1.0" encoding="UTF-8"?>
<svg width="98px" height="83px" viewBox="0 0 98 83" version="1.1" xmlns="http://www.w3.org/2000/svg" xmlns:xlink="http://www.w3.org/1999/xlink">
    <!-- Generator: Sketch 52.6 (67491) - http://www.bohemiancoding.com/sketch -->
    <title>Shape@3x</title>
    <desc>Created with Sketch.</desc>
    <g id="定位学生卡家长端" stroke="none" stroke-width="1" fill="none" fill-rule="evenodd" opacity="0.216643415">
        <g id="安全守护-未设置其他位置" transform="translate(-138.000000, -572.000000)" fill="#C5C6C5" fill-rule="nonzero">
            <g id="空" transform="translate(138.000000, 572.000000)">
                <path d="M83.8548819,25.9913306 L14.156041,25.9913306 L0,51.3503218 L0,83 L98,83 L98,51.3503218 L83.8548819,25.9913306 Z M61.4520731,51.6337843 C61.4520731,58.4913963 55.8814088,64.0516222 49,64.0516222 C42.1185912,64.0516222 36.5479269,58.4913963 36.5479269,51.6337843 L5.84373607,51.6337843 L17.1816763,30.0470248 L80.8074008,30.0470248 L92.1453411,51.6337843 L61.4520731,51.6337843 Z M47.8640214,0 L52.134864,0 L52.134864,15.3287797 L47.8640214,15.3287797 L47.8640214,0 Z M18.8807289,7.61009589 L21.9005751,4.59590831 L32.7599844,15.4348601 L29.740029,18.4491567 L18.8807289,7.61009589 Z M65.9246612,15.4418376 L76.7839612,4.60277683 L79.8039166,7.61707343 L68.9446166,18.4560252 L65.9246612,15.4418376 Z" id="Shape"></path>
            </g>
        </g>
    </g>
</svg>