<?xml version="1.0" encoding="UTF-8"?>
<svg width="27px" height="27px" viewBox="0 0 27 27" version="1.1" xmlns="http://www.w3.org/2000/svg" xmlns:xlink="http://www.w3.org/1999/xlink">
    <!-- Generator: Sketch 53 (72520) - https://sketchapp.com -->
    <title>Combined Shape@3x</title>
    <desc>Created with Sketch.</desc>
    <g id="Page-1" stroke="none" stroke-width="1" fill="none" fill-rule="evenodd">
        <g id="选择围栏范围" transform="translate(-320.000000, -525.000000)" fill="#4B4B4B" fill-rule="nonzero">
            <g id="Combined-Shape" transform="translate(320.000000, 525.000000)">
                <path d="M13.5,24 C7.70101013,24 3,19.2989899 3,13.5 C3,7.70101013 7.70101013,3 13.5,3 C19.2989899,3 24,7.70101013 24,13.5 C24,19.2989899 19.2989899,24 13.5,24 Z M13.5,22 C18.1944204,22 22,18.1944204 22,13.5 C22,8.80557963 18.1944204,5 13.5,5 C8.80557963,5 5,8.80557963 5,13.5 C5,18.1944204 8.80557963,22 13.5,22 Z"></path>
                <rect id="Rectangle" transform="translate(24.500000, 13.500000) rotate(-270.000000) translate(-24.500000, -13.500000) " x="23" y="11" width="3" height="5" rx="1.5"></rect>
                <rect id="Rectangle" transform="translate(2.500000, 13.500000) rotate(-270.000000) translate(-2.500000, -13.500000) " x="1" y="11" width="3" height="5" rx="1.5"></rect>
                <rect id="Rectangle" transform="translate(13.500000, 2.500000) rotate(-360.000000) translate(-13.500000, -2.500000) " x="12" y="0" width="3" height="5" rx="1.5"></rect>
                <rect id="Rectangle" transform="translate(13.500000, 24.500000) rotate(-360.000000) translate(-13.500000, -24.500000) " x="12" y="22" width="3" height="5" rx="1.5"></rect>
                <circle id="Oval" cx="13.5" cy="13.5" r="3.5"></circle>
            </g>
        </g>
    </g>
</svg>