<?xml version="1.0" encoding="UTF-8"?>
<svg width="41px" height="41px" viewBox="0 0 41 41" version="1.1" xmlns="http://www.w3.org/2000/svg" xmlns:xlink="http://www.w3.org/1999/xlink">
    <!-- Generator: Sketch 53.1 (72631) - https://sketchapp.com -->
    <title>Combined Shape@3x</title>
    <desc>Created with Sketch.</desc>
    <g id="Combined-Shape" stroke="none" stroke-width="1" fill="none" fill-rule="evenodd">
        <path d="M23.5346909,18.9954107 C23.7157345,18.9179077 23.9151123,18.875 24.1245117,18.875 L37.1245117,18.875 C37.9529388,18.875 38.6245117,19.5465729 38.6245117,20.375 C38.6245117,21.2034271 37.9529388,21.875 37.1245117,21.875 L24.1245117,21.875 C23.9151123,21.875 23.7157345,21.8320923 23.5346909,21.7545893 C22.8591889,26.9016026 18.4558686,30.875 13.1245117,30.875 C7.32552185,30.875 2.62451172,26.1739899 2.62451172,20.375 C2.62451172,14.5760101 7.32552185,9.875 13.1245117,9.875 C18.4558686,9.875 22.8591889,13.8483974 23.5346909,18.9954107 Z M13.1245117,28.875 C17.8189321,28.875 21.6245117,25.0694204 21.6245117,20.375 C21.6245117,15.6805796 17.8189321,11.875 13.1245117,11.875 C8.43009135,11.875 4.62451172,15.6805796 4.62451172,20.375 C4.62451172,25.0694204 8.43009135,28.875 13.1245117,28.875 Z" fill="#D9D9D9" fill-rule="nonzero" transform="translate(20.624512, 20.375000) rotate(-315.000000) translate(-20.624512, -20.375000) "></path>
    </g>
</svg>