<?xml version="1.0" encoding="UTF-8"?>
<svg width="32px" height="32px" viewBox="0 0 32 32" version="1.1" xmlns="http://www.w3.org/2000/svg" xmlns:xlink="http://www.w3.org/1999/xlink">
    <!-- Generator: Sketch 52.6 (67491) - http://www.bohemiancoding.com/sketch -->
    <title>icon/省电模式@3x</title>
    <desc>Created with Sketch.</desc>
    <defs>
        <linearGradient x1="100%" y1="95%" x2="0%" y2="0%" id="linearGradient-1">
            <stop stop-color="#4CE19D" offset="0%"></stop>
            <stop stop-color="#50DCCE" offset="100%"></stop>
        </linearGradient>
        <linearGradient x1="50%" y1="96.0784314%" x2="50%" y2="2.77466388%" id="linearGradient-2">
            <stop stop-color="#4BE29A" offset="0%"></stop>
            <stop stop-color="#51DCD0" offset="100%"></stop>
        </linearGradient>
    </defs>
    <g id="icon/省电模式" stroke="none" stroke-width="1" fill="none" fill-rule="evenodd">
        <path d="M16,27 C9.92486775,27 5,22.0751322 5,16 C5,9.92486775 9.92486775,5 16,5 C22.0751322,5 27,9.92486775 27,16 C27,22.0751322 22.0751322,27 16,27 Z M15,11 L14,11 C13.4477153,11 13,11.4477153 13,12 L13,21 C13,21.5522847 13.4477153,22 14,22 L18,22 C18.5522847,22 19,21.5522847 19,21 L19,12 C19,11.4477153 18.5522847,11 18,11 L17,11 L17,10 L15,10 L15,11 Z M14.5,13 L17.5,13 C17.7761424,13 18,13.2238576 18,13.5 C18,13.7761424 17.7761424,14 17.5,14 L14.5,14 C14.2238576,14 14,13.7761424 14,13.5 C14,13.2238576 14.2238576,13 14.5,13 Z M14.5,15 L17.5,15 C17.7761424,15 18,15.2238576 18,15.5 C18,15.7761424 17.7761424,16 17.5,16 L14.5,16 C14.2238576,16 14,15.7761424 14,15.5 C14,15.2238576 14.2238576,15 14.5,15 Z M14.5,17 L17.5,17 C17.7761424,17 18,17.2238576 18,17.5 C18,17.7761424 17.7761424,18 17.5,18 L14.5,18 C14.2238576,18 14,17.7761424 14,17.5 C14,17.2238576 14.2238576,17 14.5,17 Z M14.5,19 L17.5,19 C17.7761424,19 18,19.2238576 18,19.5 C18,19.7761424 17.7761424,20 17.5,20 L14.5,20 C14.2238576,20 14,19.7761424 14,19.5 C14,19.2238576 14.2238576,19 14.5,19 Z" id="Combined-Shape" fill="url(#linearGradient-1)" fill-rule="nonzero"></path>
        <path d="M5.01067926,16.4891044 C5.26656623,22.3372768 10.0887644,27 16,27 C22.0751322,27 27,22.0751322 27,16 C27,10.0887644 22.3372768,5.26656623 16.4891044,5.01067926 C16.6585187,5.0035834 16.8288409,5 17,5 C23.627417,5 29,10.372583 29,17 C29,23.627417 23.627417,29 17,29 C10.372583,29 5,23.627417 5,17 C5,16.8288409 5.0035834,16.6585187 5.01067926,16.4891044 Z" id="Combined-Shape-Copy" fill="url(#linearGradient-2)" fill-rule="nonzero" opacity="0.3"></path>
    </g>
</svg>