<?xml version="1.0" encoding="UTF-8"?>
<svg width="32px" height="32px" viewBox="0 0 32 32" version="1.1" xmlns="http://www.w3.org/2000/svg" xmlns:xlink="http://www.w3.org/1999/xlink">
    <!-- Generator: Sketch 52.6 (67491) - http://www.bohemiancoding.com/sketch -->
    <title>icon/性能模式@3x</title>
    <desc>Created with Sketch.</desc>
    <defs>
        <linearGradient x1="50%" y1="96.0784314%" x2="50%" y2="2.77466388%" id="linearGradient-1">
            <stop stop-color="#4BE29A" offset="0%"></stop>
            <stop stop-color="#51DCD0" offset="100%"></stop>
        </linearGradient>
        <linearGradient x1="100%" y1="95%" x2="0%" y2="0%" id="linearGradient-2">
            <stop stop-color="#4CE19D" offset="0%"></stop>
            <stop stop-color="#50DCCE" offset="100%"></stop>
        </linearGradient>
    </defs>
    <g id="icon/性能模式" stroke="none" stroke-width="1" fill="none" fill-rule="evenodd">
        <path d="M5.01067926,16.4891044 C5.26656623,22.3372768 10.0887644,27 16,27 C22.0751322,27 27,22.0751322 27,16 C27,10.0887644 22.3372768,5.26656623 16.4891044,5.01067926 C16.6585187,5.0035834 16.8288409,5 17,5 C23.627417,5 29,10.372583 29,17 C29,23.627417 23.627417,29 17,29 C10.372583,29 5,23.627417 5,17 C5,16.8288409 5.0035834,16.6585187 5.01067926,16.4891044 Z" id="Combined-Shape" fill="url(#linearGradient-1)" fill-rule="nonzero" opacity="0.3"></path>
        <path d="M16,27 C9.92486775,27 5,22.0751322 5,16 C5,9.92486775 9.92486775,5 16,5 C22.0751322,5 27,9.92486775 27,16 C27,22.0751322 22.0751322,27 16,27 Z M18.8880715,15.1853563 C18.5330981,13.9243624 17.3744972,13 16,13 C14.3431458,13 13,14.3431458 13,16 C13,17.6568542 14.3431458,19 16,19 C17.4015154,19 18.5785633,18.0389405 18.9080684,16.7398969 L22.093689,15.8428571 L18.8880715,15.1853563 Z M11.5,21 C11.2238576,21 11,21.2238576 11,21.5 C11,21.7761424 11.2238576,22 11.5,22 L20.5,22 C20.7761424,22 21,21.7761424 21,21.5 C21,21.2238576 20.7761424,21 20.5,21 L11.5,21 Z M23.4281089,20.1345654 C23.6007775,19.8249718 23.7539707,19.5047974 23.8866552,19.1758365 L22.9592519,18.8017736 C22.84223,19.0919026 22.7070972,19.3743308 22.5547579,19.647474 L23.4281089,20.1345654 Z M24.2436514,18.0809283 C24.330128,17.7378415 24.395116,17.3889448 24.4380467,17.0358688 L23.4453579,16.9151672 C23.4075031,17.2264972 23.3502108,17.534078 23.2739794,17.8365183 L24.2436514,18.0809283 Z M24.4998832,16.0820371 C24.5013819,15.9100606 24.4977122,15.7376083 24.4888434,15.5648367 C24.4788945,15.374901 24.4637436,15.1939609 24.4427542,15.0130582 L23.449418,15.1283109 C23.4679653,15.2881657 23.4813587,15.4481169 23.4901854,15.6166243 C23.4980016,15.768894 23.5012456,15.9213442 23.4999212,16.0733227 L24.4998832,16.0820371 Z M24.2543893,13.965658 C24.1696363,13.6202849 24.0634492,13.2816189 23.9365906,12.9512354 L23.0030444,13.3096926 C23.1148709,13.6009272 23.2084784,13.8994725 23.2832037,14.2039824 L24.2543893,13.965658 Z M23.4811136,11.9612271 C23.3123939,11.6492182 23.1242785,11.3482217 22.917996,11.0599138 L22.1047274,11.6418022 C22.2867306,11.8961766 22.4526758,12.1616992 22.6014851,12.4368885 L23.4811136,11.9612271 Z M22.2493253,10.2384922 C22.008995,9.97810084 21.7526351,9.73285313 21.4818589,9.50426821 L20.8367943,10.2683962 C21.075898,10.4702438 21.3022718,10.6868052 21.5144783,10.9167252 L22.2493253,10.2384922 Z M20.5920759,8.84686357 C20.2939733,8.65517149 19.9841554,8.48222221 19.6644137,8.32915937 L19.2326301,9.23113662 C19.5147262,9.36617821 19.7881157,9.51879212 20.0512091,9.68797186 L20.5920759,8.84686357 Z M18.6033797,7.90662683 C18.2663486,7.7981545 17.9223542,7.71083733 17.5730897,7.64535342 L17.3888098,8.62822723 C17.6966934,8.6859526 17.9999131,8.76291981 18.2970099,8.8585394 L18.6033797,7.90662683 Z M16.607867,7.52133198 C16.2651693,7.49717131 15.9197804,7.49367806 15.5729986,7.51113587 C15.5421683,7.51273956 15.5421683,7.51273956 15.5281611,7.51350946 L15.5836096,8.51197101 C15.5950324,8.51134194 15.5950324,8.51134194 15.6239641,8.50983605 C15.9298458,8.49443772 16.2349597,8.49752363 16.5375401,8.51885598 L16.607867,7.52133198 Z M14.4737201,7.63767037 C14.1236089,7.70114105 13.7792062,7.78627008 13.4420281,7.89240238 L13.7422718,8.8462649 C14.0395555,8.75269002 14.3432588,8.67762102 14.6520998,8.62163211 L14.4737201,7.63767037 Z M12.4340683,8.28222808 C12.1119181,8.4311823 11.7997152,8.60018487 11.4991349,8.78812012 L12.0292811,9.6360264 C12.2943918,9.47026815 12.5697061,9.32123421 12.8537523,9.18989837 L12.4340683,8.28222808 Z M10.5801898,9.45181732 C10.307319,9.67799293 10.0487447,9.92101115 9.80604117,10.1793268 L10.5348281,10.8640673 C10.7491337,10.6359764 10.9774411,10.4214041 11.2183459,10.2217243 L10.5801898,9.45181732 Z M9.14755516,10.9706974 C8.93766408,11.2563247 8.74572832,11.5547822 8.5729977,11.8642963 L9.44622111,12.3516164 C9.59866582,12.0784524 9.76808716,11.8150045 9.9533798,11.5628517 L9.14755516,10.9706974 Z M8.08851662,12.8872901 C7.95859777,13.2169058 7.84939955,13.554654 7.76171369,13.8987921 L8.73075222,14.1457016 C8.80804805,13.8423409 8.90431229,13.5445973 9.01885736,13.2539863 L8.08851662,12.8872901 Z M7.57416731,14.8692151 C7.5275674,15.2191397 7.50273316,15.5729004 7.50005483,15.9290084 L8.50002655,15.9365293 C8.50239141,15.6221006 8.52430702,15.3099153 8.56541624,15.001221 L7.57416731,14.8692151 Z M7.56043349,17.0146689 C7.60258543,17.3681992 7.66651301,17.7169811 7.75166243,18.0595673 L8.72213539,17.8183573 C8.64702413,17.5161582 8.59061462,17.2083941 8.55340032,16.896276 L7.56043349,17.0146689 Z M8.07612463,19.0824266 C8.20477008,19.4133289 8.35400599,19.7353489 8.52283253,20.04683 L9.40199725,19.570312 C9.25313848,19.295671 9.12157173,19.0117773 9.00816619,18.7200752 L8.07612463,19.0824266 Z" id="Combined-Shape" fill="url(#linearGradient-2)" fill-rule="nonzero"></path>
    </g>
</svg>