<?xml version="1.0" encoding="UTF-8"?>
<svg width="32px" height="32px" viewBox="0 0 32 32" version="1.1" xmlns="http://www.w3.org/2000/svg" xmlns:xlink="http://www.w3.org/1999/xlink">
    <!-- Generator: Sketch 52.6 (67491) - http://www.bohemiancoding.com/sketch -->
    <title>icon/普通模式@3x</title>
    <desc>Created with Sketch.</desc>
    <defs>
        <linearGradient x1="50%" y1="96.0784314%" x2="50%" y2="2.77466388%" id="linearGradient-1">
            <stop stop-color="#4BE29A" offset="0%"></stop>
            <stop stop-color="#51DCD0" offset="100%"></stop>
        </linearGradient>
        <linearGradient x1="100%" y1="95%" x2="0%" y2="0%" id="linearGradient-2">
            <stop stop-color="#4CE19D" offset="0%"></stop>
            <stop stop-color="#50DCCE" offset="100%"></stop>
        </linearGradient>
    </defs>
    <g id="icon/普通模式" stroke="none" stroke-width="1" fill="none" fill-rule="evenodd">
        <path d="M4.01067926,16.4891044 C4.26656623,22.3372768 9.08876444,27 15,27 C21.0751322,27 26,22.0751322 26,16 C26,10.0887644 21.3372768,5.26656623 15.4891044,5.01067926 C15.6585187,5.0035834 15.8288409,5 16,5 C22.627417,5 28,10.372583 28,17 C28,23.627417 22.627417,29 16,29 C9.372583,29 4,23.627417 4,17 C4,16.8288409 4.0035834,16.6585187 4.01067926,16.4891044 Z" id="Combined-Shape-Copy" fill="url(#linearGradient-1)" fill-rule="nonzero" opacity="0.3"></path>
        <path d="M15,27 C8.92486775,27 4,22.0751322 4,16 C4,9.92486775 8.92486775,5 15,5 C21.0751322,5 26,9.92486775 26,16 C26,22.0751322 21.0751322,27 15,27 Z M14.1853563,13.1119285 C12.9243624,13.4669019 12,14.6255028 12,16 C12,17.6568542 13.3431458,19 15,19 C16.6568542,19 18,17.6568542 18,16 C18,14.5984846 17.0389405,13.4214367 15.7398969,13.0919316 L14.8428571,9.90631104 L14.1853563,13.1119285 Z M12.5,21 C12.2238576,21 12,21.2238576 12,21.5 C12,21.7761424 12.2238576,22 12.5,22 L17.5,22 C17.7761424,22 18,21.7761424 18,21.5 C18,21.2238576 17.7761424,21 17.5,21 L12.5,21 Z M15.607867,7.52133198 C15.2651693,7.49717131 14.9197804,7.49367806 14.5729986,7.51113587 C14.5421683,7.51273956 14.5421683,7.51273956 14.5281611,7.51350946 L14.5836096,8.51197101 C14.5950324,8.51134194 14.5950324,8.51134194 14.6239641,8.50983605 C14.9298458,8.49443772 15.2349597,8.49752363 15.5375401,8.51885598 L15.607867,7.52133198 Z M13.4737201,7.63767037 C13.1236089,7.70114105 12.7792062,7.78627008 12.4420281,7.89240238 L12.7422718,8.8462649 C13.0395555,8.75269002 13.3432588,8.67762102 13.6520998,8.62163211 L13.4737201,7.63767037 Z M11.4340683,8.28222808 C11.1119181,8.4311823 10.7997152,8.60018487 10.4991349,8.78812012 L11.0292811,9.6360264 C11.2943918,9.47026815 11.5697061,9.32123421 11.8537523,9.18989837 L11.4340683,8.28222808 Z M9.58018978,9.45181732 C9.30731896,9.67799293 9.04874473,9.92101115 8.80604117,10.1793268 L9.53482807,10.8640673 C9.74913366,10.6359764 9.97744115,10.4214041 10.2183459,10.2217243 L9.58018978,9.45181732 Z M8.14755516,10.9706974 C7.93766408,11.2563247 7.74572832,11.5547822 7.5729977,11.8642963 L8.44622111,12.3516164 C8.59866582,12.0784524 8.76808716,11.8150045 8.9533798,11.5628517 L8.14755516,10.9706974 Z M7.08851662,12.8872901 C6.95859777,13.2169058 6.84939955,13.554654 6.76171369,13.8987921 L7.73075222,14.1457016 C7.80804805,13.8423409 7.90431229,13.5445973 8.01885736,13.2539863 L7.08851662,12.8872901 Z M6.57416731,14.8692151 C6.5275674,15.2191397 6.50273316,15.5729004 6.50005483,15.9290084 L7.50002655,15.9365293 C7.50239141,15.6221006 7.52430702,15.3099153 7.56541624,15.001221 L6.57416731,14.8692151 Z M6.56043349,17.0146689 C6.60258543,17.3681992 6.66651301,17.7169811 6.75166243,18.0595673 L7.72213539,17.8183573 C7.64702413,17.5161582 7.59061462,17.2083941 7.55340032,16.896276 L6.56043349,17.0146689 Z M7.07612463,19.0824266 C7.20477008,19.4133289 7.35400599,19.7353489 7.52283253,20.04683 L8.40199725,19.570312 C8.25313848,19.295671 8.12157173,19.0117773 8.00816619,18.7200752 L7.07612463,19.0824266 Z" id="Combined-Shape-Copy-2" fill="url(#linearGradient-2)" fill-rule="nonzero"></path>
    </g>
</svg>