<?xml version="1.0" encoding="UTF-8"?>
<svg width="21px" height="21px" viewBox="0 0 21 21" version="1.1" xmlns="http://www.w3.org/2000/svg" xmlns:xlink="http://www.w3.org/1999/xlink">
    <!-- Generator: Sketch 53 (72520) - https://sketchapp.com -->
    <title>Combined Shape@3x</title>
    <desc>Created with Sketch.</desc>
    <g id="Page-1" stroke="none" stroke-width="1" fill="none" fill-rule="evenodd">
        <g id="更多功能" transform="translate(-19.000000, -58.000000)" fill="#FFFFFF" fill-rule="nonzero">
            <path d="M29.5,79 C23.7010101,79 19,74.2989899 19,68.5 C19,62.7010101 23.7010101,58 29.5,58 C35.2989899,58 40,62.7010101 40,68.5 C40,74.2989899 35.2989899,79 29.5,79 Z M29.5,78 C34.7467051,78 39,73.7467051 39,68.5 C39,63.2532949 34.7467051,59 29.5,59 C24.2532949,59 20,63.2532949 20,68.5 C20,73.7467051 24.2532949,78 29.5,78 Z M29,68 L29,64 C29,63.7238576 29.2238576,63.5 29.5,63.5 C29.7761424,63.5 30,63.7238576 30,64 L30,68 L34,68 C34.2761424,68 34.5,68.2238576 34.5,68.5 C34.5,68.7761424 34.2761424,69 34,69 L30,69 L30,73 C30,73.2761424 29.7761424,73.5 29.5,73.5 C29.2238576,73.5 29,73.2761424 29,73 L29,69 L25,69 C24.7238576,69 24.5,68.7761424 24.5,68.5 C24.5,68.2238576 24.7238576,68 25,68 L29,68 Z" id="Combined-Shape"></path>
        </g>
    </g>
</svg>