<?xml version="1.0" encoding="UTF-8"?>
<svg width="40px" height="40px" viewBox="0 0 40 40" version="1.1" xmlns="http://www.w3.org/2000/svg" xmlns:xlink="http://www.w3.org/1999/xlink">
    <!-- Generator: Sketch 52.6 (67491) - http://www.bohemiancoding.com/sketch -->
    <title>小明@3x</title>
    <desc>Created with Sketch.</desc>
    <g id="小明" stroke="none" stroke-width="1" fill="none" fill-rule="evenodd">
        <g id="Oval-+-Combined-Shape-+-Rectangle-+-Rectangle-+-Path-26-+-Path-27-+-Path-28-+-Path-28-Mask" fill-rule="nonzero">
            <ellipse id="Oval" fill="#49AEEE" cx="20" cy="37.5" rx="14" ry="8.5"></ellipse>
            <path d="M23,28.4878829 L23,29 C23,30.6568542 21.6568542,32 20,32 C18.3431458,32 17,30.6568542 17,29 L17,28.4878829 C13.7748316,27.3479494 11.3934024,24.4218757 11.0442601,20.8982094 C10.8755341,20.9639346 10.6919788,21 10.5,21 C9.67157288,21 9,20.3284271 9,19.5 L9,17.5 C9,16.6715729 9.67157288,16 10.5,16 C10.7475755,16 10.9811421,16.0599791 11.1869617,16.1661991 C12.0338607,12.0750187 15.6578258,9 20,9 C24.3421742,9 27.9661393,12.0750187 28.8130383,16.1661991 C29.0188579,16.0599791 29.2524245,16 29.5,16 C30.3284271,16 31,16.6715729 31,17.5 L31,19.5 C31,20.3284271 30.3284271,21 29.5,21 C29.3080212,21 29.1244659,20.9639346 28.9557399,20.8982094 C28.6065976,24.4218757 26.2251684,27.3479494 23,28.4878829 Z" id="Combined-Shape" fill="#FFEBEB"></path>
            <rect id="Rectangle" fill="#585252" x="16" y="18" width="1" height="2" rx="0.5"></rect>
            <rect id="Rectangle" fill="#585252" x="23" y="18" width="1" height="2" rx="0.5"></rect>
            <path d="M19.75,18 C19.75,20.0833333 19.5833333,21.4166667 19.25,22" id="Path-26" stroke="#FFC7C7" stroke-linecap="round"></path>
            <path d="M12.7852484,15 L18,15 C18.2739909,14.6564638 18.2739909,13.9897971 18,13 C17.4109864,12.4610317 19.9109864,15.4610317 20,15 C20.569196,15.2880585 22.9472769,15.3061431 27.1342427,15.0542536 L27.1342435,15.0542654 C27.6311964,15.0243685 28.074452,15.3645861 28.1740624,15.8523707 L28.9109864,19.4610317 C28.9526531,19.4070864 29.3156576,17.2534091 30,13 C30.5984864,7.33603173 24.9425518,3.20088855 20,3.20088855 C14.9386455,3.20088855 7.44059865,6.82588855 9,13 C10.4209161,17.5935046 11.0579116,19.7471818 10.9109864,19.4610317 L11.8137761,15.7628471 C11.9230883,15.3150608 12.3243127,15 12.7852484,15 Z" id="Path-27" fill="#545253"></path>
            <path d="M15,16.7677426 C16,16.0717721 17,16.0542166 18,16.715076" id="Path-28" stroke="#545253" stroke-linecap="round"></path>
            <path d="M22,16.7677426 C23,16.0717721 24,16.0542166 25,16.715076" id="Path-28" stroke="#545253" stroke-linecap="round"></path>
            <polyline id="Path-29" stroke="#E9F7FF" stroke-linecap="round" stroke-linejoin="round" points="16 29.375 20 38.8125 24 29.375"></polyline>
            <ellipse id="Oval" fill="#FFE0E0" cx="14.5" cy="21.5" rx="1.5" ry="1"></ellipse>
            <ellipse id="Oval" fill="#FFE0E0" cx="25.5" cy="21.5" rx="1.5" ry="1"></ellipse>
        </g>
    </g>
</svg>