<?xml version="1.0" encoding="UTF-8"?>
<svg width="19px" height="24px" viewBox="0 0 19 24" version="1.1" xmlns="http://www.w3.org/2000/svg" xmlns:xlink="http://www.w3.org/1999/xlink">
    <!-- Generator: Sketch 52.6 (67491) - http://www.bohemiancoding.com/sketch -->
    <title>Combined Shape@3x</title>
    <desc>Created with Sketch.</desc>
    <g id="教师端" stroke="none" stroke-width="1" fill="none" fill-rule="evenodd">
        <g id="主界面2" transform="translate(-324.000000, -420.000000)" fill="#747474" fill-rule="nonzero">
            <path d="M341,440 L334.5,440 C333.671573,440 333,440.671573 333,441.5 C333,442.328427 333.671573,443 334.5,443 L341,443 C341,443.552285 340.552285,444 340,444 L325,444 C324.447715,444 324,443.552285 324,443 L324,437.5 C324,433.910149 326.910149,431 330.5,431 L334.5,431 C335.774084,431 336.962551,431.366571 337.965686,432 L334.5,432 C333.671573,432 333,432.671573 333,433.5 C333,434.328427 333.671573,435 334.5,435 L340.501837,435 C340.635743,435.321103 340.744632,435.655248 340.826068,436 L334.5,436 C333.671573,436 333,436.671573 333,437.5 C333,438.328427 333.671573,439 334.5,439 L341,439 L341,440 Z M332.5,431 C329.462434,431 327,428.537566 327,425.5 C327,422.462434 329.462434,420 332.5,420 C335.537566,420 338,422.462434 338,425.5 C338,428.537566 335.537566,431 332.5,431 Z M334.5,433 L342.5,433 C342.776142,433 343,433.223858 343,433.5 C343,433.776142 342.776142,434 342.5,434 L334.5,434 C334.223858,434 334,433.776142 334,433.5 C334,433.223858 334.223858,433 334.5,433 Z M334.5,437 L342.5,437 C342.776142,437 343,437.223858 343,437.5 C343,437.776142 342.776142,438 342.5,438 L334.5,438 C334.223858,438 334,437.776142 334,437.5 C334,437.223858 334.223858,437 334.5,437 Z M334.5,441 L342.5,441 C342.776142,441 343,441.223858 343,441.5 C343,441.776142 342.776142,442 342.5,442 L334.5,442 C334.223858,442 334,441.776142 334,441.5 C334,441.223858 334.223858,441 334.5,441 Z" id="Combined-Shape"></path>
        </g>
    </g>
</svg>