<?xml version="1.0" encoding="UTF-8"?>
<svg width="27px" height="31px" viewBox="0 0 27 31" version="1.1" xmlns="http://www.w3.org/2000/svg" xmlns:xlink="http://www.w3.org/1999/xlink">
    <!-- Generator: Sketch 52.6 (67491) - http://www.bohemiancoding.com/sketch -->
    <title>刷新@3x</title>
    <desc>Created with Sketch.</desc>
    <g id="刷新" stroke="none" stroke-width="1" fill="none" fill-rule="evenodd">
        <path d="M18.4903237,28.0476629 L19.1992702,30.5200528 L11.5057075,29.0850984 L17.2698087,23.7912209 L17.9356747,26.1133717 C22.0848168,24.3772748 25,20.2790762 25,15.5 C25,10.3691243 21.6398324,6.02305777 17,4.54230307 L17,2.45812532 C22.7591118,3.99979464 27,9.25464106 27,15.5 C27,21.1930862 23.4759868,26.0630949 18.4903237,28.0476629 Z M8.93366991,2.79181629 L8.27613709,0.337870406 L15.9434845,1.90687748 L10.0878704,7.09935119 L9.45356305,4.73208389 C5.09865968,6.36938119 2,10.5728252 2,15.5 C2,20.6308757 5.36016755,24.9769422 10,26.4576969 L10,28.5418747 C4.2408882,27.0002054 0,21.7453589 0,15.5 C0,9.64683112 3.72498155,4.6636783 8.93366991,2.79181629 Z" id="Combined-Shape" fill="#747474" fill-rule="nonzero"></path>
    </g>
</svg>