<?xml version="1.0" encoding="UTF-8"?>
<svg width="20px" height="20px" viewBox="0 0 20 20" version="1.1" xmlns="http://www.w3.org/2000/svg" xmlns:xlink="http://www.w3.org/1999/xlink">
    <!-- Generator: Sketch 52.6 (67491) - http://www.bohemiancoding.com/sketch -->
    <title>加号@3x</title>
    <desc>Created with Sketch.</desc>
    <g id="加号" stroke="none" stroke-width="1" fill="none" fill-rule="evenodd">
        <path d="M8.8,8.8 L8.8,1.2 C8.8,0.5372583 9.3372583,-4.05812251e-17 10,-4.93038066e-32 C10.6627417,4.05812251e-17 11.2,0.5372583 11.2,1.2 L11.2,8.8 L18.8,8.8 C19.4627417,8.8 20,9.3372583 20,10 C20,10.6627417 19.4627417,11.2 18.8,11.2 L11.2,11.2 L11.2,18.8 C11.2,19.4627417 10.6627417,20 10,20 C9.3372583,20 8.8,19.4627417 8.8,18.8 L8.8,11.2 L1.2,11.2 C0.5372583,11.2 8.11624501e-17,10.6627417 0,10 C-8.11624501e-17,9.3372583 0.5372583,8.8 1.2,8.8 L8.8,8.8 Z" id="Combined-Shape" fill="#747474" fill-rule="nonzero"></path>
    </g>
</svg>