<?xml version="1.0" encoding="UTF-8"?>
<svg width="22px" height="23px" viewBox="0 0 22 23" version="1.1" xmlns="http://www.w3.org/2000/svg" xmlns:xlink="http://www.w3.org/1999/xlink">
    <!-- Generator: Sketch 52.6 (67491) - http://www.bohemiancoding.com/sketch -->
    <title>位置设置@3x</title>
    <desc>Created with Sketch.</desc>
    <defs>
        <path d="M7,0.75 L7,5 C5.34314575,5 4,6.34314575 4,8 C4,9.65685425 5.34314575,11 7,11 L7,23 C4.52307692,23 0,11.3146674 0,7.55588235 C0,3.79709732 3.13400675,0.75 7,0.75 Z" id="path-1"></path>
    </defs>
    <g id="位置设置" stroke="none" stroke-width="1" fill="none" fill-rule="evenodd">
        <g id="Oval">
            <rect id="Rectangle" fill="#747474" fill-rule="nonzero" x="8" y="1" width="4" height="2" rx="1"></rect>
            <rect id="Rectangle" fill="#747474" fill-rule="nonzero" x="14" y="1" width="3" height="2" rx="1"></rect>
            <rect id="Rectangle" fill="#747474" fill-rule="nonzero" x="19" y="1" width="2" height="2" rx="1"></rect>
            <rect id="Rectangle" fill="#747474" fill-rule="nonzero" x="8" y="5" width="6" height="2" rx="1"></rect>
            <rect id="Rectangle" fill="#747474" fill-rule="nonzero" x="15" y="5" width="2" height="2" rx="1"></rect>
            <rect id="Rectangle" fill="#747474" fill-rule="nonzero" x="18" y="5" width="2" height="2" rx="1"></rect>
            <rect id="Rectangle" fill="#747474" fill-rule="nonzero" x="8" y="9" width="6" height="2" rx="1"></rect>
            <rect id="Rectangle" fill="#747474" fill-rule="nonzero" x="15" y="9" width="3" height="2" rx="1"></rect>
            <rect id="Rectangle" fill="#747474" fill-rule="nonzero" x="8" y="13" width="9" height="2" rx="1"></rect>
            <rect id="Rectangle-Copy-2" fill="#747474" fill-rule="nonzero" x="8" y="21" width="6" height="2" rx="1"></rect>
            <rect id="Rectangle" fill="#747474" fill-rule="nonzero" x="19" y="13" width="2" height="2" rx="1"></rect>
            <rect id="Rectangle" fill="#747474" fill-rule="nonzero" x="8" y="17" width="2" height="2" rx="1"></rect>
            <rect id="Rectangle" fill="#747474" fill-rule="nonzero" x="11" y="17" width="2" height="2" rx="1"></rect>
            <rect id="Rectangle" fill="#747474" fill-rule="nonzero" x="14" y="17" width="2" height="2" rx="1"></rect>
            <rect id="Rectangle" fill="#747474" fill-rule="nonzero" x="17" y="17" width="5" height="2" rx="1"></rect>
            <mask id="mask-2" fill="white">
                <use xlink:href="#path-1"></use>
            </mask>
            <use id="Combined-Shape" fill="#747474" fill-rule="nonzero" xlink:href="#path-1"></use>
        </g>
    </g>
</svg>