<?xml version="1.0" encoding="UTF-8"?>
<svg width="23px" height="11px" viewBox="0 0 23 11" version="1.1" xmlns="http://www.w3.org/2000/svg" xmlns:xlink="http://www.w3.org/1999/xlink">
    <!-- Generator: Sketch 52.6 (67491) - http://www.bohemiancoding.com/sketch -->
    <title>电池6@3x</title>
    <desc>Created with Sketch.</desc>
    <defs>
        <linearGradient x1="50%" y1="96.0784314%" x2="50%" y2="2.77466388%" id="linearGradient-1">
            <stop stop-color="#4BE29A" offset="0%"></stop>
            <stop stop-color="#51DCD0" offset="100%"></stop>
        </linearGradient>
        <linearGradient x1="100%" y1="95%" x2="0%" y2="0%" id="linearGradient-2">
            <stop stop-color="#4CE19D" offset="0%"></stop>
            <stop stop-color="#50DCCE" offset="100%"></stop>
        </linearGradient>
    </defs>
    <g id="电池6" stroke="none" stroke-width="1" fill="none" fill-rule="evenodd">
        <g fill-rule="nonzero" id="Rectangle">
            <rect stroke="url(#linearGradient-2)" x="2.5" y="0.5" width="20" height="10" rx="1"></rect>
            <rect fill="url(#linearGradient-1)" x="4" y="2" width="2" height="7" rx="1" class="power power1"></rect>
            <rect fill="url(#linearGradient-1)" x="7" y="2" width="2" height="7" rx="1" class="power power2"></rect>
            <rect fill="url(#linearGradient-1)" x="10" y="2" width="2" height="7" rx="1" class="power power3"></rect>
            <rect fill="url(#linearGradient-1)" x="13" y="2" width="2" height="7" rx="1" class="power power4"></rect>
            <rect fill="url(#linearGradient-1)" x="16" y="2" width="2" height="7" rx="1" class="power power5"></rect>
            <rect fill="url(#linearGradient-1)" x="19" y="2" width="2" height="7" rx="1" class="power power6"></rect>
            <path d="M1,3 L2,3 L2,8 L1,8 C0.44771525,8 6.76353751e-17,7.55228475 0,7 L0,4 C-6.76353751e-17,3.44771525 0.44771525,3 1,3 Z" fill="url(#linearGradient-1)"></path>
        </g>
    </g>
</svg>