<?xml version="1.0" encoding="UTF-8"?>
<svg width="22px" height="21px" viewBox="0 0 22 21" version="1.1" xmlns="http://www.w3.org/2000/svg" xmlns:xlink="http://www.w3.org/1999/xlink">
    <!-- Generator: Sketch 52.6 (67491) - http://www.bohemiancoding.com/sketch -->
    <title>layer@3x</title>
    <desc>Created with Sketch.</desc>
    <g id="定位学生卡家长端" stroke="none" stroke-width="1" fill="none" fill-rule="evenodd">
        <g id="主界面2" transform="translate(-323.000000, -374.000000)" fill="#747474" fill-rule="nonzero">
            <g id="layer" transform="translate(322.000000, 368.000000)">
                <path d="M8.63050556,7.61316477 L18.385776,3.33831884 C18.8916239,3.11665178 19.4813914,3.34702592 19.7030585,3.85287388 C19.810539,4.09814636 19.8151555,4.37627954 19.7158739,4.62498384 L15.7133505,14.6514652 C15.6094728,14.911683 15.4011914,15.1163857 15.1392125,15.2157385 L5.43414646,18.8962815 C4.91774943,19.0921196 4.3403688,18.8322552 4.14453072,18.3158582 C4.05369098,18.0763268 4.05824284,17.8110676 4.15724743,17.574794 L8.10956645,8.14261555 C8.20879961,7.9057964 8.39532565,7.7162227 8.63050556,7.61316477 Z" id="Rectangle" transform="translate(11.933345, 11.107759) rotate(-315.000000) translate(-11.933345, -11.107759) "></path>
                <path d="M21.3808036,15.0784108 C21.8897832,14.8640323 22.4761809,15.1028536 22.6905595,15.6118333 C22.9049381,16.1208129 22.6661167,16.7072106 22.1571371,16.9215892 L12.0186501,21.1918472 C11.764441,21.2989183 11.4772948,21.2962306 11.2251343,21.18442 L1.59465092,16.914162 C1.0897732,16.6902939 0.861969907,16.0995286 1.08583802,15.5946509 C1.30970613,15.0897732 1.90047135,14.8619699 2.40534908,15.085838 L11.6406798,19.1808812 L21.3808036,15.0784108 Z" id="Path-20"></path>
                <path d="M21.3808036,20.0784108 C21.8897832,19.8640323 22.4761809,20.1028536 22.6905595,20.6118333 C22.9049381,21.1208129 22.6661167,21.7072106 22.1571371,21.9215892 L12.0186501,26.1918472 C11.764441,26.2989183 11.4772948,26.2962306 11.2251343,26.18442 L1.59465092,21.914162 C1.0897732,21.6902939 0.861969907,21.0995286 1.08583802,20.5946509 C1.30970613,20.0897732 1.90047135,19.8619699 2.40534908,20.085838 L11.6406798,24.1808812 L21.3808036,20.0784108 Z" id="Path-20-Copy"></path>
            </g>
        </g>
    </g>
</svg>