<?xml version="1.0" encoding="UTF-8"?>
<svg width="39px" height="36px" viewBox="0 0 39 36" version="1.1" xmlns="http://www.w3.org/2000/svg" xmlns:xlink="http://www.w3.org/1999/xlink">
    <!-- Generator: Sketch 52.6 (67491) - http://www.bohemiancoding.com/sketch -->
    <title>小明@3x</title>
    <desc>Created with Sketch.</desc>
    <g id="小明" stroke="none" stroke-width="1" fill="none" fill-rule="evenodd">
        <g transform="translate(0.000000, 1.000000)" fill-rule="nonzero">
            <path d="M4.99998812,8.99999193 L26.0667614,8.99999117 C26.4510919,8.99999132 26.8272833,9.11072753 27.1503214,9.31894932 C27.4872281,9.53611048 27.7704543,9.81521071 28,10.15625 C28.3645833,10.6979167 28.8072917,11.1822917 29.328125,11.609375 L30,13.1875 L30,28 C30,29.1045695 29.1045695,30 28,30 L4.99998812,30 C3.89541862,30 2.99998812,29.1045695 2.99998812,28 L2.99998737,10.9999912 C2.99998737,9.89542168 3.89541787,8.99999118 4.99998737,8.99999118 C4.99998762,8.99999118 4.99998787,8.99999118 4.99998812,8.99999118 Z" id="Rectangle" fill="#FFE7E7"></path>
            <circle id="Oval" fill="#4C4C4C" cx="17.5" cy="19.5" r="1.5"></circle>
            <path d="M3.90625,25.875 C1.63541667,25.0834147 0.5,23.135498 0.5,20.03125 C0.5,16.927002 1.36458333,14.8853353 3.09375,13.90625 L8.21314822,14.1354234 C17.6985759,13.0442847 20.9816932,13.7699769 18.0625,16.3125 C16.7708333,17.4375 13.4877161,18.4583333 8.21314822,19.375 L7.3125,22.5 L6.34375,23.625 L6.34375,15.78125 C5.33662912,15.78125 4.62659129,15.9583333 4.2136365,16.3125 C3.80068172,16.6666667 3.69821955,19.8541667 3.90625,25.875 Z" id="Path-2" fill="#4C4C4C"></path>
            <path d="M6,16 L6,24 C3.790861,24 2,22.209139 2,20 C2,17.790861 3.790861,16 6,16 Z" id="Combined-Shape" fill="#FDD7D7"></path>
            <circle id="Oval" fill="#4C4C4C" cx="25.5" cy="19.5" r="1.5"></circle>
            <path d="M3,14 C3,6.82029825 9.04415588,1 16.5,1 C23.9558441,1 30,6.82029825 30,14 C30,14.053185 29.9996683,14.1062954 29.9990069,14.1593293 C24.3005067,15.0531098 19.9675044,15.5 17,15.5 C13.8611111,15.5 9.19444444,15 3,14 Z" id="Combined-Shape" fill="#61B3A0"></path>
            <path d="M16.34375,1 C15.96875,0.989583333 15.7083333,0.989583333 15.5625,1 C11.3221879,3.89046887 9.44291744,8.71271091 9.56225586,14.6872559 C9.56225586,19.8278316 22.1617364,15.375 26.25,14 C26.25,7.08333333 22.9479167,2.75 16.34375,1 Z" id="Path-6" fill="#513D97"></path>
            <path d="M30,12.5625 C35.625,12.375 38.4375,13.0972222 38.4375,14.7291667 C38.4375,16.3611111 35.625,17.1944444 30,17.2291667 L30,12.5625 Z" id="Path" fill="#67A788"></path>
            <path d="M37.625,13.4375 C35.468689,13.4375 34.265625,14.390625 32.125,15.3257382 C25.6587955,18.1504426 12.9876893,20.5137104 3,14 C23.5625,15 31.46875,10.53125 37.625,13.4375 Z" id="Path-3" fill="#85CDBD"></path>
            <path d="M17.7489345,12.1576239 C17.7309168,12.4331779 17.49293,12.6419523 17.2173761,12.6239345 C16.9418221,12.6059168 16.7330477,12.36793 16.7510655,12.0923761 C17.0180145,8.00978849 17.9463647,5.875 19.7504883,5.875 C21.046204,5.875 21.9397494,6.9566804 21.7971959,8.13058724 C21.6431474,9.39915437 20.409954,10.1017582 18.6493027,9.73975509 C18.3788184,9.68414151 18.2046313,9.41978696 18.2602449,9.14930269 C18.3158585,8.87881842 18.580213,8.70463132 18.8506973,8.76024491 C20.0808745,9.01317854 20.7274034,8.64482298 20.8044886,8.01003776 C20.8765819,7.41636009 20.4293797,6.875 19.7504883,6.875 C18.7219295,6.875 17.9832875,8.57354484 17.7489345,12.1576239 Z" id="Path-4" fill="#E2E2E2"></path>
            <path d="M22.0789788,20 C21.9687831,20.9583333 22.1340766,22.0625 22.5748591,23.3125" id="Path-5" stroke="#FDD7D7" stroke-linecap="round"></path>
        </g>
        <polygon id="Rectangle" fill="#C73B3B" fill-rule="nonzero" points="6 31 27 31 27 32.7777778 18.015625 32.7777778 16.5 34 14.9995117 32.7777778 6 32.7777778"></polygon>
        <rect id="Rectangle" fill="#513D97" fill-rule="nonzero" x="15" y="1" width="2" height="1" rx="0.5"></rect>
    </g>
</svg>