<?xml version="1.0" encoding="UTF-8"?>
<svg width="136px" height="196px" viewBox="0 0 136 196" version="1.1" xmlns="http://www.w3.org/2000/svg" xmlns:xlink="http://www.w3.org/1999/xlink">
    <!-- Generator: Sketch 52.6 (67491) - http://www.bohemiancoding.com/sketch -->
    <title>Combined Shape@3x</title>
    <desc>Created with Sketch.</desc>
    <defs>
        <linearGradient x1="2.0979021%" y1="9.29095355%" x2="93.3566434%" y2="72.8606357%" id="linearGradient-1">
            <stop stop-color="#4CE19D" offset="0%"></stop>
            <stop stop-color="#50DCCE" offset="100%"></stop>
        </linearGradient>
    </defs>
    <g id="Page-1" stroke="none" stroke-width="1" fill="none" fill-rule="evenodd" opacity="0.312476749">
        <g id="绑定学生证" transform="translate(-129.000000, -112.000000)" fill="url(#linearGradient-1)" fill-rule="nonzero">
            <g id="Combined-Shape" transform="translate(129.000000, 112.000000)">
                <path d="M117.866667,138.109705 L117.042424,138.109705 L117.042424,35.9746835 C117.042424,35.2895708 116.488885,34.7341772 115.806061,34.7341772 L70.4727273,34.7341772 L70.4727273,33.907173 L115.806061,33.907173 C116.944102,33.907173 117.866667,34.832829 117.866667,35.9746835 L117.866667,138.109705 Z M79.9515152,189.383966 L2.06060606,189.383966 C0.922564758,189.383966 0,188.45831 0,187.316456 L0,35.9746835 C0,34.832829 0.922564758,33.907173 2.06060606,33.907173 L48.2181818,33.907173 L48.2181818,34.7341772 L2.06060606,34.7341772 C1.37778128,34.7341772 0.824242424,35.2895708 0.824242424,35.9746835 L0.824242424,187.316456 C0.824242424,188.001568 1.37778128,188.556962 2.06060606,188.556962 L79.9515152,188.556962 L79.9515152,189.383966 Z M113.333333,138.109705 L81.9515152,138.109705 C80.8469457,138.109705 79.9515152,139.005135 79.9515152,140.109705 L79.9515152,184.835443 L6.53333333,184.835443 C5.42876383,184.835443 4.53333333,183.940013 4.53333333,182.835443 L4.53333333,40.4556962 C4.53333333,39.3511267 5.42876383,38.4556962 6.53333333,38.4556962 L48.2181818,38.4556962 L48.2181818,43.4177215 L47.8102033,43.4177215 C47.1250906,43.4177215 46.569697,43.9731151 46.569697,44.6582278 C46.569697,45.3433406 47.1250906,45.8987342 47.8102033,45.8987342 L70.8807058,45.8987342 C71.5658185,45.8987342 72.1212121,45.3433406 72.1212121,44.6582278 C72.1212121,43.9731151 71.5658185,43.4177215 70.8807058,43.4177215 L70.4727273,43.4177215 L70.4727273,38.4556962 L111.333333,38.4556962 C112.437903,38.4556962 113.333333,39.3511267 113.333333,40.4556962 L113.333333,138.109705 Z M75.4181818,124.464135 L80.0121212,124.464135 C81.1166907,124.464135 82.0121212,123.568705 82.0121212,122.464135 L82.0121212,66.9198312 C82.0121212,65.8152617 81.1166907,64.9198312 80.0121212,64.9198312 L40.3272727,64.9198312 C39.2227032,64.9198312 38.3272727,65.8152617 38.3272727,66.9198312 L38.3272727,122.464135 C38.3272727,123.568705 39.2227032,124.464135 40.3272727,124.464135 L45.7454545,124.464135 L45.7454545,116.971385 C45.7454545,110.400959 50.0165117,104.828091 55.9337116,102.877697 C52.3562899,101.256736 49.8666667,97.645822 49.8666667,93.4514768 C49.8666667,87.7422041 54.4794905,83.1139241 60.169697,83.1139241 C65.8599035,83.1139241 70.4727273,87.7422041 70.4727273,93.4514768 C70.4727273,97.5173023 68.1333366,101.034903 64.7314274,102.723128 C70.9057476,104.518246 75.4181818,110.217848 75.4181818,116.971385 L75.4181818,124.464135 Z M49.4545455,19.8481013 L69.2363636,19.8481013 L69.2363636,44.6582278 L49.4545455,44.6582278 L49.4545455,19.8481013 Z M39.9799003,138.523207 C39.2947875,138.523207 38.7393939,139.0786 38.7393939,139.763713 C38.7393939,140.448826 39.2947875,141.004219 39.9799003,141.004219 L60.5776755,141.004219 C61.2627882,141.004219 61.8181818,140.448826 61.8181818,139.763713 C61.8181818,139.0786 61.2627882,138.523207 60.5776755,138.523207 L39.9799003,138.523207 Z M40.8041427,150.101266 C40.11903,150.101266 39.5636364,150.656659 39.5636364,151.341772 C39.5636364,152.026885 40.11903,152.582278 40.8041427,152.582278 L52.3352512,152.582278 C53.020364,152.582278 53.5757576,152.026885 53.5757576,151.341772 C53.5757576,150.656659 53.020364,150.101266 52.3352512,150.101266 L40.8041427,150.101266 Z M61.4102033,150.101266 C60.7250906,150.101266 60.169697,150.656659 60.169697,151.341772 C60.169697,152.026885 60.7250906,152.582278 61.4102033,152.582278 L66.3473725,152.582278 C67.0324852,152.582278 67.5878788,152.026885 67.5878788,151.341772 C67.5878788,150.656659 67.0324852,150.101266 66.3473725,150.101266 L61.4102033,150.101266 Z M56.4647488,150.101266 C55.779636,150.101266 55.2242424,150.656659 55.2242424,151.341772 C55.2242424,152.026885 55.779636,152.582278 56.4647488,152.582278 L57.2807058,152.582278 C57.9658185,152.582278 58.5212121,152.026885 58.5212121,151.341772 C58.5212121,150.656659 57.9658185,150.101266 57.2807058,150.101266 L56.4647488,150.101266 Z M39.9799003,144.312236 C39.2947875,144.312236 38.7393939,144.86763 38.7393939,145.552743 C38.7393939,146.237855 39.2947875,146.793249 39.9799003,146.793249 L51.5110088,146.793249 C52.1961216,146.793249 52.7515152,146.237855 52.7515152,145.552743 C52.7515152,144.86763 52.1961216,144.312236 51.5110088,144.312236 L39.9799003,144.312236 Z M56.4647488,144.312236 C55.779636,144.312236 55.2242424,144.86763 55.2242424,145.552743 C55.2242424,146.237855 55.779636,146.793249 56.4647488,146.793249 L61.4019179,146.793249 C62.0870306,146.793249 62.6424242,146.237855 62.6424242,145.552743 C62.6424242,144.86763 62.0870306,144.312236 61.4019179,144.312236 L56.4647488,144.312236 Z M66.3556578,144.312236 C65.6705451,144.312236 65.1151515,144.86763 65.1151515,145.552743 C65.1151515,146.237855 65.6705451,146.793249 66.3556578,146.793249 L74.5897967,146.793249 C75.2749094,146.793249 75.830303,146.237855 75.830303,145.552743 C75.830303,144.86763 75.2749094,144.312236 74.5897967,144.312236 L66.3556578,144.312236 Z M66.3556578,138.523207 C65.6705451,138.523207 65.1151515,139.0786 65.1151515,139.763713 C65.1151515,140.448826 65.6705451,141.004219 66.3556578,141.004219 L74.5897967,141.004219 C75.2749094,141.004219 75.830303,140.448826 75.830303,139.763713 C75.830303,139.0786 75.2749094,138.523207 74.5897967,138.523207 L66.3556578,138.523207 Z M51.1057921,17.3670886 L67.585117,17.3670886 C68.0418588,17.3670886 68.4121212,17.737351 68.4121212,18.1940928 C68.4121212,18.6508346 68.0418588,19.021097 67.585117,19.021097 L51.1057921,19.021097 C50.6490503,19.021097 50.2787879,18.6508346 50.2787879,18.1940928 C50.2787879,17.737351 50.6490503,17.3670886 51.1057921,17.3670886 Z M59.3454545,0 C64.3528363,-9.19841101e-16 68.4121212,4.05928493 68.4121212,9.06666667 L68.4121212,16.5400844 L50.2787879,16.5400844 L50.2787879,9.06666667 C50.2787879,4.05928493 54.3380728,9.19841101e-16 59.3454545,0 Z M84.4242424,140.590717 L134,140.590717 C135.104569,140.590717 136,141.486148 136,142.590717 L136,194 C136,195.104569 135.104569,196 134,196 L84.4242424,196 C83.3196729,196 82.4242424,195.104569 82.4242424,194 L82.4242424,142.590717 C82.4242424,141.486148 83.3196729,140.590717 84.4242424,140.590717 Z M86.8969697,143.07173 C85.7924002,143.07173 84.8969697,143.96716 84.8969697,145.07173 L84.8969697,152.649789 C84.8969697,153.754359 85.7924002,154.649789 86.8969697,154.649789 L94.4363636,154.649789 C95.5409331,154.649789 96.4363636,153.754359 96.4363636,152.649789 L96.4363636,145.07173 C96.4363636,143.96716 95.5409331,143.07173 94.4363636,143.07173 L86.8969697,143.07173 Z M123.987879,143.07173 C122.883309,143.07173 121.987879,143.96716 121.987879,145.07173 L121.987879,152.649789 C121.987879,153.754359 122.883309,154.649789 123.987879,154.649789 L131.527273,154.649789 C132.631842,154.649789 133.527273,153.754359 133.527273,152.649789 L133.527273,145.07173 C133.527273,143.96716 132.631842,143.07173 131.527273,143.07173 L123.987879,143.07173 Z M86.8969697,181.940928 C85.7924002,181.940928 84.8969697,182.836359 84.8969697,183.940928 L84.8969697,191.518987 C84.8969697,192.623557 85.7924002,193.518987 86.8969697,193.518987 L94.4363636,193.518987 C95.5409331,193.518987 96.4363636,192.623557 96.4363636,191.518987 L96.4363636,183.940928 C96.4363636,182.836359 95.5409331,181.940928 94.4363636,181.940928 L86.8969697,181.940928 Z M88.5454545,144.725738 L92.7878788,144.725738 C93.8924483,144.725738 94.7878788,145.621169 94.7878788,146.725738 L94.7878788,150.995781 C94.7878788,152.10035 93.8924483,152.995781 92.7878788,152.995781 L88.5454545,152.995781 C87.440885,152.995781 86.5454545,152.10035 86.5454545,150.995781 L86.5454545,146.725738 C86.5454545,145.621169 87.440885,144.725738 88.5454545,144.725738 Z M125.636364,144.725738 L129.878788,144.725738 C130.983357,144.725738 131.878788,145.621169 131.878788,146.725738 L131.878788,150.995781 C131.878788,152.10035 130.983357,152.995781 129.878788,152.995781 L125.636364,152.995781 C124.531794,152.995781 123.636364,152.10035 123.636364,150.995781 L123.636364,146.725738 C123.636364,145.621169 124.531794,144.725738 125.636364,144.725738 Z M88.5454545,183.594937 L92.7878788,183.594937 C93.8924483,183.594937 94.7878788,184.490367 94.7878788,185.594937 L94.7878788,189.864979 C94.7878788,190.969548 93.8924483,191.864979 92.7878788,191.864979 L88.5454545,191.864979 C87.440885,191.864979 86.5454545,190.969548 86.5454545,189.864979 L86.5454545,185.594937 C86.5454545,184.490367 87.440885,183.594937 88.5454545,183.594937 Z"></path>
            </g>
        </g>
    </g>
</svg>