<?xml version="1.0" encoding="UTF-8"?>
<svg width="21px" height="21px" viewBox="0 0 21 21" version="1.1" xmlns="http://www.w3.org/2000/svg" xmlns:xlink="http://www.w3.org/1999/xlink">
    <!-- Generator: Sketch 52.6 (67491) - http://www.bohemiancoding.com/sketch -->
    <title>icon/图形验证码@3x</title>
    <desc>Created with Sketch.</desc>
    <g id="Page-1" stroke="none" stroke-width="1" fill="none" fill-rule="evenodd">
        <g id="登录-短信-copy" transform="translate(-52.000000, -397.000000)" fill="#E3E3E3" fill-rule="nonzero">
            <g id="icon/图形验证码" transform="translate(52.000000, 397.000000)">
                <path d="M2.5,5 C1.11928813,5 0,3.88071187 0,2.5 C0,1.11928813 1.11928813,0 2.5,0 C3.88071187,0 5,1.11928813 5,2.5 C5,3.88071187 3.88071187,5 2.5,5 Z M2.5,13 C1.11928813,13 0,11.8807119 0,10.5 C0,9.11928813 1.11928813,8 2.5,8 C3.88071187,8 5,9.11928813 5,10.5 C5,11.8807119 3.88071187,13 2.5,13 Z M2.5,21 C1.11928813,21 0,19.8807119 0,18.5 C0,17.1192881 1.11928813,16 2.5,16 C3.88071187,16 5,17.1192881 5,18.5 C5,19.8807119 3.88071187,21 2.5,21 Z M10.5,5 C9.11928813,5 8,3.88071187 8,2.5 C8,1.11928813 9.11928813,0 10.5,0 C11.8807119,0 13,1.11928813 13,2.5 C13,3.88071187 11.8807119,5 10.5,5 Z M10.5,13 C9.11928813,13 8,11.8807119 8,10.5 C8,9.11928813 9.11928813,8 10.5,8 C11.8807119,8 13,9.11928813 13,10.5 C13,11.8807119 11.8807119,13 10.5,13 Z M10.5,21 C9.11928813,21 8,19.8807119 8,18.5 C8,17.1192881 9.11928813,16 10.5,16 C11.8807119,16 13,17.1192881 13,18.5 C13,19.8807119 11.8807119,21 10.5,21 Z M18.5,5 C17.1192881,5 16,3.88071187 16,2.5 C16,1.11928813 17.1192881,0 18.5,0 C19.8807119,0 21,1.11928813 21,2.5 C21,3.88071187 19.8807119,5 18.5,5 Z M18.5,13 C17.1192881,13 16,11.8807119 16,10.5 C16,9.11928813 17.1192881,8 18.5,8 C19.8807119,8 21,9.11928813 21,10.5 C21,11.8807119 19.8807119,13 18.5,13 Z M18.5,21 C17.1192881,21 16,19.8807119 16,18.5 C16,17.1192881 17.1192881,16 18.5,16 C19.8807119,16 21,17.1192881 21,18.5 C21,19.8807119 19.8807119,21 18.5,21 Z"></path>
            </g>
        </g>
    </g>
</svg>