<?xml version="1.0" encoding="UTF-8"?>
<svg width="20px" height="17px" viewBox="0 0 20 17" version="1.1" xmlns="http://www.w3.org/2000/svg" xmlns:xlink="http://www.w3.org/1999/xlink">
    <!-- Generator: Sketch 52.6 (67491) - http://www.bohemiancoding.com/sketch -->
    <title>Shape@3x</title>
    <desc>Created with Sketch.</desc>
    <g id="Page-1" stroke="none" stroke-width="1" fill="none" fill-rule="evenodd">
        <g id="登录-密码" transform="translate(-213.000000, -619.000000)" fill="#454545" fill-rule="nonzero">
            <path d="M230.189458,619 L215.360542,619 C213.772524,619 213,619.772657 213,621.318186 L213,630.590886 C213,632.136501 213.72477,632.866955 215.273202,632.866955 L217.546491,632.866955 L217.266828,635.227279 C217.266778,635.512417 217.42672,635.774152 217.682327,635.907215 C217.796365,635.968085 217.923974,635.999973 218.053632,636 C218.206215,636 218.358929,635.956613 218.489503,635.87014 L223.002303,632.866955 L230.276776,632.866955 C231.850667,632.866955 232.55,632.136522 232.55,630.590886 L232.55,621.318186 C232.55,619.772657 231.763218,619 230.189458,619 Z M218.864989,626.285714 C218.217902,626.285714 217.692,625.740788 217.692,625.072539 C217.692,624.404361 218.217925,623.857143 218.864989,623.857143 C219.512008,623.857143 220.038,624.402163 220.038,625.072539 C220.037887,625.74301 219.509818,626.285714 218.864989,626.285714 Z M222.775034,626.285714 C222.127814,626.285714 221.602,625.740788 221.602,625.072539 C221.602,624.404361 222.127926,623.857143 222.775034,623.857143 C223.422186,623.857143 223.948,624.402163 223.948,625.072539 C223.948022,625.74301 223.419894,626.285714 222.775056,626.285714 L222.775034,626.285714 Z M226.684179,626.285714 C226.036404,626.285714 225.512,625.740788 225.512,625.072539 C225.512,624.404361 226.036404,623.857143 226.684157,623.857143 C227.33164,623.857143 227.858,624.402163 227.858,625.072539 C227.858,625.74301 227.331753,626.285714 226.684157,626.285714 L226.684179,626.285714 Z" id="Shape"></path>
        </g>
    </g>
</svg>