<?xml version="1.0" encoding="UTF-8"?>
<svg width="16px" height="21px" viewBox="0 0 16 21" version="1.1" xmlns="http://www.w3.org/2000/svg" xmlns:xlink="http://www.w3.org/1999/xlink">
    <!-- Generator: Sketch 52.6 (67491) - http://www.bohemiancoding.com/sketch -->
    <title>icon/锁@3x</title>
    <desc>Created with Sketch.</desc>
    <g id="Page-1" stroke="none" stroke-width="1" fill="none" fill-rule="evenodd">
        <g id="登录-短信" transform="translate(-214.000000, -617.000000)" fill="#C5C6C5" fill-rule="nonzero">
            <g id="icon/锁3" transform="translate(209.000000, 614.000000)">
                <path d="M16.8100962,11.9423077 L16.8100962,8.86586538 C16.8100962,7.12377873 15.2409403,5.71153846 13.3052885,5.71153846 C11.3696366,5.71153846 9.80048077,7.12377873 9.80048077,8.86586538 L9.80048077,11.9423077 L16.8100962,11.9423077 Z M19.1466346,11.9423077 L19.7043269,11.9423077 C20.2566117,11.9423077 20.7043269,12.3900229 20.7043269,12.9423077 L20.7043269,22.625 C20.7043269,23.1772847 20.2566117,23.625 19.7043269,23.625 L6.90625,23.625 C6.35396525,23.625 5.90625,23.1772847 5.90625,22.625 L5.90625,12.9423077 C5.90625,12.3900229 6.35396525,11.9423077 6.90625,11.9423077 L7.46394231,11.9423077 L7.46394231,8.48617788 C7.46394231,5.66335229 10.0792021,3.375 13.3052885,3.375 C16.5313749,3.375 19.1466346,5.66335229 19.1466346,8.48617788 L19.1466346,11.9423077 Z M12.9158654,18.9129737 L12.9158654,20.8990385 C12.9158654,21.1141109 13.090216,21.2884615 13.3052885,21.2884615 C13.5203609,21.2884615 13.6947115,21.1141109 13.6947115,20.8990385 L13.6947115,18.9129737 C14.5834686,18.7325656 15.2524038,17.9468057 15.2524038,17.0048077 C15.2524038,15.9294456 14.3806506,15.0576923 13.3052885,15.0576923 C12.2299263,15.0576923 11.3581731,15.9294456 11.3581731,17.0048077 C11.3581731,17.9468057 12.0271083,18.7325656 12.9158654,18.9129737 Z" id="Combined-Shape"></path>
            </g>
        </g>
    </g>
</svg>