<?xml version="1.0" encoding="UTF-8"?>
<svg width="18px" height="25px" viewBox="0 0 18 25" version="1.1" xmlns="http://www.w3.org/2000/svg" xmlns:xlink="http://www.w3.org/1999/xlink">
    <!-- Generator: Sketch 52.6 (67491) - http://www.bohemiancoding.com/sketch -->
    <title>icon/用户@3x</title>
    <desc>Created with Sketch.</desc>
    <g id="Page-1" stroke="none" stroke-width="1" fill="none" fill-rule="evenodd">
        <g id="登录-短信" transform="translate(-54.000000, -284.000000)" fill="#E3E3E3" fill-rule="nonzero">
            <g id="icon/用户" transform="translate(47.000000, 280.000000)">
                <path d="M15.7717835,16.0034932 C12.4571104,16.0034932 9.77003688,13.3164197 9.77003688,10.0017466 C9.77003688,6.68707347 12.4571104,4 15.7717835,4 C19.0864566,4 21.77353,6.68707347 21.77353,10.0017466 C21.77353,13.3164197 19.0864566,16.0034932 15.7717835,16.0034932 Z M11.4390911,16.54691 C12.6807161,17.3704775 14.170229,17.8501844 15.7717835,17.8501844 C17.3733379,17.8501844 18.8628508,17.3704775 20.1044758,16.54691 C22.7556778,18.4241884 24.5435669,21.7784725 24.5435669,24.6598584 C24.5435669,28.9303319 20.6163057,28.0069863 15.7717835,28.0069863 C10.9272612,28.0069863 7,28.9303319 7,24.6598584 C7,21.7784725 8.78788911,18.4241884 11.4390911,16.54691 Z" id="Combined-Shape"></path>
            </g>
        </g>
    </g>
</svg>