<?xml version="1.0" encoding="UTF-8"?>
<svg width="21px" height="23px" viewBox="0 0 21 23" version="1.1" xmlns="http://www.w3.org/2000/svg" xmlns:xlink="http://www.w3.org/1999/xlink">
    <!-- Generator: Sketch 52.6 (67491) - http://www.bohemiancoding.com/sketch -->
    <title>icon/用户@3x</title>
    <desc>Created with Sketch.</desc>
    <g id="Page-1" stroke="none" stroke-width="1" fill="none" fill-rule="evenodd">
        <g id="登录-短信" transform="translate(-53.000000, -342.000000)" fill="#E3E3E3" fill-rule="nonzero">
            <g id="icon/验证码" transform="translate(47.000000, 337.000000)">
                <path d="M7.37135979,5.17753556 L15.9971437,8.62751628 C16.2419639,8.72543491 16.5155498,8.72269826 16.7583622,8.61990188 L24.7951969,5.2174511 C25.303782,5.00213803 25.8906173,5.23988193 26.1059304,5.74846696 C26.1581483,5.87180945 26.1850557,6.00438517 26.1850557,6.13832575 L26.1850557,22.6159196 C26.1850557,23.00315 25.9614955,23.3555741 25.6111822,23.5205832 L16.7936141,27.6739487 C16.5305544,27.7978585 16.2265881,27.8011288 15.9609234,27.6829073 L6.5934357,23.5143503 C6.23253692,23.3537494 6,22.9957478 6,22.6007281 L6,6.1060246 C6,5.55373985 6.44771525,5.1060246 7,5.1060246 C7.12720824,5.1060246 7.25324833,5.13029553 7.37135979,5.17753556 Z M12.032,13.0533273 L15.088,21.3253273 L16.912,21.3253273 L19.968,13.0533273 L17.984,13.0533273 L16,19.0533273 L14.016,13.0533273 L12.032,13.0533273 Z" id="Combined-Shape"></path>
            </g>
        </g>
    </g>
</svg>