<?xml version="1.0" encoding="UTF-8"?>
<svg width="129px" height="172px" viewBox="0 0 129 172" version="1.1" xmlns="http://www.w3.org/2000/svg" xmlns:xlink="http://www.w3.org/1999/xlink">
    <!-- Generator: Sketch 52.6 (67491) - http://www.bohemiancoding.com/sketch -->
    <title>等待审核icon@3x</title>
    <desc>Created with Sketch.</desc>
    <defs>
        <linearGradient x1="50%" y1="96.0784314%" x2="50%" y2="2.77466388%" id="linearGradient-1">
            <stop stop-color="#4BE29A" offset="0%"></stop>
            <stop stop-color="#51DCD0" offset="100%"></stop>
        </linearGradient>
        <linearGradient x1="100%" y1="95%" x2="0%" y2="0%" id="linearGradient-2">
            <stop stop-color="#4CE19D" offset="0%"></stop>
            <stop stop-color="#50DCCE" offset="100%"></stop>
        </linearGradient>
    </defs>
    <g id="定位学生卡家长端" stroke="none" stroke-width="1" fill="none" fill-rule="evenodd">
        <g id="等待审核" transform="translate(-122.000000, -133.000000)" fill-rule="nonzero">
            <g id="等待审核icon" transform="translate(105.000000, 100.000000)">
                <path d="M140,136 L92.3097385,136 C91.8066013,136 91.317226,136.16346 90.9160212,136.465526 C89.8988795,137.23133 89.6983118,138.672489 90.4680406,139.684444 L114.520507,171.305991 L99,192 L25,192 C23.8954305,192 23,191.104569 23,190 L23,41 C23,39.8954305 23.8954305,39 25,39 L138,39 C139.104569,39 140,39.8954305 140,41 L140,136 Z M140,152.216188 L140,190 C140,190.194581 139.972213,190.382671 139.92039,190.56052 L125.479557,171.306076 L140,152.216188 Z M39,58 C37.8954305,58 37,58.8954305 37,60 C37,61.1045695 37.8954305,62 39,62 L81,62 C82.1045695,62 83,61.1045695 83,60 C83,58.8954305 82.1045695,58 81,58 L39,58 Z M39,68 C37.8954305,68 37,68.8954305 37,70 C37,71.1045695 37.8954305,72 39,72 L104,72 C105.104569,72 106,71.1045695 106,70 C106,68.8954305 105.104569,68 104,68 L39,68 Z M39,78 C37.8954305,78 37,78.8954305 37,80 C37,81.1045695 37.8954305,82 39,82 L116,82 C117.104569,82 118,81.1045695 118,80 C118,78.8954305 117.104569,78 116,78 L39,78 Z M56,97 C54.8954305,97 54,97.8954305 54,99 C54,100.104569 54.8954305,101 56,101 L58,101 C59.1045695,101 60,100.104569 60,99 C60,97.8954305 59.1045695,97 58,97 L56,97 Z M39,87 C37.8954305,87 37,87.8954305 37,89 C37,90.1045695 37.8954305,91 39,91 L85,91 C86.1045695,91 87,90.1045695 87,89 C87,87.8954305 86.1045695,87 85,87 L39,87 Z M69,97 C67.8954305,97 67,97.8954305 67,99 C67,100.104569 67.8954305,101 69,101 L115,101 C116.104569,101 117,100.104569 117,99 C117,97.8954305 116.104569,97 115,97 L69,97 Z M39,97 C37.8954305,97 37,97.8954305 37,99 C37,100.104569 37.8954305,101 39,101 L49,101 C50.1045695,101 51,100.104569 51,99 C51,97.8954305 50.1045695,97 49,97 L39,97 Z M108,87 C106.895431,87 106,87.8954305 106,89 C106,90.1045695 106.895431,91 108,91 L125,91 C126.104569,91 127,90.1045695 127,89 C127,87.8954305 126.104569,87 125,87 L108,87 Z M89,58 C87.8954305,58 87,58.8954305 87,60 C87,61.1045695 87.8954305,62 89,62 L99,62 C100.104569,62 101,61.1045695 101,60 C101,58.8954305 100.104569,58 99,58 L89,58 Z M94,87 C92.8954305,87 92,87.8954305 92,89 C92,90.1045695 92.8954305,91 94,91 L99,91 C100.104569,91 101,90.1045695 101,89 C101,87.8954305 100.104569,87 99,87 L94,87 Z" id="Combined-Shape" fill="url(#linearGradient-1)" opacity="0.31"></path>
                <path d="M95.625,196.5 L94.875,197.5 L20,197.5 C18.6192881,197.5 17.5,196.380712 17.5,195 L17.5,36 C17.5,34.6192881 18.6192881,33.5 20,33.5 L143,33.5 C144.380712,33.5 145.5,34.6192881 145.5,36 L145.5,136 L144.5,136 L144.5,36 C144.5,35.1715729 143.828427,34.5 143,34.5 L20,34.5 C19.1715729,34.5 18.5,35.1715729 18.5,36 L18.5,195 C18.5,195.828427 19.1715729,196.5 20,196.5 L95.625,196.5 Z M144.051964,196.069286 C144.328517,195.797186 144.5,195.418619 144.5,195 L144.5,146.300081 L145.5,144.985391 L145.5,195 C145.5,195.74593 145.173313,196.415558 144.65521,196.873613 L144.051964,196.069286 Z" id="Combined-Shape" fill-opacity="0.31" fill="url(#linearGradient-2)"></path>
                <path d="M117.655748,170.961155 L95.4852396,142.221607 C94.8105647,141.347028 94.9726187,140.09111 95.8471972,139.416435 C96.1971912,139.14644 96.626771,139 97.0688041,139 L142.931196,139 C144.035765,139 144.931196,139.895431 144.931196,141 C144.931196,141.442033 144.784756,141.871613 144.51476,142.221607 L122.343248,170.962456 L144.679258,201.571062 C145.330367,202.463323 145.134875,203.714472 144.242614,204.365582 C143.900287,204.615388 143.487458,204.75 143.063676,204.75 L96.934371,204.75 C95.8298015,204.75 94.934371,203.854569 94.934371,202.75 C94.934371,202.326218 95.0689827,201.913389 95.3187891,201.571062 L117.655748,170.961155 Z M129.0625,185 L119.96875,173 L110.875,185 L129.0625,185 Z" id="Combined-Shape" fill="url(#linearGradient-1)" opacity="0.31"></path>
            </g>
        </g>
    </g>
</svg>