<?xml version="1.0" encoding="UTF-8"?>
<svg width="24px" height="19px" viewBox="0 0 24 19" version="1.1" xmlns="http://www.w3.org/2000/svg" xmlns:xlink="http://www.w3.org/1999/xlink">
    <!-- Generator: Sketch 52.6 (67491) - http://www.bohemiancoding.com/sketch -->
    <title>Shape@3x</title>
    <desc>Created with Sketch.</desc>
    <g id="Page-1" stroke="none" stroke-width="1" fill="none" fill-rule="evenodd">
        <g id="登录-短信" transform="translate(-140.000000, -618.000000)" fill="#C5C6C5" fill-rule="nonzero">
            <path d="M156.075781,623.747372 C156.348906,623.747372 156.617578,623.767779 156.887734,623.796931 C156.160391,620.470656 152.54,618 148.406016,618 C143.785156,618 140,621.0916 140,625.01987 C140,627.28646 141.25875,629.147833 143.363594,630.593786 L142.523438,633.076103 L145.4625,631.63015 C146.513438,631.832758 147.356562,632.042654 148.406016,632.042654 C148.670234,632.042654 148.931484,632.030993 149.189766,632.012044 C149.026484,631.459609 148.93,630.882394 148.93,630.280399 C148.931484,626.674262 152.084297,623.747372 156.075781,623.747372 Z M151.557344,621.509935 C152.192656,621.509935 152.609766,621.919524 152.609766,622.540468 C152.609766,623.158496 152.192656,623.572459 151.557344,623.572459 C150.929453,623.572459 150.297109,623.158496 150.297109,622.540468 C150.297109,621.918067 150.927969,621.509935 151.557344,621.509935 Z M145.674766,623.572459 C145.043906,623.572459 144.408594,623.158496 144.408594,622.540468 C144.408594,621.919524 145.043906,621.509935 145.674766,621.509935 C146.305625,621.509935 146.724219,621.918067 146.724219,622.540468 C146.724219,623.158496 146.305625,623.572459 145.674766,623.572459 Z M163.75,630.181281 C163.75,626.881243 160.386406,624.191945 156.608672,624.191945 C152.608281,624.191945 149.459922,626.8827 149.459922,630.181281 C149.459922,633.490065 152.609766,636.170618 156.608672,636.170618 C157.445859,636.170618 158.290469,635.965094 159.130625,635.758113 L161.435859,637 L160.803516,634.936018 C162.49125,633.691216 163.75,632.042654 163.75,630.181281 Z M154.290078,629.147833 C153.872969,629.147833 153.449922,628.739701 153.449922,628.322823 C153.449922,627.911776 153.872969,627.497814 154.290078,627.497814 C154.928359,627.497814 155.3425,627.911776 155.3425,628.322823 C155.3425,628.739701 154.928359,629.147833 154.290078,629.147833 Z M158.913906,629.147833 C158.499766,629.147833 158.078203,628.739701 158.078203,628.322823 C158.078203,627.911776 158.498281,627.497814 158.913906,627.497814 C159.54625,627.497814 159.966328,627.911776 159.966328,628.322823 C159.966328,628.739701 159.54625,629.147833 158.913906,629.147833 Z" id="Shape"></path>
        </g>
    </g>
</svg>