<?xml version="1.0" encoding="UTF-8"?>
<svg width="111px" height="110px" viewBox="0 0 111 110" version="1.1" xmlns="http://www.w3.org/2000/svg" xmlns:xlink="http://www.w3.org/1999/xlink">
    <!-- Generator: Sketch 53 (72520) - https://sketchapp.com -->
    <title>电子围栏icon@3x</title>
    <desc>Created with Sketch.</desc>
    <g id="Page-1" stroke="none" stroke-width="1" fill="none" fill-rule="evenodd" opacity="0.32140532">
        <g id="新建电子围栏" transform="translate(-264.000000, -114.000000)">
            <g id="电子围栏icon2" transform="translate(247.000000, 94.000000)">
                <g id="电子围栏icon" transform="translate(17.500000, 20.000000)">
                    <path d="M6.25,56.25 L20,17.5" id="Line" stroke="#FFFFFF" fill-rule="nonzero"></path>
                    <path d="M6.25,56.25 L31.25,98.75" id="Line" stroke="#FFFFFF" fill-rule="nonzero"></path>
                    <path d="M102.5,85 L28.75,101.25" id="Line" stroke="#FFFFFF" fill-rule="nonzero"></path>
                    <path d="M102.5,85 L110,35" id="Line" stroke="#FFFFFF" fill-rule="nonzero"></path>
                    <polyline id="Line" stroke="#FFFFFF" fill-rule="nonzero" points="20 17.5 67.5 15 110 35"></polyline>
                    <circle id="Oval" fill="#FFFFFF" fill-rule="nonzero" cx="6.25" cy="56.25" r="6.25"></circle>
                    <circle id="Oval" fill="#FFFFFF" fill-rule="nonzero" cx="20" cy="17.5" r="5"></circle>
                    <circle id="Oval" fill="#FFFFFF" fill-rule="nonzero" cx="110" cy="35" r="5"></circle>
                    <circle id="Oval" fill="#FFFFFF" fill-rule="nonzero" cx="102.5" cy="85" r="5"></circle>
                    <circle id="Oval" fill="#FFFFFF" fill-rule="nonzero" cx="31.25" cy="98.75" r="8.75"></circle>
                    <path d="M62.5,110 C50.1041667,110 27.5,53.5690423 27.5,34.5098039 C27.5,15.4505655 43.1700338,0 62.5,0 C81.8299662,0 97.5,15.4505655 97.5,34.5098039 C97.5,53.5690423 74.8958333,110 62.5,110 Z M63.75,47.5 C71.3439153,47.5 77.5,41.3439153 77.5,33.75 C77.5,26.1560847 71.3439153,20 63.75,20 C56.1560847,20 50,26.1560847 50,33.75 C50,41.3439153 56.1560847,47.5 63.75,47.5 Z" id="Combined-Shape" fill="#FFFFFF" fill-rule="nonzero"></path>
                </g>
            </g>
        </g>
    </g>
</svg>