<?xml version="1.0" encoding="UTF-8"?>
<svg width="94px" height="110px" viewBox="0 0 94 110" version="1.1" xmlns="http://www.w3.org/2000/svg" xmlns:xlink="http://www.w3.org/1999/xlink">
    <!-- Generator: Sketch 52.6 (67491) - http://www.bohemiancoding.com/sketch -->
    <title>更多功能绿@3x</title>
    <desc>Created with Sketch.</desc>
    <g id="定位学生卡家长端" stroke="none" stroke-width="1" fill="none" fill-rule="evenodd" opacity="0.3125">
        <g id="更多功能" transform="translate(-281.000000, -112.000000)" fill="#FFFFFF">
            <g id="更多功能灰-copy" transform="translate(268.000000, 99.000000)">
                <g id="Group" transform="translate(13.600000, 13.600000)">
                    <path d="M54.4,108.8 C24.3557096,108.8 0,84.4442904 0,54.4 C0,24.3557096 24.3557096,0 54.4,0 C84.4442904,0 108.8,24.3557096 108.8,54.4 C108.8,84.4442904 84.4442904,108.8 54.4,108.8 Z M54.4,99.7333333 C79.4369087,99.7333333 99.7333333,79.4369087 99.7333333,54.4 C99.7333333,29.3630913 79.4369087,9.06666667 54.4,9.06666667 C29.3630913,9.06666667 9.06666667,29.3630913 9.06666667,54.4 C9.06666667,79.4369087 29.3630913,99.7333333 54.4,99.7333333 Z" id="Oval" fill-rule="nonzero"></path>
                    <path d="M24.6666667,22.6666667 L47.8666667,22.6666667 C48.9712362,22.6666667 49.8666667,23.5620972 49.8666667,24.6666667 L49.8666667,49.8666667 L24.6666667,49.8666667 C23.5620972,49.8666667 22.6666667,48.9712362 22.6666667,47.8666667 L22.6666667,24.6666667 C22.6666667,23.5620972 23.5620972,22.6666667 24.6666667,22.6666667 Z" id="更多功能绿" fill-rule="nonzero"></path>
                    <path d="M24.6666667,58.9333333 L49.8666667,58.9333333 L49.8666667,84.1333333 C49.8666667,85.2379028 48.9712362,86.1333333 47.8666667,86.1333333 L24.6666667,86.1333333 C23.5620972,86.1333333 22.6666667,85.2379028 22.6666667,84.1333333 L22.6666667,60.9333333 C22.6666667,59.8287638 23.5620972,58.9333333 24.6666667,58.9333333 Z" id="更多功能绿-copy" fill-rule="nonzero"></path>
                    <path d="M60.9333333,22.6666667 L84.1333333,22.6666667 C85.2379028,22.6666667 86.1333333,23.5620972 86.1333333,24.6666667 L86.1333333,47.8666667 C86.1333333,48.9712362 85.2379028,49.8666667 84.1333333,49.8666667 L58.9333333,49.8666667 L58.9333333,24.6666667 C58.9333333,23.5620972 59.8287638,22.6666667 60.9333333,22.6666667 Z" id="更多功能绿" fill-rule="nonzero"></path>
                    <path d="M58.9333333,58.9333333 L84.1333333,58.9333333 C85.2379028,58.9333333 86.1333333,59.8287638 86.1333333,60.9333333 L86.1333333,84.1333333 C86.1333333,85.2379028 85.2379028,86.1333333 84.1333333,86.1333333 L60.9333333,86.1333333 C59.8287638,86.1333333 58.9333333,85.2379028 58.9333333,84.1333333 L58.9333333,58.9333333 Z" id="更多功能绿-copy-2" fill-rule="nonzero"></path>
                </g>
            </g>
        </g>
    </g>
</svg>