<?xml version="1.0" encoding="UTF-8"?>
<svg width="91px" height="132px" viewBox="0 0 91 132" version="1.1" xmlns="http://www.w3.org/2000/svg" xmlns:xlink="http://www.w3.org/1999/xlink">
    <!-- Generator: Sketch 52.6 (67491) - http://www.bohemiancoding.com/sketch -->
    <title>设备信息icon2@3x</title>
    <desc>Created with Sketch.</desc>
    <g id="Page-1" stroke="none" stroke-width="1" fill="none" fill-rule="evenodd" opacity="0.345191592">
        <g id="情景模式-单独启用时间段-默认状态" transform="translate(-284.000000, -94.000000)" fill="#FFFFFF" fill-rule="nonzero">
            <g id="icon/情景模式" transform="translate(270.000000, 85.000000)">
                <path d="M51.5625,56.25 L107.8125,56.25 C110.401335,56.25 112.5,58.3486652 112.5,60.9375 L112.5,135.9375 C112.5,138.526335 110.401335,140.625 107.8125,140.625 L51.5625,140.625 C48.9736652,140.625 46.875,138.526335 46.875,135.9375 L46.875,60.9375 C46.875,58.3486652 48.9736652,56.25 51.5625,56.25 Z M62.1082306,61.2304687 C60.1666045,61.2304687 58.5926056,63.095949 58.5926056,65.3971354 L58.5926056,94.5638021 C58.5926056,96.8649885 60.1666045,98.7304687 62.1082306,98.7304687 L83.2019806,98.7304687 C85.1436067,98.7304687 86.7176056,96.8649885 86.7176056,94.5638021 L86.7176056,65.3971354 C86.7176056,63.095949 85.1436067,61.2304687 83.2019806,61.2304687 L62.1082306,61.2304687 Z M58.8007812,107.8125 C58.5246389,107.8125 58.3007812,108.036358 58.3007812,108.3125 L58.3007812,112 C58.3007812,112.276142 58.5246389,112.5 58.8007812,112.5 L85.9257812,112.5 C86.2019236,112.5 86.4257812,112.276142 86.4257812,112 L86.4257812,108.3125 C86.4257812,108.036358 86.2019236,107.8125 85.9257812,107.8125 L58.8007812,107.8125 Z M14.7491709,60.2512338 C13.8337679,59.3360542 13.8335867,57.8520738 14.7487663,56.9366708 C15.6639459,56.0212678 17.1479263,56.0210866 18.0633293,56.9362662 L27.4406182,66.3112662 C28.3561792,67.2266038 28.3561792,68.7108962 27.4406182,69.6262338 L19.7212178,77.34375 L27.4406182,85.0612662 C28.3561792,85.9766038 28.3561792,87.4608962 27.4406182,88.3762338 L19.7212178,96.09375 L27.4406182,103.811266 C28.3536615,104.724087 28.3565395,106.203407 27.4470549,107.119774 L19.7212431,114.904043 L27.4341055,122.554781 C28.3583501,123.471581 28.3583501,124.965919 27.4341055,125.882719 L18.0568167,135.184477 C17.1378318,136.09606 15.6538635,136.090059 14.7422808,135.171074 C13.830698,134.25209 13.8366986,132.768121 14.7556835,131.856538 L22.4554914,124.21875 L14.7556835,116.580962 C13.8365202,115.669202 13.830722,114.184882 14.7427341,113.265969 L22.4750096,105.475187 L14.7491709,97.7512338 C13.8336099,96.8358962 13.8336099,95.3516038 14.7491709,94.4362662 L22.4685713,86.71875 L14.7491709,79.0012338 C13.8336099,78.0858962 13.8336099,76.6016038 14.7491709,75.6862662 L22.4685713,67.96875 L14.7491709,60.2512338 Z M130.565618,131.863024 C131.481021,132.778204 131.481202,134.262184 130.566023,135.177587 C129.650843,136.09299 128.166863,136.093171 127.25146,135.177992 L117.874171,125.802992 C116.95861,124.887654 116.95861,123.403362 117.874171,122.488024 L125.593571,114.770508 L117.874171,107.052992 C116.95861,106.137654 116.95861,104.653362 117.874171,103.738024 L125.593571,96.0205079 L117.874171,88.3029917 C116.961128,87.3901713 116.958249,85.9108506 117.867734,84.9944844 L125.593546,77.2102151 L117.880683,69.5594773 C116.956439,68.6426772 116.956439,67.1483386 117.880683,66.2315386 L127.257972,56.9297808 C128.176957,56.018198 129.660925,56.0241986 130.572508,56.9431835 C131.484091,57.8621684 131.47809,59.3461367 130.559105,60.2577195 L122.859298,67.8955079 L130.559105,75.5332964 C131.478269,76.4450562 131.484067,77.9293763 130.572055,78.8482892 L122.839779,86.6390711 L130.565618,94.3630241 C131.481179,95.2783617 131.481179,96.7626542 130.565618,97.6779917 L122.846218,105.395508 L130.565618,113.113024 C131.481179,114.028362 131.481179,115.512654 130.565618,116.427992 L122.846218,124.145508 L130.565618,131.863024 Z"></path>
                <path d="M82.0312501,33.9192493 L82.0312501,46.875 L100.78125,46.875 C103.370085,46.875 105.46875,48.9736652 105.46875,51.5625 L105.46875,126.5625 C105.46875,129.151335 103.370085,131.25 100.78125,131.25 L44.5312501,131.25 C41.9424154,131.25 39.8437501,129.151335 39.8437501,126.5625 L39.8437501,51.5625 C39.8437501,48.9736652 41.9424154,46.875 44.5312501,46.875 L63.2812501,46.875 L63.2812501,33.9192493 C60.4043,31.3443092 58.5937501,27.6023429 58.5937501,23.4375 C58.5937501,15.6709957 64.8897458,9.375 72.6562501,9.375 C80.4227544,9.375 86.7187501,15.6709957 86.7187501,23.4375 C86.7187501,27.6023429 84.9082002,31.3443092 82.0312501,33.9192493 Z M77.3437501,36.699817 C75.8775989,37.2180271 74.2998537,37.5 72.6562501,37.5 C71.0126466,37.5 69.4349013,37.2180271 67.9687501,36.699817 L67.9687501,37.5 L77.3437501,37.5 L77.3437501,36.699817 Z M67.9687501,46.875 L77.3437501,46.875 L77.3437501,37.5 L67.9687501,37.5 L67.9687501,46.875 Z M62.1093751,60.9375 C60.167749,60.9375 58.5937501,62.8029802 58.5937501,65.1041667 L58.5937501,94.2708333 C58.5937501,96.5720198 60.167749,98.4375 62.1093751,98.4375 L83.2031251,98.4375 C85.1447512,98.4375 86.7187501,96.5720198 86.7187501,94.2708333 L86.7187501,65.1041667 C86.7187501,62.8029802 85.1447512,60.9375 83.2031251,60.9375 L62.1093751,60.9375 Z M59.0937501,107.8125 C58.8176077,107.8125 58.5937501,108.036358 58.5937501,108.3125 L58.5937501,112 C58.5937501,112.276142 58.8176077,112.5 59.0937501,112.5 L86.2187501,112.5 C86.4948925,112.5 86.7187501,112.276142 86.7187501,112 L86.7187501,108.3125 C86.7187501,108.036358 86.4948925,107.8125 86.2187501,107.8125 L59.0937501,107.8125 Z M19.4366709,53.2199838 C18.5212679,52.3048042 18.5210867,50.8208238 19.4362663,49.9054208 C20.3514459,48.9900178 21.8354263,48.9898366 22.7508293,49.9050162 L32.1281182,59.2800162 C33.0436792,60.1953538 33.0436792,61.6796462 32.1281182,62.5949838 L24.4087178,70.3125 L32.1281182,78.0300162 C33.0436792,78.9453538 33.0436792,80.4296462 32.1281182,81.3449838 L24.4087178,89.0625 L32.1281182,96.7800162 C33.0411615,97.6928367 33.0440395,99.1721573 32.1345549,100.088524 L24.4087431,107.872793 L32.1216055,115.523531 C33.0458501,116.440331 33.0458501,117.934669 32.1216055,118.851469 L22.7443167,128.153227 C21.8253318,129.06481 20.3413635,129.058809 19.4297808,128.139824 C18.518198,127.22084 18.5241986,125.736871 19.4431835,124.825288 L27.1429914,117.1875 L19.4431835,109.549712 C18.5240202,108.637952 18.518222,107.153632 19.4302341,106.234719 L27.1625096,98.4439368 L19.4366709,90.7199838 C18.5211099,89.8046462 18.5211099,88.3203538 19.4366709,87.4050162 L27.1560713,79.6875 L19.4366709,71.9699838 C18.5211099,71.0546462 18.5211099,69.5703538 19.4366709,68.6550162 L27.1560713,60.9375 L19.4366709,53.2199838 Z M125.878118,124.831774 C126.793521,125.746954 126.793702,127.230934 125.878523,128.146337 C124.963343,129.06174 123.479363,129.061921 122.56396,128.146742 L113.186671,118.771742 C112.27111,117.856404 112.27111,116.372112 113.186671,115.456774 L120.906071,107.739258 L113.186671,100.021742 C112.27111,99.1064042 112.27111,97.6221117 113.186671,96.7067741 L120.906071,88.9892579 L113.186671,81.2717417 C112.273628,80.3589213 112.270749,78.8796006 113.180234,77.9632344 L120.906046,70.1789651 L113.193183,62.5282273 C112.268939,61.6114272 112.268939,60.1170886 113.193183,59.2002886 L122.570472,49.8985308 C123.489457,48.986948 124.973425,48.9929486 125.885008,49.9119335 C126.796591,50.8309184 126.79059,52.3148867 125.871605,53.2264695 L118.171798,60.8642579 L125.871605,68.5020464 C126.790769,69.4138062 126.796567,70.8981263 125.884555,71.8170392 L118.152279,79.6078211 L125.878118,87.3317741 C126.793679,88.2471117 126.793679,89.7314042 125.878118,90.6467417 L118.158718,98.3642579 L125.878118,106.081774 C126.793679,106.997112 126.793679,108.481404 125.878118,109.396742 L118.158718,117.114258 L125.878118,124.831774 Z"></path>
            </g>
        </g>
    </g>
</svg>