<?xml version="1.0" encoding="UTF-8"?>
<svg width="87px" height="120px" viewBox="0 0 87 120" version="1.1" xmlns="http://www.w3.org/2000/svg" xmlns:xlink="http://www.w3.org/1999/xlink">
    <!-- Generator: Sketch 52.6 (67491) - http://www.bohemiancoding.com/sketch -->
    <title>设备信息icon2@3x</title>
    <desc>Created with Sketch.</desc>
    <g id="定位学生卡家长端" stroke="none" stroke-width="1" fill="none" fill-rule="evenodd" opacity="0.345191592">
        <g id="家校互联" transform="translate(-288.000000, -98.000000)" fill="#FFFFFF">
            <g id="家校互联绿" transform="translate(273.000000, 83.000000)">
                <g id="共享" transform="translate(15.000000, 15.000000)">
                    <path d="M111.356164,70.7155084 C111.383562,70.0171174 111.39726,69.3187265 111.39726,68.6066416 C111.39726,51.1605615 102.657534,35.0564875 88.0136986,25.525505 C86.0273973,24.2382746 83.3835616,24.7997261 82.0958904,26.7716535 C80.8082192,28.7572749 81.369863,31.4002054 83.3424658,32.6874358 C95.5068493,40.6162273 102.794521,53.9815132 102.835616,68.4697022 C93.3972603,68.4833961 85.7534247,76.1383088 85.7534247,85.5871277 C85.7534247,95.0359466 93.4246575,102.704553 102.876712,102.704553 C112.328767,102.704553 120,95.0359466 120,85.5871277 C120,79.2194454 116.520548,73.6597056 111.356164,70.7155084 Z M12.6849315,68.5244779 C12.8219178,68.5381719 12.9452055,68.5381719 13.0821918,68.5381719 C15.2739726,68.5381719 17.1369863,66.8675111 17.3424658,64.6490928 C18.9452055,47.120849 30.7671233,32.9887025 46.6712329,27.8671688 C49.8082192,31.7562479 54.6164384,34.2348511 60,34.2348511 C69.4520548,34.2348511 77.1232877,26.5662444 77.1232877,17.1174255 C77.1232877,7.66860664 69.4520548,0 60,0 C50.5479452,0 42.8767123,7.66860664 42.8767123,17.1174255 C42.8767123,18.1170832 42.9589041,19.1030469 43.1232877,20.0616227 C36.5616438,22.3348168 30.4794521,25.9500171 25.2465753,30.7428963 C15.8082192,39.3974666 9.95890411,51.1742554 8.80821918,63.8822321 C8.60273973,66.2238959 10.3287671,68.3053749 12.6849315,68.5244779 Z M84.7671233,103.567271 C77.5068493,108.716193 68.9452055,111.441287 60,111.441287 C49.8219178,111.441287 40.1917808,107.880863 32.6027397,101.554262 C33.6575342,99.3358439 34.2465753,96.8435467 34.2465753,94.2280041 C34.2465753,84.7791852 26.5753425,77.1105786 17.1232877,77.1105786 C7.67123288,77.1105786 0,84.7654913 0,94.2143102 C0,103.663129 7.67123288,111.331736 17.1232877,111.331736 C20.8630137,111.331736 24.3150685,110.140363 27.1232877,108.11366 C29.5890411,110.167751 32.260274,112.002739 35.0684932,113.563848 C42.6575342,117.767888 51.2739726,120 60,120 C70.7260274,120 81,116.727148 89.7123288,110.551181 C91.6438356,109.181787 92.0958904,106.511469 90.7260274,104.580623 C89.3561644,102.649777 86.6849315,102.197877 84.7671233,103.567271 Z" id="Shape" fill-rule="nonzero"></path>
                </g>
            </g>
        </g>
    </g>
</svg>