<?xml version="1.0" encoding="UTF-8"?>
<svg width="32px" height="32px" viewBox="0 0 32 32" version="1.1" xmlns="http://www.w3.org/2000/svg" xmlns:xlink="http://www.w3.org/1999/xlink">
    <!-- Generator: Sketch 52.6 (67491) - http://www.bohemiancoding.com/sketch -->
    <title>icon/班级通知@3x</title>
    <desc>Created with Sketch.</desc>
    <defs>
        <linearGradient x1="50%" y1="96.0784314%" x2="50%" y2="2.77466388%" id="linearGradient-1">
            <stop stop-color="#4BE29A" offset="0%"></stop>
            <stop stop-color="#51DCD0" offset="100%"></stop>
        </linearGradient>
    </defs>
    <g id="icon/班级通知" stroke="none" stroke-width="1" fill="none" fill-rule="evenodd">
        <path d="M24,7 L25,7 C25.5522847,7 26,7.44771525 26,8 L26,26 C26,26.5522847 25.5522847,27 25,27 L11,27 C10.4477153,27 10,26.5522847 10,26 L10,25 L23,25 C23.5522847,25 24,24.5522847 24,24 L24,7 Z" id="Combined-Shape" fill="url(#linearGradient-1)" fill-rule="nonzero" opacity="0.3"></path>
        <path d="M9,5 L23,5 C23.5522847,5 24,5.44771525 24,6 L24,24 C24,24.5522847 23.5522847,25 23,25 L9,25 C8.44771525,25 8,24.5522847 8,24 L8,6 C8,5.44771525 8.44771525,5 9,5 Z M10.5,19 C10.2238576,19 10,19.2238576 10,19.5 C10,19.7761424 10.2238576,20 10.5,20 L13.5,20 C13.7761424,20 14,19.7761424 14,19.5 C14,19.2238576 13.7761424,19 13.5,19 L10.5,19 Z M10.5,21 C10.2238576,21 10,21.2238576 10,21.5 C10,21.7761424 10.2238576,22 10.5,22 L13.5,22 C13.7761424,22 14,21.7761424 14,21.5 C14,21.2238576 13.7761424,21 13.5,21 L10.5,21 Z M15.5,19 C15.2238576,19 15,19.2238576 15,19.5 C15,19.7761424 15.2238576,20 15.5,20 C15.7761424,20 16,19.7761424 16,19.5 C16,19.2238576 15.7761424,19 15.5,19 Z M17.5,19 C17.2238576,19 17,19.2238576 17,19.5 C17,19.7761424 17.2238576,20 17.5,20 L18.5,20 C18.7761424,20 19,19.7761424 19,19.5 C19,19.2238576 18.7761424,19 18.5,19 L17.5,19 Z M15.5,21 C15.2238576,21 15,21.2238576 15,21.5 C15,21.7761424 15.2238576,22 15.5,22 L16.5,22 C16.7761424,22 17,21.7761424 17,21.5 C17,21.2238576 16.7761424,21 16.5,21 L15.5,21 Z M20.5,19 C20.2238576,19 20,19.2238576 20,19.5 C20,19.7761424 20.2238576,20 20.5,20 L21.5,20 C21.7761424,20 22,19.7761424 22,19.5 C22,19.2238576 21.7761424,19 21.5,19 L20.5,19 Z M18.5,21 C18.2238576,21 18,21.2238576 18,21.5 C18,21.7761424 18.2238576,22 18.5,22 L21.5,22 C21.7761424,22 22,21.7761424 22,21.5 C22,21.2238576 21.7761424,21 21.5,21 L18.5,21 Z M11.55,8.52 L11.55,9.19 L12.71,9.19 L12.71,11.76 L11.64,11.76 L11.64,12.43 L12.71,12.43 L12.71,15.35 C12.29,15.47 11.87,15.58 11.43,15.68 L11.61,16.37 C12.69,16.08 13.7,15.72 14.63,15.3 L14.63,14.58 C14.23,14.77 13.82,14.95 13.41,15.11 L13.41,12.43 L14.36,12.43 L14.36,11.76 L13.41,11.76 L13.41,9.19 L14.5,9.19 L14.5,8.52 L11.55,8.52 Z M14.93,9.48 L14.93,10.54 C14.92,11.76 14.76,12.64 14.44,13.19 L14.95,13.64 C15.37,12.98 15.58,11.94 15.59,10.54 L15.59,9.48 L14.93,9.48 Z M16.27,7.82 L16.27,12.29 C16.25,14.23 15.59,15.63 14.29,16.5 L14.82,16.97 C16.22,15.99 16.93,14.43 16.96,12.29 L16.96,7.82 L16.27,7.82 Z M17.29,8.44 L17.29,9.1 L18.46,9.1 L18.46,11.95 L17.4,11.95 L17.4,12.61 L18.46,12.61 L18.46,15.96 L16.95,15.96 L16.95,16.63 L20.57,16.63 L20.57,15.96 L19.15,15.96 L19.15,12.61 L20.27,12.61 L20.27,11.95 L19.15,11.95 L19.15,9.1 L20.42,9.1 L20.42,8.44 L17.29,8.44 Z" id="Combined-Shape" fill="url(#linearGradient-1)" fill-rule="nonzero"></path>
    </g>
</svg>