<?xml version="1.0" encoding="UTF-8"?>
<svg width="32px" height="32px" viewBox="0 0 32 32" version="1.1" xmlns="http://www.w3.org/2000/svg" xmlns:xlink="http://www.w3.org/1999/xlink">
    <!-- Generator: Sketch 52.6 (67491) - http://www.bohemiancoding.com/sketch -->
    <title>icon/学校通知@3x</title>
    <desc>Created with Sketch.</desc>
    <defs>
        <linearGradient x1="50%" y1="96.0784314%" x2="50%" y2="2.77466388%" id="linearGradient-1">
            <stop stop-color="#4BE29A" offset="0%"></stop>
            <stop stop-color="#51DCD0" offset="100%"></stop>
        </linearGradient>
    </defs>
    <g id="icon/学校通知" stroke="none" stroke-width="1" fill="none" fill-rule="evenodd">
        <path d="M24,7 L25,7 C25.5522847,7 26,7.44771525 26,8 L26,26 C26,26.5522847 25.5522847,27 25,27 L11,27 C10.4477153,27 10,26.5522847 10,26 L10,25 L23,25 C23.5522847,25 24,24.5522847 24,24 L24,7 Z" id="Combined-Shape" fill="url(#linearGradient-1)" fill-rule="nonzero" opacity="0.3"></path>
        <path d="M9,5 L23,5 C23.5522847,5 24,5.44771525 24,6 L24,24 C24,24.5522847 23.5522847,25 23,25 L9,25 C8.44771525,25 8,24.5522847 8,24 L8,6 C8,5.44771525 8.44771525,5 9,5 Z M10.5,19 C10.2238576,19 10,19.2238576 10,19.5 C10,19.7761424 10.2238576,20 10.5,20 L13.5,20 C13.7761424,20 14,19.7761424 14,19.5 C14,19.2238576 13.7761424,19 13.5,19 L10.5,19 Z M10.5,21 C10.2238576,21 10,21.2238576 10,21.5 C10,21.7761424 10.2238576,22 10.5,22 L13.5,22 C13.7761424,22 14,21.7761424 14,21.5 C14,21.2238576 13.7761424,21 13.5,21 L10.5,21 Z M15.5,19 C15.2238576,19 15,19.2238576 15,19.5 C15,19.7761424 15.2238576,20 15.5,20 C15.7761424,20 16,19.7761424 16,19.5 C16,19.2238576 15.7761424,19 15.5,19 Z M17.5,19 C17.2238576,19 17,19.2238576 17,19.5 C17,19.7761424 17.2238576,20 17.5,20 L18.5,20 C18.7761424,20 19,19.7761424 19,19.5 C19,19.2238576 18.7761424,19 18.5,19 L17.5,19 Z M15.5,21 C15.2238576,21 15,21.2238576 15,21.5 C15,21.7761424 15.2238576,22 15.5,22 L16.5,22 C16.7761424,22 17,21.7761424 17,21.5 C17,21.2238576 16.7761424,21 16.5,21 L15.5,21 Z M20.5,19 C20.2238576,19 20,19.2238576 20,19.5 C20,19.7761424 20.2238576,20 20.5,20 L21.5,20 C21.7761424,20 22,19.7761424 22,19.5 C22,19.2238576 21.7761424,19 21.5,19 L20.5,19 Z M18.5,21 C18.2238576,21 18,21.2238576 18,21.5 C18,21.7761424 18.2238576,22 18.5,22 L21.5,22 C21.7761424,22 22,21.7761424 22,21.5 C22,21.2238576 21.7761424,21 21.5,21 L18.5,21 Z M11.61,9.77 L11.61,10.46 L12.96,10.46 C12.64,11.7 12.1,12.79 11.36,13.75 L11.66,14.53 C12.2,13.73 12.64,12.85 12.97,11.87 L12.97,16.95 L13.7,16.95 L13.7,11.93 C13.97,12.37 14.29,12.94 14.66,13.64 L15.05,13.07 L14.82,12.74 L15.25,13.05 C15.87,12.34 16.41,11.5 16.87,10.52 L16.27,10.22 C15.84,11.14 15.32,11.94 14.72,12.6 C14.38,12.13 14.04,11.69 13.7,11.28 L13.7,10.46 L14.74,10.46 L14.74,9.77 L13.7,9.77 L13.7,7.85 L12.97,7.85 L12.97,9.77 L11.61,9.77 Z M15,9.12 L15,9.82 L20.38,9.82 L20.38,9.12 L18.17,9.12 C17.99,8.6 17.79,8.13 17.59,7.73 L16.86,7.85 C17.08,8.23 17.27,8.66 17.45,9.12 L15,9.12 Z M18.85,10.18 L18.29,10.53 C18.99,11.43 19.55,12.24 19.96,12.98 L20.56,12.57 C20.16,11.89 19.59,11.09 18.85,10.18 Z M18.54,12.06 C18.38,12.96 18.07,13.74 17.63,14.39 C17.07,13.73 16.72,12.98 16.59,12.13 L15.96,12.32 C16.14,13.32 16.55,14.19 17.19,14.94 C16.55,15.62 15.69,16.11 14.61,16.39 L15.02,17.04 C16.12,16.73 17.01,16.2 17.71,15.46 C18.36,16.06 19.21,16.56 20.25,16.98 L20.61,16.34 C19.61,15.96 18.79,15.48 18.15,14.91 C18.67,14.18 19.02,13.27 19.22,12.19 L18.54,12.06 Z" id="Combined-Shape" fill="url(#linearGradient-1)" fill-rule="nonzero"></path>
    </g>
</svg>