<?xml version="1.0" encoding="UTF-8"?>
<svg width="32px" height="32px" viewBox="0 0 32 32" version="1.1" xmlns="http://www.w3.org/2000/svg" xmlns:xlink="http://www.w3.org/1999/xlink">
    <!-- Generator: Sketch 52.6 (67491) - http://www.bohemiancoding.com/sketch -->
    <title>icon/日期@3x</title>
    <desc>Created with Sketch.</desc>
    <defs>
        <linearGradient x1="50%" y1="96.0784314%" x2="50%" y2="2.77466388%" id="linearGradient-1">
            <stop stop-color="#4BE29A" offset="0%"></stop>
            <stop stop-color="#51DCD0" offset="100%"></stop>
        </linearGradient>
    </defs>
    <g id="icon/日期" stroke="none" stroke-width="1" fill="none" fill-rule="evenodd">
        <path d="M24,7 L25,7 C25.5522847,7 26,7.44771525 26,8 L26,24 C26,24.5522847 25.5522847,25 25,25 L8,25 C7.44771525,25 7,24.5522847 7,24 L7,8 C7,7.44771525 7.44771525,7 8,7 L9,7 L9,8 L13,8 L13,7 L20,7 L20,8 L24,8 L24,7 Z M8,8 L8,24 L25,24 L25,8 L8,8 Z M12,9 L21,9 L21,6 C21,5.44771525 21.4477153,5 22,5 C22.5522847,5 23,5.44771525 23,6 L23,9 C23.5522847,9 24,9.44771525 24,10 L24,13 L9,13 L9,10 C9,9.44771525 9.44771525,9 10,9 L10,6 C10,5.44771525 10.4477153,5 11,5 C11.5522847,5 12,5.44771525 12,6 L12,9 Z" id="Combined-Shape" fill="url(#linearGradient-1)" fill-rule="nonzero"></path>
        <path d="M11.357125,20.713 C11.357125,20.951 11.539125,21.126 11.749125,21.126 C11.994125,21.126 12.148125,20.916 12.148125,20.713 L12.148125,15.925 C12.148125,15.582 11.931125,15.358 11.623125,15.358 C11.378125,15.358 11.140125,15.533 11.028125,15.659 L10.118125,16.688 C10.062125,16.751 10.041125,16.828 10.041125,16.919 C10.041125,17.185 10.272125,17.304 10.405125,17.304 C10.517125,17.304 10.643125,17.248 10.713125,17.157 L11.357125,16.373 Z M15.683125,15.358 C14.143125,15.358 13.793125,16.835 13.793125,18.242 C13.793125,19.761 14.199125,21.126 15.683125,21.126 C17.216125,21.126 17.573125,19.656 17.573125,18.242 C17.573125,16.772 17.188125,15.358 15.683125,15.358 Z M15.683125,16.128 C16.474125,16.128 16.775125,16.919 16.775125,18.242 C16.775125,19.572 16.467125,20.356 15.683125,20.356 C14.899125,20.356 14.591125,19.593 14.591125,18.242 C14.591125,16.933 14.885125,16.128 15.683125,16.128 Z" id="Combined-Shape" fill="url(#linearGradient-1)" fill-rule="nonzero"></path>
        <path d="M19.5,16 L21.5,16 C21.7761424,16 22,16.2238576 22,16.5 C22,16.7761424 21.7761424,17 21.5,17 L19.5,17 C19.2238576,17 19,16.7761424 19,16.5 C19,16.2238576 19.2238576,16 19.5,16 Z M19.5,18 L23.5,18 C23.7761424,18 24,18.2238576 24,18.5 C24,18.7761424 23.7761424,19 23.5,19 L19.5,19 C19.2238576,19 19,18.7761424 19,18.5 C19,18.2238576 19.2238576,18 19.5,18 Z M19.5,20 L22.5,20 C22.7761424,20 23,20.2238576 23,20.5 C23,20.7761424 22.7761424,21 22.5,21 L19.5,21 C19.2238576,21 19,20.7761424 19,20.5 C19,20.2238576 19.2238576,20 19.5,20 Z" id="Combined-Shape" fill="url(#linearGradient-1)" fill-rule="nonzero" opacity="0.3"></path>
        <rect id="Rectangle" fill="url(#linearGradient-1)" fill-rule="nonzero" opacity="0.3" x="7" y="24" width="19" height="2" rx="0.5"></rect>
        <rect id="Rectangle" fill="url(#linearGradient-1)" fill-rule="nonzero" opacity="0.3" x="7" y="24" width="19" height="3" rx="0.5"></rect>
    </g>
</svg>