<?xml version="1.0" encoding="UTF-8"?>
<svg width="32px" height="32px" viewBox="0 0 32 32" version="1.1" xmlns="http://www.w3.org/2000/svg" xmlns:xlink="http://www.w3.org/1999/xlink">
    <!-- Generator: Sketch 52.6 (67491) - http://www.bohemiancoding.com/sketch -->
    <title>icon/查看线路@3x</title>
    <desc>Created with Sketch.</desc>
    <defs>
        <linearGradient x1="50%" y1="96.0784314%" x2="50%" y2="2.77466388%" id="linearGradient-1">
            <stop stop-color="#4BE29A" offset="0%"></stop>
            <stop stop-color="#51DCD0" offset="100%"></stop>
        </linearGradient>
    </defs>
    <g id="icon/查看线路" stroke="none" stroke-width="1" fill="none" fill-rule="evenodd">
        <path d="M20,21 C19.0769231,21 16,15.8711608 16,13.7822705 C16,11.6933802 17.790861,10 20,10 C22.209139,10 24,11.6933802 24,13.7822705 C24,15.8711608 20.9230769,21 20,21 Z M20,15.2369899 C20.8496688,15.2369899 21.5384615,14.5856899 21.5384615,13.7822705 C21.5384615,12.9788512 20.8496688,12.3275511 20,12.3275511 C19.1503312,12.3275511 18.4615385,12.9788512 18.4615385,13.7822705 C18.4615385,14.5856899 19.1503312,15.2369899 20,15.2369899 Z" id="Combined-Shape" fill="url(#linearGradient-1)" fill-rule="nonzero" opacity="0.3"></path>
        <path d="M6.91365711,8.78118465 C6.82365309,8.64917323 6.67207042,8.5625 6.50024414,8.5625 C6.32828106,8.5625 6.17659385,8.64931129 6.08661633,8.78150003 C5.96960326,8.60966472 5.9683297,8.37562906 6.10002943,8.20002943 C6.26571485,7.97911553 6.57911553,7.934344 6.80002943,8.10002943 L8.80002943,9.60002943 C9.02094333,9.76571485 9.06571485,10.0791155 8.90002943,10.3000294 C8.734344,10.5209433 8.42094333,10.5657149 8.20002943,10.4000294 L7.00024414,9.50019046 L7.00024414,23.0313721 L13.5002441,23.0313721 C13.7763865,23.0313721 14.0002441,23.2552297 14.0002441,23.5313721 C14.0002441,23.8075144 13.7763865,24.0313721 13.5002441,24.0313721 L6.50024414,24.0313721 C6.22410177,24.0313721 6.00024414,23.8075144 6.00024414,23.5313721 L6.00024414,9.49986839 L4.80002943,10.4000294 C4.57911553,10.5657149 4.26571485,10.5209433 4.10002943,10.3000294 C3.934344,10.0791155 3.97911553,9.76571485 4.20002943,9.60002943 L6.20002943,8.10002943 C6.42094333,7.934344 6.734344,7.97911553 6.90002943,8.20002943 C7.03164859,8.37552165 7.0304571,8.60937845 6.91365711,8.78118465 Z M15.5,21 C14.2307692,21 10,13.5398703 10,10.5014844 C10,7.46309846 12.4624339,5 15.5,5 C18.5375661,5 21,7.46309846 21,10.5014844 C21,13.5398703 16.7692308,21 15.5,21 Z M15.5,12.6174399 C16.6682947,12.6174399 17.6153846,11.6700944 17.6153846,10.5014844 C17.6153846,9.33287442 16.6682947,8.38552885 15.5,8.38552885 C14.3317053,8.38552885 13.3846154,9.33287442 13.3846154,10.5014844 C13.3846154,11.6700944 14.3317053,12.6174399 15.5,12.6174399 Z M23.0117493,24.0155029 L23.9001221,25.2 C24.0658075,25.4209139 24.021036,25.7343146 23.8001221,25.9 C23.5792082,26.0656854 23.2658075,26.0209139 23.1001221,25.8 L21.6001221,23.8 C21.4344366,23.5790861 21.4792082,23.2656854 21.7001221,23.1 C21.8602175,22.9799284 22.0688856,22.9703855 22.2347056,23.0583113 C22.0595763,23.1360849 21.937439,23.3115305 21.937439,23.5155029 C21.937439,23.7068608 22.0449365,23.8731114 22.2028379,23.9571607 C22.0427538,24.0279708 21.8501189,24.0124976 21.7001221,23.9 C21.4792082,23.7343146 21.4344366,23.4209139 21.6001221,23.2 L23.1001221,21.2 C23.2658075,20.9790861 23.5792082,20.9343146 23.8001221,21.1 C24.021036,21.2656854 24.0658075,21.5790861 23.9001221,21.8 L22.9884949,23.0155029 L26.9996948,23.0155029 L26.9996948,9.01550293 L23.500061,9.01550293 C23.2239187,9.01550293 23.000061,8.7916453 23.000061,8.51550293 C23.000061,8.23936055 23.2239187,8.01550293 23.500061,8.01550293 L27.4996948,8.01550293 C27.7758372,8.01550293 27.9996948,8.23936055 27.9996948,8.51550293 L27.9996948,23.5155029 C27.9996948,23.7916453 27.7758372,24.0155029 27.4996948,24.0155029 L23.0117493,24.0155029 Z M15.5002441,24 C15.2241018,24 15.0002441,23.7761424 15.0002441,23.5 C15.0002441,23.2238576 15.2241018,23 15.5002441,23 C15.7763865,23 16.0002441,23.2238576 16.0002441,23.5 C16.0002441,23.7761424 15.7763865,24 15.5002441,24 Z M20.5002441,24 C20.2241018,24 20.0002441,23.7761424 20.0002441,23.5 C20.0002441,23.2238576 20.2241018,23 20.5002441,23 C20.7763865,23 21.0002441,23.2238576 21.0002441,23.5 C21.0002441,23.7761424 20.7763865,24 20.5002441,24 Z M17.5,23 L18.5,23 C18.7761424,23 19,23.2238576 19,23.5 C19,23.7761424 18.7761424,24 18.5,24 L17.5,24 C17.2238576,24 17,23.7761424 17,23.5 C17,23.2238576 17.2238576,23 17.5,23 Z" id="Combined-Shape" fill="url(#linearGradient-1)" fill-rule="nonzero"></path>
    </g>
</svg>