<?xml version="1.0" encoding="UTF-8"?>
<svg width="32px" height="32px" viewBox="0 0 32 32" version="1.1" xmlns="http://www.w3.org/2000/svg" xmlns:xlink="http://www.w3.org/1999/xlink">
    <!-- Generator: Sketch 52.6 (67491) - http://www.bohemiancoding.com/sketch -->
    <title>icon/上次更新@3x</title>
    <desc>Created with Sketch.</desc>
    <defs>
        <linearGradient x1="50%" y1="96.0784314%" x2="50%" y2="2.77466388%" id="linearGradient-1">
            <stop stop-color="#4BE29A" offset="0%"></stop>
            <stop stop-color="#51DCD0" offset="100%"></stop>
        </linearGradient>
    </defs>
    <g id="icon/上次更新" stroke="none" stroke-width="1" fill="none" fill-rule="evenodd">
        <path d="M18.7976243,9.19618693 C18.5318443,9.00470367 18.358814,8.69252626 18.358814,8.33993545 C18.358814,7.75748557 18.8309829,7.28531666 19.4134328,7.28531666 C19.5318406,7.28531666 19.6456907,7.30483041 19.7519427,7.34081746 L19.7550163,7.33484164 C19.7722967,7.3435465 19.7895473,7.35230277 19.806768,7.36111025 C19.8732311,7.38784302 19.9363433,7.4211488 19.9952999,7.46022275 C22.8623319,9.00879387 24.8555329,11.994023 24.977468,15.4857872 C25.1604129,20.7246427 21.0617874,25.1198804 15.8229318,25.3028253 C10.5840763,25.4857702 6.18883858,21.3871447 6.00589371,16.1482891 C5.87304702,12.3440577 7.99788916,8.98466932 11.177584,7.36000781 L10.2324861,6 L15.4916809,6.60222053 L12.8620835,10.8403131 L12.1818661,9.21625139 C9.6835133,10.4709379 8.00988753,13.0976849 8.11384641,16.0746778 C8.25613686,20.1493432 11.6746551,23.337163 15.7493205,23.1948726 C19.823986,23.0525821 23.0118058,19.6340639 22.8695153,15.5593985 C22.7718045,12.7613266 21.1291669,10.3814527 18.7900312,9.21094919 L18.7976243,9.19618693 Z" id="Combined-Shape" fill="url(#linearGradient-1)" fill-rule="nonzero"></path>
        <path d="M20.7976243,11.1961869 C20.5318443,11.0047037 20.358814,10.6925263 20.358814,10.3399355 C20.358814,9.75748557 20.8309829,9.28531666 21.4134328,9.28531666 C21.5318406,9.28531666 21.6456907,9.30483041 21.7519427,9.34081746 L21.7550163,9.33484164 C21.7722967,9.3435465 21.7895473,9.35230277 21.806768,9.36111025 C21.8732311,9.38784302 21.9363433,9.4211488 21.9952999,9.46022275 C24.8623319,11.0087939 26.8555329,13.994023 26.977468,17.4857872 C27.1604129,22.7246427 23.0617874,27.1198804 17.8229318,27.3028253 C12.5840763,27.4857702 8.18883858,23.3871447 8.00589371,18.1482891 C7.87304702,14.3440577 9.99788916,10.9846693 13.177584,9.36000781 L12.2324861,8 L17.4916809,8.60222053 L14.8620835,12.8403131 L14.1818661,11.2162514 C11.6835133,12.4709379 10.0098875,15.0976849 10.1138464,18.0746778 C10.2561369,22.1493432 13.6746551,25.337163 17.7493205,25.1948726 C21.823986,25.0525821 25.0118058,21.6340639 24.8695153,17.5593985 C24.7718045,14.7613266 23.1291669,12.3814527 20.7900312,11.2109492 L20.7976243,11.1961869 Z" id="Combined-Shape" fill="url(#linearGradient-1)" fill-rule="nonzero" opacity="0.3" transform="translate(17.491681, 17.654359) scale(1, -1) translate(-17.491681, -17.654359) "></path>
    </g>
</svg>