<?xml version="1.0" encoding="UTF-8"?>
<svg width="32px" height="32px" viewBox="0 0 32 32" version="1.1" xmlns="http://www.w3.org/2000/svg" xmlns:xlink="http://www.w3.org/1999/xlink">
    <!-- Generator: Sketch 52.6 (67491) - http://www.bohemiancoding.com/sketch -->
    <title>icon/经纬度@3x</title>
    <desc>Created with Sketch.</desc>
    <defs>
        <linearGradient x1="50%" y1="96.0784314%" x2="50%" y2="2.77466388%" id="linearGradient-1">
            <stop stop-color="#4BE29A" offset="0%"></stop>
            <stop stop-color="#51DCD0" offset="100%"></stop>
        </linearGradient>
    </defs>
    <g id="icon/经纬度" stroke="none" stroke-width="1" fill="none" fill-rule="evenodd">
        <path d="M24,26 L24,24 L17.5,24 C17.2238576,24 17,23.7761424 17,23.5 C17,23.2238576 17.2238576,23 17.5,23 L24,23 L24,20.5 C24,20.2238576 24.2238576,20 24.5,20 C24.7761424,20 25,20.2238576 25,20.5 L25,23 L27.5,23 C27.7761424,23 28,23.2238576 28,23.5 C28,23.7761424 27.7761424,24 27.5,24 L25,24 L25,26 L27.5,26 C27.7761424,26 28,26.2238576 28,26.5 C28,26.7761424 27.7761424,27 27.5,27 L25,27 L25,27.5 C25,27.7761424 24.7761424,28 24.5,28 C24.2238576,28 24,27.7761424 24,27.5 L24,27 L22,27 L22,27.5 C22,27.7761424 21.7761424,28 21.5,28 C21.2238576,28 21,27.7761424 21,27.5 L21,27 L17.5,27 C17.2238576,27 17,26.7761424 17,26.5 C17,26.2238576 17.2238576,26 17.5,26 L21,26 L21,24.5 C21,24.2238576 21.2238576,24 21.5,24 C21.7761424,24 22,24.2238576 22,24.5 L22,26 L24,26 Z M24,9 L24,7 L22,7 L22,7.5 C22,7.77614237 21.7761424,8 21.5,8 C21.2238576,8 21,7.77614237 21,7.5 L21,7 L14.5,7 C14.2238576,7 14,6.77614237 14,6.5 C14,6.22385763 14.2238576,6 14.5,6 L21,6 L21,4.5 C21,4.22385763 21.2238576,4 21.5,4 C21.7761424,4 22,4.22385763 22,4.5 L22,6 L24,6 L24,4.5 C24,4.22385763 24.2238576,4 24.5,4 C24.7761424,4 25,4.22385763 25,4.5 L25,6 L27.5,6 C27.7761424,6 28,6.22385763 28,6.5 C28,6.77614237 27.7761424,7 27.5,7 L25,7 L25,9 L27.5,9 C27.7761424,9 28,9.22385763 28,9.5 C28,9.77614237 27.7761424,10 27.5,10 L25,10 L25,11.5 C25,11.7761424 24.7761424,12 24.5,12 C24.2238576,12 24,11.7761424 24,11.5 L24,10 L17.5,10 C17.2238576,10 17,9.77614237 17,9.5 C17,9.22385763 17.2238576,9 17.5,9 L24,9 Z M11,6 L12.5,6 C12.7761424,6 13,6.22385763 13,6.5 C13,6.77614237 12.7761424,7 12.5,7 L11,7 L11,7.5 C11,7.77614237 10.7761424,8 10.5,8 C10.2238576,8 10,7.77614237 10,7.5 L10,7 L8,7 L8,11.5 C8,11.7761424 7.77614237,12 7.5,12 C7.22385763,12 7,11.7761424 7,11.5 L7,7 L4.5,7 C4.22385763,7 4,6.77614237 4,6.5 C4,6.22385763 4.22385763,6 4.5,6 L7,6 L7,4.5 C7,4.22385763 7.22385763,4 7.5,4 C7.77614237,4 8,4.22385763 8,4.5 L8,6 L10,6 L10,4.5 C10,4.22385763 10.2238576,4 10.5,4 C10.7761424,4 11,4.22385763 11,4.5 L11,6 Z" id="Combined-Shape" fill="url(#linearGradient-1)" fill-rule="nonzero" opacity="0.3"></path>
        <path d="M12.0853529,13 C12.2359953,13.4262067 12.5737933,13.7640047 13,13.9146471 L13,25.5421977 C8.94289305,24.2679341 6,20.4776418 6,16 C6,14.9547943 6.16035383,13.9470412 6.45780228,13 L12.0853529,13 Z M14.9146471,13 L25.5421977,13 C25.8396462,13.9470412 26,14.9547943 26,16 C26,21.5228475 21.5228475,26 16,26 C15.3150683,26 14.6462199,25.9311395 14,25.7999638 L14,13.9146471 C14.4262067,13.7640047 14.7640047,13.4262067 14.9146471,13 Z M12.0853529,12 L6.83208737,12 C7.98187871,9.36840827 10.2315302,7.32732838 13,6.45780228 L13,11.0853529 C12.5737933,11.2359953 12.2359953,11.5737933 12.0853529,12 Z M14.9146471,12 C14.7640047,11.5737933 14.4262067,11.2359953 14,11.0853529 L14,6.20003623 C14.6462199,6.06886052 15.3150683,6 16,6 C20.1006381,6 23.6247994,8.46819043 25.1679126,12 L14.9146471,12 Z M17.5,15 C17.2238576,15 17,15.2238576 17,15.5 C17,15.7761424 17.2238576,16 17.5,16 L23.5,16 C23.7761424,16 24,15.7761424 24,15.5 C24,15.2238576 23.7761424,15 23.5,15 L17.5,15 Z M17.5,17 C17.2238576,17 17,17.2238576 17,17.5 C17,17.7761424 17.2238576,18 17.5,18 L20.5,18 C20.7761424,18 21,17.7761424 21,17.5 C21,17.2238576 20.7761424,17 20.5,17 L17.5,17 Z M17.5,19 C17.2238576,19 17,19.2238576 17,19.5 C17,19.7761424 17.2238576,20 17.5,20 L21.5,20 C21.7761424,20 22,19.7761424 22,19.5 C22,19.2238576 21.7761424,19 21.5,19 L17.5,19 Z M17.5,21 C17.2238576,21 17,21.2238576 17,21.5 C17,21.7761424 17.2238576,22 17.5,22 L19.5,22 C19.7761424,22 20,21.7761424 20,21.5 C20,21.2238576 19.7761424,21 19.5,21 L17.5,21 Z" id="Combined-Shape" fill="url(#linearGradient-1)" fill-rule="nonzero"></path>
    </g>
</svg>