<?xml version="1.0" encoding="UTF-8"?>
<svg width="32px" height="32px" viewBox="0 0 32 32" version="1.1" xmlns="http://www.w3.org/2000/svg" xmlns:xlink="http://www.w3.org/1999/xlink">
    <!-- Generator: Sketch 52.6 (67491) - http://www.bohemiancoding.com/sketch -->
    <title>icon/时间@3x</title>
    <desc>Created with Sketch.</desc>
    <defs>
        <linearGradient x1="50%" y1="96.0784314%" x2="50%" y2="2.77466388%" id="linearGradient-1">
            <stop stop-color="#4BE29A" offset="0%"></stop>
            <stop stop-color="#51DCD0" offset="100%"></stop>
        </linearGradient>
    </defs>
    <g id="icon/时间" stroke="none" stroke-width="1" fill="none" fill-rule="evenodd">
        <path d="M16.5,26.5 C10.4248678,26.5 5.5,21.5751322 5.5,15.5 C5.5,9.42486775 10.4248678,4.5 16.5,4.5 C22.5751322,4.5 27.5,9.42486775 27.5,15.5 C27.5,21.5751322 22.5751322,26.5 16.5,26.5 Z M16.5,7 C16.2238576,7 16,7.22385763 16,7.5 L16,8.5 C16,8.77614237 16.2238576,9 16.5,9 C16.7761424,9 17,8.77614237 17,8.5 L17,7.5 C17,7.22385763 16.7761424,7 16.5,7 Z M16.5,22 C16.2238576,22 16,22.2238576 16,22.5 L16,23.5 C16,23.7761424 16.2238576,24 16.5,24 C16.7761424,24 17,23.7761424 17,23.5 L17,22.5 C17,22.2238576 16.7761424,22 16.5,22 Z M8.5,15 C8.22385763,15 8,15.2238576 8,15.5 C8,15.7761424 8.22385763,16 8.5,16 L9.5,16 C9.77614237,16 10,15.7761424 10,15.5 C10,15.2238576 9.77614237,15 9.5,15 L8.5,15 Z M23.5,15 C23.2238576,15 23,15.2238576 23,15.5 C23,15.7761424 23.2238576,16 23.5,16 L24.5,16 C24.7761424,16 25,15.7761424 25,15.5 C25,15.2238576 24.7761424,15 24.5,15 L23.5,15 Z M13.6226972,12.9530894 L15.8934115,15.5644107 L13.0622112,20.6959613 C12.928813,20.9377454 13.0166772,21.2418907 13.2584613,21.3752888 C13.5002454,21.508687 13.8043907,21.4208228 13.9377888,21.1790387 L16.9377888,15.7415387 C17.0391701,15.5577851 17.0150121,15.3302764 16.8773028,15.1719106 L14.3773028,12.2969106 C14.196104,12.0885321 13.8802892,12.0664985 13.6719106,12.2476972 C13.4635321,12.428896 13.4414985,12.7447108 13.6226972,12.9530894 Z" id="Combined-Shape" fill="url(#linearGradient-1)" fill-rule="nonzero" opacity="0.3"></path>
        <path d="M16.5,25 C11.2532949,25 7,20.7467051 7,15.5 C7,10.2532949 11.2532949,6 16.5,6 C21.7467051,6 26,10.2532949 26,15.5 C26,20.7467051 21.7467051,25 16.5,25 Z M16.5,7 C16.2238576,7 16,7.22385763 16,7.5 L16,8.5 C16,8.77614237 16.2238576,9 16.5,9 C16.7761424,9 17,8.77614237 17,8.5 L17,7.5 C17,7.22385763 16.7761424,7 16.5,7 Z M16.5,22 C16.2238576,22 16,22.2238576 16,22.5 L16,23.5 C16,23.7761424 16.2238576,24 16.5,24 C16.7761424,24 17,23.7761424 17,23.5 L17,22.5 C17,22.2238576 16.7761424,22 16.5,22 Z M8.5,15 C8.22385763,15 8,15.2238576 8,15.5 C8,15.7761424 8.22385763,16 8.5,16 L9.5,16 C9.77614237,16 10,15.7761424 10,15.5 C10,15.2238576 9.77614237,15 9.5,15 L8.5,15 Z M23.5,15 C23.2238576,15 23,15.2238576 23,15.5 C23,15.7761424 23.2238576,16 23.5,16 L24.5,16 C24.7761424,16 25,15.7761424 25,15.5 C25,15.2238576 24.7761424,15 24.5,15 L23.5,15 Z M13.6226972,12.9530894 L15.8934115,15.5644107 L13.0622112,20.6959613 C12.928813,20.9377454 13.0166772,21.2418907 13.2584613,21.3752888 C13.5002454,21.508687 13.8043907,21.4208228 13.9377888,21.1790387 L16.9377888,15.7415387 C17.0391701,15.5577851 17.0150121,15.3302764 16.8773028,15.1719106 L14.3773028,12.2969106 C14.196104,12.0885321 13.8802892,12.0664985 13.6719106,12.2476972 C13.4635321,12.428896 13.4414985,12.7447108 13.6226972,12.9530894 Z M11.0606602,9.35355339 C10.865398,9.15829124 10.5488155,9.15829124 10.3535534,9.35355339 C10.1582912,9.54881554 10.1582912,9.86539803 10.3535534,10.0606602 L11.0606602,10.767767 C11.2559223,10.9630291 11.5725048,10.9630291 11.767767,10.767767 C11.9630291,10.5725048 11.9630291,10.2559223 11.767767,10.0606602 L11.0606602,9.35355339 Z M22.0606602,20.3535534 C21.865398,20.1582912 21.5488155,20.1582912 21.3535534,20.3535534 C21.1582912,20.5488155 21.1582912,20.865398 21.3535534,21.0606602 L22.0606602,21.767767 C22.2559223,21.9630291 22.5725048,21.9630291 22.767767,21.767767 C22.9630291,21.5725048 22.9630291,21.2559223 22.767767,21.0606602 L22.0606602,20.3535534 Z M10.3535534,21.0606602 C10.1582912,21.2559223 10.1582912,21.5725048 10.3535534,21.767767 C10.5488155,21.9630291 10.865398,21.9630291 11.0606602,21.767767 L11.767767,21.0606602 C11.9630291,20.865398 11.9630291,20.5488155 11.767767,20.3535534 C11.5725048,20.1582912 11.2559223,20.1582912 11.0606602,20.3535534 L10.3535534,21.0606602 Z M21.3535534,10.0606602 C21.1582912,10.2559223 21.1582912,10.5725048 21.3535534,10.767767 C21.5488155,10.9630291 21.865398,10.9630291 22.0606602,10.767767 L22.767767,10.0606602 C22.9630291,9.86539803 22.9630291,9.54881554 22.767767,9.35355339 C22.5725048,9.15829124 22.2559223,9.15829124 22.0606602,9.35355339 L21.3535534,10.0606602 Z" id="Combined-Shape" fill="url(#linearGradient-1)" fill-rule="nonzero"></path>
    </g>
</svg>