<?xml version="1.0" encoding="UTF-8"?>
<svg width="20px" height="21px" viewBox="0 0 20 21" version="1.1" xmlns="http://www.w3.org/2000/svg" xmlns:xlink="http://www.w3.org/1999/xlink">
    <!-- Generator: Sketch 52.6 (67491) - http://www.bohemiancoding.com/sketch -->
    <title>icon/电话@3x</title>
    <desc>Created with Sketch.</desc>
    <defs>
        <linearGradient x1="50%" y1="96.0784314%" x2="50%" y2="2.77466388%" id="linearGradient-1">
            <stop stop-color="#4BE29A" offset="0%"></stop>
            <stop stop-color="#51DCD0" offset="100%"></stop>
        </linearGradient>
    </defs>
    <g id="教师端" stroke="none" stroke-width="1" fill="none" fill-rule="evenodd">
        <g id="学生信息详情" transform="translate(-303.000000, -267.000000)" fill="url(#linearGradient-1)" fill-rule="nonzero">
            <path d="M322.990003,277.18181 L322.990003,277.180748 C322.979218,277.437629 322.868504,277.679527 322.682376,277.852878 C322.496249,278.02623 322.250064,278.116733 321.998334,278.104348 C321.745475,278.093732 321.511345,277.982263 321.33965,277.790112 C321.169277,277.600652 321.080448,277.349427 321.093033,277.092635 C321.188728,275.023162 320.469794,273.000495 319.096168,271.474601 C317.731382,269.940657 315.822081,269.027104 313.793393,268.937356 C313.454346,268.921805 313.149186,268.722901 312.992863,268.415568 C312.836539,268.108234 312.852803,267.739163 313.035526,267.44738 C313.21825,267.155597 313.539674,266.985431 313.878721,267.000981 C319.141954,267.245151 323.229336,271.811131 322.990003,277.18181 Z M309.611319,272.181632 C309.702889,272.449158 309.759081,272.679527 309.765324,272.814351 C309.772608,272.955545 309.75804,273.096739 309.723701,273.233687 C309.598832,273.732643 309.205494,274.191258 308.518714,274.632887 C308.177284,274.845426 307.821562,275.03309 307.454205,275.194478 C307.338979,275.246451 307.250051,275.344864 307.208629,275.46625 L307.198223,275.503406 C307.169835,275.61564 307.183954,275.734667 307.237765,275.836752 C308.055958,277.351661 309.054499,278.757621 310.210691,280.022675 C311.410475,281.342255 312.766345,282.511086 314.133662,283.399653 C314.333738,283.529099 314.597709,283.480134 314.740317,283.287122 C314.882876,283.090725 315.70285,281.976035 315.70285,281.976035 L315.721581,281.951618 C316.241869,281.335885 316.780887,280.701043 317.988995,281.293421 C319.1534,281.861382 320.233518,282.531257 320.954637,283.130004 C321.487412,283.56951 321.616443,284.053604 321.631011,284.379518 C321.638295,284.538759 321.620605,284.70437 321.578982,284.872104 C321.492615,285.21925 321.30427,285.572766 320.999382,285.954945 C320.786064,286.234148 318.823537,288.662048 315.574859,287.8255 C314.869349,287.656704 311.157615,286.606773 307.527045,282.556735 C305.414676,280.199964 304.130605,277.962092 303.364742,275.295331 C303.163226,274.655481 303.043268,273.991832 303.007824,273.320739 C302.978179,272.741029 303.032883,272.160037 303.170154,271.596686 C303.663387,269.612539 305.105625,268.666646 305.274198,268.562608 C305.922477,268.137964 306.472942,267.986154 306.95785,268.097623 C307.665442,268.264296 308.123295,269.021223 308.396967,269.47453 C309.118086,270.675209 309.589467,272.117936 309.611319,272.181632 Z M315.056691,278.039521 C315.085461,277.480141 314.875996,276.933193 314.475152,276.521022 C314.077329,276.10582 313.520155,275.858785 312.92828,275.835184 C312.671305,275.824699 312.429408,275.717534 312.256374,275.537517 C312.042178,275.319786 311.954743,275.016409 312.022483,274.725975 C312.122598,274.287352 312.542595,273.981003 313.016521,274.000917 C315.317429,274.102472 317.097418,275.946305 316.995862,278.122988 C316.985399,278.366596 316.872488,278.596156 316.682228,278.760638 C316.491969,278.92512 316.240127,279.010893 315.982687,278.998891 C315.725122,278.988633 315.482682,278.881035 315.309718,278.700219 C315.135781,278.520614 315.044717,278.282829 315.056691,278.039521 Z M317.971448,277.013241 C318.037719,275.713102 317.544481,274.442227 316.601669,273.483875 C315.665299,272.519468 314.354682,271.945311 312.962223,271.8895 C312.554723,271.870009 312.199423,271.624245 312.060564,271.265814 C311.921704,270.907384 312.026337,270.506116 312.326095,270.247501 C312.523765,270.077716 312.785997,269.988973 313.054206,270.001097 C314.982507,270.078154 316.797571,270.873025 318.094462,272.208375 C319.400655,273.536112 320.083865,275.296896 319.991762,277.098137 C319.980281,277.348842 319.862214,277.58491 319.663741,277.753997 C319.465268,277.923084 319.202789,278.011217 318.934505,277.998855 C318.377777,277.973697 317.94715,277.533491 317.97034,277.013241 L317.971448,277.013241 Z" id="icon/电话"></path>
        </g>
    </g>
</svg>